G04*
G04 #@! TF.GenerationSoftware,Altium Limited,Altium Designer,26.5.1 (12)*
G04*
G04 Layer_Color=65535*
G04 Board_Origin=0|0*
%FSLAX43Y43*%
%MOMM*%
G71*
G04*
G04 #@! TF.SameCoordinates,EEE4B215-AFAD-44E5-B78E-6D07C90FEE48*
G04*
G04*
G04 #@! TF.FilePolarity,Positive*
G04*
G01*
G75*
%ADD10C,0.250*%
%ADD11C,0.254*%
%ADD12C,0.152*%
%ADD13C,0.200*%
%ADD14C,0.100*%
%ADD15C,0.051*%
%ADD16C,0.038*%
%ADD17C,0.030*%
G36*
X94347Y75840D02*
X94473D01*
Y75822D01*
X94563D01*
Y75804D01*
X94653D01*
Y75786D01*
X94725D01*
Y75768D01*
X94779D01*
Y75750D01*
X94833D01*
Y75732D01*
X94887D01*
Y75714D01*
X94941D01*
Y75696D01*
X94977D01*
Y75678D01*
X95031D01*
Y75660D01*
X95067D01*
Y75642D01*
X95121D01*
Y75624D01*
X95157D01*
Y75606D01*
X95193D01*
Y75588D01*
X95229D01*
Y75570D01*
X95247D01*
Y75552D01*
X95283D01*
Y75534D01*
X95319D01*
Y75516D01*
X95355D01*
Y75498D01*
X95391D01*
Y75480D01*
X95409D01*
Y75462D01*
X95445D01*
Y75444D01*
X95463D01*
Y75426D01*
X95499D01*
Y75408D01*
X95517D01*
Y75390D01*
X95553D01*
Y75372D01*
X95571D01*
Y75354D01*
X95589D01*
Y75336D01*
X95625D01*
Y75318D01*
X95643D01*
Y75300D01*
X95661D01*
Y75282D01*
X95697D01*
Y75264D01*
X95715D01*
Y75246D01*
X95733D01*
Y75228D01*
X95751D01*
Y75210D01*
X95769D01*
Y75192D01*
X95787D01*
Y75174D01*
X95823D01*
Y75156D01*
X95841D01*
Y75138D01*
X95859D01*
Y75120D01*
X95877D01*
Y75102D01*
X95895D01*
Y75084D01*
X95913D01*
Y75066D01*
X95931D01*
Y75048D01*
X95949D01*
Y75030D01*
X95967D01*
Y74994D01*
X95985D01*
Y74976D01*
X96003D01*
Y74958D01*
X96021D01*
Y74940D01*
X96039D01*
Y74922D01*
X96057D01*
Y74904D01*
X96075D01*
Y74868D01*
X96093D01*
Y74850D01*
X96111D01*
Y74832D01*
X96129D01*
Y74796D01*
X96147D01*
Y74778D01*
X96165D01*
Y74760D01*
X96183D01*
Y74724D01*
X96201D01*
Y74706D01*
X96219D01*
Y74670D01*
X96237D01*
Y74652D01*
X96255D01*
Y74616D01*
X96273D01*
Y74580D01*
X96291D01*
Y74562D01*
X96309D01*
Y74526D01*
X96327D01*
Y74490D01*
X96345D01*
Y74454D01*
X96363D01*
Y74418D01*
X96381D01*
Y74382D01*
X96399D01*
Y74346D01*
X96417D01*
Y74310D01*
X96435D01*
Y74274D01*
X96453D01*
Y74220D01*
X96471D01*
Y74184D01*
X96489D01*
Y74130D01*
X96507D01*
Y74076D01*
X96525D01*
Y74022D01*
X96543D01*
Y73968D01*
X96561D01*
Y73897D01*
X96579D01*
Y73825D01*
X96597D01*
Y73735D01*
X96615D01*
Y73645D01*
X96633D01*
Y73501D01*
X96651D01*
Y72997D01*
X96633D01*
Y72853D01*
X96615D01*
Y72745D01*
X96597D01*
Y72673D01*
X96579D01*
Y72601D01*
X96561D01*
Y72529D01*
X96543D01*
Y72475D01*
X96525D01*
Y72421D01*
X96507D01*
Y72367D01*
X96489D01*
Y72313D01*
X96471D01*
Y72277D01*
X96453D01*
Y72241D01*
X96435D01*
Y72187D01*
X96417D01*
Y72151D01*
X96399D01*
Y72115D01*
X96381D01*
Y72079D01*
X96363D01*
Y72043D01*
X96345D01*
Y72007D01*
X96327D01*
Y71971D01*
X96309D01*
Y71953D01*
X96291D01*
Y71917D01*
X96273D01*
Y71881D01*
X96255D01*
Y71863D01*
X96237D01*
Y71827D01*
X96219D01*
Y71809D01*
X96201D01*
Y71773D01*
X96183D01*
Y71755D01*
X96165D01*
Y71719D01*
X96147D01*
Y71701D01*
X96129D01*
Y71683D01*
X96111D01*
Y71647D01*
X96093D01*
Y71629D01*
X96075D01*
Y71611D01*
X96057D01*
Y71593D01*
X96039D01*
Y71557D01*
X96021D01*
Y71539D01*
X96003D01*
Y71521D01*
X95985D01*
Y71503D01*
X95967D01*
Y71485D01*
X95949D01*
Y71467D01*
X95931D01*
Y71449D01*
X95913D01*
Y71431D01*
X95895D01*
Y71413D01*
X95877D01*
Y71395D01*
X95859D01*
Y71377D01*
X95841D01*
Y71359D01*
X95823D01*
Y71341D01*
X95805D01*
Y71323D01*
X95787D01*
Y71305D01*
X95769D01*
Y71287D01*
X95751D01*
Y71269D01*
X95715D01*
Y71251D01*
X95697D01*
Y71233D01*
X95679D01*
Y71215D01*
X95661D01*
Y71197D01*
X95643D01*
Y71179D01*
X95607D01*
Y71161D01*
X95589D01*
Y71143D01*
X95553D01*
Y71125D01*
X95535D01*
Y71107D01*
X95517D01*
Y71089D01*
X95481D01*
Y71071D01*
X95463D01*
Y71053D01*
X95427D01*
Y71035D01*
X95391D01*
Y71017D01*
X95373D01*
Y70999D01*
X95337D01*
Y70981D01*
X95301D01*
Y70963D01*
X95265D01*
Y70945D01*
X95229D01*
Y70927D01*
X95211D01*
Y70909D01*
X95175D01*
Y70891D01*
X95139D01*
Y70873D01*
X95103D01*
Y70855D01*
X95175D01*
Y70873D01*
X95373D01*
Y70891D01*
X95517D01*
Y70909D01*
X95679D01*
Y70927D01*
X95841D01*
Y70945D01*
X96039D01*
Y70963D01*
X96183D01*
Y70981D01*
X96345D01*
Y70999D01*
X96471D01*
Y71017D01*
X96669D01*
Y70963D01*
X96651D01*
Y70945D01*
X96633D01*
Y70927D01*
X96615D01*
Y70909D01*
X96597D01*
Y70873D01*
X96579D01*
Y70855D01*
X96561D01*
Y70837D01*
X96543D01*
Y70819D01*
X96525D01*
Y70801D01*
X96507D01*
Y70783D01*
X96489D01*
Y70765D01*
X96471D01*
Y70747D01*
X96453D01*
Y70729D01*
X96435D01*
Y70711D01*
X96417D01*
Y70675D01*
X96399D01*
Y70657D01*
X96381D01*
Y70639D01*
X96363D01*
Y70621D01*
X96345D01*
Y70603D01*
X96327D01*
Y70585D01*
X96345D01*
Y70567D01*
X96381D01*
Y70549D01*
X96399D01*
Y70531D01*
X96417D01*
Y70513D01*
X96435D01*
Y70495D01*
X96453D01*
Y70477D01*
X96489D01*
Y70459D01*
X96507D01*
Y70441D01*
X96543D01*
Y70423D01*
X96561D01*
Y70405D01*
X96579D01*
Y70387D01*
X96597D01*
Y70369D01*
X96633D01*
Y70351D01*
X96651D01*
Y70333D01*
X96669D01*
Y70315D01*
X96687D01*
Y70297D01*
X96705D01*
Y70279D01*
X96651D01*
Y70261D01*
X96579D01*
Y70243D01*
X96507D01*
Y70225D01*
X96435D01*
Y70207D01*
X96363D01*
Y70189D01*
X96291D01*
Y70171D01*
X96237D01*
Y70153D01*
X96165D01*
Y70135D01*
X96093D01*
Y70117D01*
X96021D01*
Y70099D01*
X95949D01*
Y70081D01*
X95895D01*
Y70063D01*
X95823D01*
Y70045D01*
X95805D01*
Y69901D01*
X92224D01*
Y70027D01*
X92152D01*
Y70045D01*
X92080D01*
Y70063D01*
X92008D01*
Y70081D01*
X91918D01*
Y70099D01*
X91846D01*
Y70117D01*
X91774D01*
Y70135D01*
X91702D01*
Y70153D01*
X91612D01*
Y70171D01*
X91540D01*
Y70189D01*
X91468D01*
Y70207D01*
X91396D01*
Y70225D01*
X91306D01*
Y70243D01*
X91324D01*
Y70261D01*
X91342D01*
Y70279D01*
X91360D01*
Y70297D01*
X91378D01*
Y70315D01*
X91396D01*
Y70333D01*
X91414D01*
Y70351D01*
X91432D01*
Y70369D01*
X91450D01*
Y70387D01*
X91468D01*
Y70405D01*
X91504D01*
Y70423D01*
X91522D01*
Y70441D01*
X91540D01*
Y70459D01*
X91558D01*
Y70477D01*
X91576D01*
Y70495D01*
X91594D01*
Y70513D01*
X91612D01*
Y70531D01*
X91630D01*
Y70549D01*
X91666D01*
Y70567D01*
X91684D01*
Y70585D01*
X91702D01*
Y70603D01*
X91684D01*
Y70621D01*
X91666D01*
Y70639D01*
X91648D01*
Y70657D01*
X91630D01*
Y70693D01*
X91612D01*
Y70711D01*
X91594D01*
Y70729D01*
X91576D01*
Y70747D01*
X91558D01*
Y70765D01*
X91540D01*
Y70801D01*
X91522D01*
Y70819D01*
X91504D01*
Y70837D01*
X91486D01*
Y70855D01*
X91468D01*
Y70873D01*
X91450D01*
Y70891D01*
X91432D01*
Y70909D01*
X91414D01*
Y70945D01*
X91396D01*
Y70963D01*
X91378D01*
Y70981D01*
X91360D01*
Y71017D01*
X91378D01*
Y71035D01*
X91504D01*
Y71017D01*
X91684D01*
Y70999D01*
X91864D01*
Y70981D01*
X92008D01*
Y70963D01*
X92170D01*
Y70945D01*
X92350D01*
Y70927D01*
X92512D01*
Y70909D01*
X92709D01*
Y70891D01*
X92835D01*
Y70909D01*
X92799D01*
Y70927D01*
X92763D01*
Y70945D01*
X92727D01*
Y70963D01*
X92691D01*
Y70981D01*
X92674D01*
Y70999D01*
X92637D01*
Y71017D01*
X92602D01*
Y71035D01*
X92584D01*
Y71053D01*
X92548D01*
Y71071D01*
X92530D01*
Y71089D01*
X92494D01*
Y71107D01*
X92458D01*
Y71125D01*
X92440D01*
Y71143D01*
X92422D01*
Y71161D01*
X92386D01*
Y71179D01*
X92368D01*
Y71197D01*
X92350D01*
Y71215D01*
X92332D01*
Y71233D01*
X92296D01*
Y71251D01*
X92278D01*
Y71269D01*
X92260D01*
Y71287D01*
X92242D01*
Y71305D01*
X92224D01*
Y71323D01*
X92206D01*
Y71341D01*
X92188D01*
Y71359D01*
X92170D01*
Y71377D01*
X92152D01*
Y71395D01*
X92134D01*
Y71413D01*
X92116D01*
Y71431D01*
X92098D01*
Y71449D01*
X92080D01*
Y71467D01*
X92062D01*
Y71485D01*
X92044D01*
Y71503D01*
X92026D01*
Y71521D01*
X92008D01*
Y71539D01*
X91990D01*
Y71557D01*
X91972D01*
Y71575D01*
X91954D01*
Y71611D01*
X91936D01*
Y71629D01*
X91918D01*
Y71647D01*
X91900D01*
Y71665D01*
X91882D01*
Y71701D01*
X91864D01*
Y71719D01*
X91846D01*
Y71737D01*
X91828D01*
Y71773D01*
X91810D01*
Y71791D01*
X91792D01*
Y71827D01*
X91774D01*
Y71845D01*
X91756D01*
Y71881D01*
X91738D01*
Y71917D01*
X91720D01*
Y71935D01*
X91702D01*
Y71971D01*
X91684D01*
Y72007D01*
X91666D01*
Y72043D01*
X91648D01*
Y72079D01*
X91630D01*
Y72115D01*
X91612D01*
Y72151D01*
X91594D01*
Y72187D01*
X91576D01*
Y72223D01*
X91558D01*
Y72259D01*
X91540D01*
Y72313D01*
X91522D01*
Y72367D01*
X91504D01*
Y72403D01*
X91486D01*
Y72457D01*
X91468D01*
Y72529D01*
X91450D01*
Y72583D01*
X91432D01*
Y72673D01*
X91414D01*
Y72745D01*
X91396D01*
Y72853D01*
X91378D01*
Y72997D01*
X91360D01*
Y73501D01*
X91378D01*
Y73645D01*
X91396D01*
Y73753D01*
X91414D01*
Y73843D01*
X91432D01*
Y73915D01*
X91450D01*
Y73987D01*
X91468D01*
Y74040D01*
X91486D01*
Y74094D01*
X91504D01*
Y74148D01*
X91522D01*
Y74184D01*
X91540D01*
Y74238D01*
X91558D01*
Y74274D01*
X91576D01*
Y74328D01*
X91594D01*
Y74364D01*
X91612D01*
Y74400D01*
X91630D01*
Y74436D01*
X91648D01*
Y74472D01*
X91666D01*
Y74508D01*
X91684D01*
Y74526D01*
X91702D01*
Y74562D01*
X91720D01*
Y74598D01*
X91738D01*
Y74616D01*
X91756D01*
Y74652D01*
X91774D01*
Y74670D01*
X91792D01*
Y74706D01*
X91810D01*
Y74724D01*
X91828D01*
Y74760D01*
X91846D01*
Y74778D01*
X91864D01*
Y74796D01*
X91882D01*
Y74832D01*
X91900D01*
Y74850D01*
X91918D01*
Y74868D01*
X91936D01*
Y74904D01*
X91954D01*
Y74922D01*
X91972D01*
Y74940D01*
X91990D01*
Y74958D01*
X92008D01*
Y74976D01*
X92026D01*
Y75012D01*
X92044D01*
Y75030D01*
X92062D01*
Y75048D01*
X92080D01*
Y75066D01*
X92098D01*
Y75084D01*
X92116D01*
Y75102D01*
X92134D01*
Y75120D01*
X92152D01*
Y75138D01*
X92170D01*
Y75156D01*
X92188D01*
Y75174D01*
X92224D01*
Y75192D01*
X92242D01*
Y75210D01*
X92260D01*
Y75228D01*
X92278D01*
Y75246D01*
X92296D01*
Y75264D01*
X92314D01*
Y75282D01*
X92350D01*
Y75300D01*
X92368D01*
Y75318D01*
X92386D01*
Y75336D01*
X92404D01*
Y75354D01*
X92440D01*
Y75372D01*
X92458D01*
Y75390D01*
X92494D01*
Y75408D01*
X92512D01*
Y75426D01*
X92548D01*
Y75444D01*
X92566D01*
Y75462D01*
X92602D01*
Y75480D01*
X92619D01*
Y75498D01*
X92656D01*
Y75516D01*
X92691D01*
Y75534D01*
X92727D01*
Y75552D01*
X92745D01*
Y75570D01*
X92781D01*
Y75588D01*
X92817D01*
Y75606D01*
X92853D01*
Y75624D01*
X92889D01*
Y75642D01*
X92943D01*
Y75660D01*
X92979D01*
Y75678D01*
X93033D01*
Y75696D01*
X93069D01*
Y75714D01*
X93123D01*
Y75732D01*
X93177D01*
Y75750D01*
X93231D01*
Y75768D01*
X93285D01*
Y75786D01*
X93357D01*
Y75804D01*
X93447D01*
Y75822D01*
X93537D01*
Y75840D01*
X93663D01*
Y75858D01*
X94347D01*
Y75840D01*
D02*
G37*
%LPC*%
G36*
X94203Y75786D02*
X93807D01*
Y75768D01*
X93645D01*
Y75750D01*
X93537D01*
Y75732D01*
X93447D01*
Y75714D01*
X93357D01*
Y75696D01*
X93303D01*
Y75678D01*
X93231D01*
Y75660D01*
X93177D01*
Y75642D01*
X93141D01*
Y75624D01*
X93087D01*
Y75606D01*
X93033D01*
Y75588D01*
X92997D01*
Y75570D01*
X92961D01*
Y75552D01*
X92907D01*
Y75534D01*
X92871D01*
Y75516D01*
X92835D01*
Y75498D01*
X92799D01*
Y75480D01*
X92781D01*
Y75462D01*
X92745D01*
Y75444D01*
X92709D01*
Y75426D01*
X92674D01*
Y75408D01*
X92656D01*
Y75390D01*
X92619D01*
Y75372D01*
X92584D01*
Y75354D01*
X92566D01*
Y75336D01*
X92530D01*
Y75318D01*
X92512D01*
Y75300D01*
X92494D01*
Y75282D01*
X92458D01*
Y75264D01*
X92440D01*
Y75246D01*
X92422D01*
Y75228D01*
X92386D01*
Y75210D01*
X92368D01*
Y75192D01*
X92350D01*
Y75174D01*
X92332D01*
Y75156D01*
X92314D01*
Y75138D01*
X92278D01*
Y75120D01*
X92260D01*
Y75102D01*
X92242D01*
Y75084D01*
X92224D01*
Y75066D01*
X92206D01*
Y75048D01*
X92188D01*
Y75030D01*
X92170D01*
Y75012D01*
X92152D01*
Y74994D01*
X92134D01*
Y74976D01*
X92116D01*
Y74958D01*
X92098D01*
Y74922D01*
X92080D01*
Y74904D01*
X92062D01*
Y74886D01*
X92044D01*
Y74868D01*
X92026D01*
Y74850D01*
X92008D01*
Y74832D01*
X91990D01*
Y74796D01*
X91972D01*
Y74778D01*
X91954D01*
Y74760D01*
X91936D01*
Y74724D01*
X91918D01*
Y74706D01*
X91900D01*
Y74688D01*
X91882D01*
Y74652D01*
X91864D01*
Y74634D01*
X91846D01*
Y74598D01*
X91828D01*
Y74580D01*
X91810D01*
Y74544D01*
X91792D01*
Y74508D01*
X91774D01*
Y74490D01*
X91756D01*
Y74454D01*
X91738D01*
Y74418D01*
X91720D01*
Y74382D01*
X91702D01*
Y74346D01*
X91684D01*
Y74310D01*
X91666D01*
Y74274D01*
X91648D01*
Y74220D01*
X91630D01*
Y74184D01*
X91612D01*
Y74130D01*
X91594D01*
Y74094D01*
X91576D01*
Y74040D01*
X91558D01*
Y73987D01*
X91540D01*
Y73915D01*
X91522D01*
Y73843D01*
X91504D01*
Y73771D01*
X91486D01*
Y73681D01*
X91468D01*
Y73555D01*
X91450D01*
Y72961D01*
X91468D01*
Y72835D01*
X91486D01*
Y72745D01*
X91504D01*
Y72655D01*
X91522D01*
Y72601D01*
X91540D01*
Y72529D01*
X91558D01*
Y72475D01*
X91576D01*
Y72421D01*
X91594D01*
Y72367D01*
X91612D01*
Y72331D01*
X91630D01*
Y72277D01*
X91648D01*
Y72241D01*
X91666D01*
Y72205D01*
X91684D01*
Y72169D01*
X91702D01*
Y72115D01*
X91720D01*
Y72079D01*
X91738D01*
Y72061D01*
X91756D01*
Y72025D01*
X91774D01*
Y71989D01*
X91792D01*
Y71953D01*
X91810D01*
Y71935D01*
X91828D01*
Y71899D01*
X91846D01*
Y71881D01*
X91864D01*
Y71845D01*
X91882D01*
Y71827D01*
X91900D01*
Y71791D01*
X91918D01*
Y71773D01*
X91936D01*
Y71755D01*
X91954D01*
Y71719D01*
X91972D01*
Y71701D01*
X91990D01*
Y71683D01*
X92008D01*
Y71647D01*
X92026D01*
Y71629D01*
X92044D01*
Y71611D01*
X92062D01*
Y71593D01*
X92080D01*
Y71575D01*
X92098D01*
Y71557D01*
X92116D01*
Y71539D01*
X92134D01*
Y71521D01*
X92152D01*
Y71503D01*
X92170D01*
Y71485D01*
X92188D01*
Y71449D01*
X92206D01*
Y71431D01*
X92224D01*
Y71413D01*
X92260D01*
Y71395D01*
X92278D01*
Y71377D01*
X92296D01*
Y71359D01*
X92314D01*
Y71341D01*
X92332D01*
Y71323D01*
X92368D01*
Y71305D01*
X92386D01*
Y71287D01*
X92404D01*
Y71269D01*
X92422D01*
Y71251D01*
X92440D01*
Y71233D01*
X92476D01*
Y71215D01*
X92494D01*
Y71197D01*
X92512D01*
Y71179D01*
X92548D01*
Y71161D01*
X92566D01*
Y71143D01*
X92602D01*
Y71125D01*
X92619D01*
Y71107D01*
X92656D01*
Y71089D01*
X92674D01*
Y71071D01*
X92709D01*
Y71053D01*
X92745D01*
Y71035D01*
X92781D01*
Y71017D01*
X92817D01*
Y70999D01*
X92853D01*
Y70981D01*
X92889D01*
Y70963D01*
X92925D01*
Y70945D01*
X92961D01*
Y70927D01*
X93015D01*
Y70909D01*
X93051D01*
Y70891D01*
X93105D01*
Y70873D01*
X93141D01*
Y70855D01*
X93195D01*
Y70837D01*
X93267D01*
Y70819D01*
X93321D01*
Y70801D01*
X93393D01*
Y70783D01*
X93483D01*
Y70765D01*
X93555D01*
Y70747D01*
X93663D01*
Y70729D01*
X93951D01*
Y70711D01*
X94113D01*
Y70729D01*
X94347D01*
Y70747D01*
X94455D01*
Y70765D01*
X94545D01*
Y70783D01*
X94617D01*
Y70801D01*
X94689D01*
Y70819D01*
X94761D01*
Y70837D01*
X94815D01*
Y70855D01*
X94869D01*
Y70873D01*
X94905D01*
Y70891D01*
X94959D01*
Y70909D01*
X95013D01*
Y70927D01*
X95049D01*
Y70945D01*
X95085D01*
Y70963D01*
X95139D01*
Y70981D01*
X95175D01*
Y70999D01*
X95211D01*
Y71017D01*
X95229D01*
Y71035D01*
X95265D01*
Y71053D01*
X95301D01*
Y71071D01*
X95337D01*
Y71089D01*
X95355D01*
Y71107D01*
X95391D01*
Y71125D01*
X95409D01*
Y71143D01*
X95445D01*
Y71161D01*
X95463D01*
Y71179D01*
X95499D01*
Y71197D01*
X95517D01*
Y71215D01*
X95535D01*
Y71233D01*
X95571D01*
Y71251D01*
X95589D01*
Y71269D01*
X95607D01*
Y71287D01*
X95625D01*
Y71305D01*
X95661D01*
Y71323D01*
X95679D01*
Y71341D01*
X95697D01*
Y71359D01*
X95715D01*
Y71377D01*
X95733D01*
Y71395D01*
X95751D01*
Y71413D01*
X95769D01*
Y71431D01*
X95787D01*
Y71449D01*
X95805D01*
Y71467D01*
X95823D01*
Y71485D01*
X95841D01*
Y71503D01*
X95859D01*
Y71521D01*
X95877D01*
Y71539D01*
X95895D01*
Y71557D01*
X95913D01*
Y71575D01*
X95931D01*
Y71593D01*
X95949D01*
Y71611D01*
X95967D01*
Y71629D01*
X95985D01*
Y71647D01*
X96003D01*
Y71683D01*
X96021D01*
Y71701D01*
X96039D01*
Y71719D01*
X96057D01*
Y71755D01*
X96075D01*
Y71773D01*
X96093D01*
Y71791D01*
X96111D01*
Y71827D01*
X96129D01*
Y71845D01*
X96147D01*
Y71881D01*
X96165D01*
Y71899D01*
X96183D01*
Y71935D01*
X96201D01*
Y71953D01*
X96219D01*
Y71989D01*
X96237D01*
Y72025D01*
X96255D01*
Y72061D01*
X96273D01*
Y72097D01*
X96291D01*
Y72133D01*
X96309D01*
Y72169D01*
X96327D01*
Y72205D01*
X96345D01*
Y72241D01*
X96363D01*
Y72277D01*
X96381D01*
Y72331D01*
X96399D01*
Y72367D01*
X96417D01*
Y72421D01*
X96435D01*
Y72475D01*
X96453D01*
Y72529D01*
X96471D01*
Y72601D01*
X96489D01*
Y72655D01*
X96507D01*
Y72745D01*
X96525D01*
Y72835D01*
X96543D01*
Y72961D01*
X96561D01*
Y73537D01*
X96543D01*
Y73663D01*
X96525D01*
Y73753D01*
X96507D01*
Y73843D01*
X96489D01*
Y73915D01*
X96471D01*
Y73968D01*
X96453D01*
Y74022D01*
X96435D01*
Y74076D01*
X96417D01*
Y74130D01*
X96399D01*
Y74166D01*
X96381D01*
Y74220D01*
X96363D01*
Y74256D01*
X96345D01*
Y74292D01*
X96327D01*
Y74346D01*
X96309D01*
Y74364D01*
X96291D01*
Y74400D01*
X96273D01*
Y74436D01*
X96255D01*
Y74472D01*
X96237D01*
Y74508D01*
X96219D01*
Y74544D01*
X96201D01*
Y74562D01*
X96183D01*
Y74598D01*
X96165D01*
Y74616D01*
X96147D01*
Y74652D01*
X96129D01*
Y74670D01*
X96111D01*
Y74706D01*
X96093D01*
Y74724D01*
X96075D01*
Y74760D01*
X96057D01*
Y74778D01*
X96039D01*
Y74796D01*
X96021D01*
Y74814D01*
X96003D01*
Y74850D01*
X95985D01*
Y74868D01*
X95967D01*
Y74886D01*
X95949D01*
Y74904D01*
X95931D01*
Y74922D01*
X95913D01*
Y74940D01*
X95895D01*
Y74958D01*
X95877D01*
Y74994D01*
X95859D01*
Y75012D01*
X95841D01*
Y75030D01*
X95823D01*
Y75048D01*
X95805D01*
Y75066D01*
X95787D01*
Y75084D01*
X95769D01*
Y75102D01*
X95733D01*
Y75120D01*
X95715D01*
Y75138D01*
X95697D01*
Y75156D01*
X95679D01*
Y75174D01*
X95661D01*
Y75192D01*
X95643D01*
Y75210D01*
X95625D01*
Y75228D01*
X95589D01*
Y75246D01*
X95571D01*
Y75264D01*
X95553D01*
Y75282D01*
X95517D01*
Y75300D01*
X95499D01*
Y75318D01*
X95463D01*
Y75336D01*
X95445D01*
Y75354D01*
X95427D01*
Y75372D01*
X95391D01*
Y75390D01*
X95355D01*
Y75408D01*
X95337D01*
Y75426D01*
X95301D01*
Y75444D01*
X95283D01*
Y75462D01*
X95247D01*
Y75480D01*
X95211D01*
Y75498D01*
X95175D01*
Y75516D01*
X95139D01*
Y75534D01*
X95103D01*
Y75552D01*
X95049D01*
Y75570D01*
X95013D01*
Y75588D01*
X94959D01*
Y75606D01*
X94923D01*
Y75624D01*
X94869D01*
Y75642D01*
X94815D01*
Y75660D01*
X94761D01*
Y75678D01*
X94707D01*
Y75696D01*
X94635D01*
Y75714D01*
X94563D01*
Y75732D01*
X94473D01*
Y75750D01*
X94365D01*
Y75768D01*
X94203D01*
Y75786D01*
D02*
G37*
G36*
X95031Y70765D02*
X94941D01*
Y70693D01*
X95355D01*
Y70711D01*
X95301D01*
Y70729D01*
X95175D01*
Y70747D01*
X95031D01*
Y70765D01*
D02*
G37*
G36*
X94887D02*
X94815D01*
Y70747D01*
X94761D01*
Y70729D01*
X94689D01*
Y70711D01*
X94653D01*
Y70693D01*
X94869D01*
Y70711D01*
X94887D01*
Y70765D01*
D02*
G37*
G36*
X93195D02*
X93177D01*
Y70747D01*
X93159D01*
Y70711D01*
X93177D01*
Y70693D01*
X93357D01*
Y70711D01*
X93321D01*
Y70729D01*
X93267D01*
Y70747D01*
X93195D01*
Y70765D01*
D02*
G37*
G36*
X93123Y70783D02*
X93033D01*
Y70765D01*
X92925D01*
Y70747D01*
X92835D01*
Y70729D01*
X92709D01*
Y70711D01*
X92656D01*
Y70693D01*
X93105D01*
Y70711D01*
X93123D01*
Y70783D01*
D02*
G37*
G36*
X96579Y70963D02*
X96489D01*
Y70945D01*
X96327D01*
Y70927D01*
X96165D01*
Y70909D01*
X96003D01*
Y70891D01*
X95841D01*
Y70873D01*
X95679D01*
Y70855D01*
X95535D01*
Y70837D01*
X95373D01*
Y70819D01*
X95193D01*
Y70801D01*
X95175D01*
Y70783D01*
X95283D01*
Y70765D01*
X95391D01*
Y70747D01*
X95553D01*
Y70729D01*
X95661D01*
Y70711D01*
X95769D01*
Y70693D01*
X95805D01*
Y70117D01*
X95895D01*
Y70135D01*
X95967D01*
Y70153D01*
X96021D01*
Y70171D01*
X96093D01*
Y70189D01*
X96165D01*
Y70207D01*
X96237D01*
Y70225D01*
X96291D01*
Y70243D01*
X96363D01*
Y70261D01*
X96435D01*
Y70279D01*
X96507D01*
Y70297D01*
X96579D01*
Y70333D01*
X96561D01*
Y70351D01*
X96525D01*
Y70369D01*
X96507D01*
Y70387D01*
X96489D01*
Y70405D01*
X96471D01*
Y70423D01*
X96435D01*
Y70441D01*
X96417D01*
Y70459D01*
X96399D01*
Y70477D01*
X96381D01*
Y70495D01*
X96345D01*
Y70513D01*
X96327D01*
Y70531D01*
X96309D01*
Y70549D01*
X96291D01*
Y70567D01*
X96255D01*
Y70603D01*
X96273D01*
Y70621D01*
X96291D01*
Y70639D01*
X96309D01*
Y70657D01*
X96327D01*
Y70693D01*
X96345D01*
Y70711D01*
X96363D01*
Y70729D01*
X96381D01*
Y70747D01*
X96399D01*
Y70765D01*
X96417D01*
Y70783D01*
X96435D01*
Y70801D01*
X96453D01*
Y70819D01*
X96471D01*
Y70837D01*
X96489D01*
Y70855D01*
X96507D01*
Y70891D01*
X96525D01*
Y70909D01*
X96543D01*
Y70927D01*
X96561D01*
Y70945D01*
X96579D01*
Y70963D01*
D02*
G37*
G36*
X91540Y70981D02*
X91450D01*
Y70963D01*
X91468D01*
Y70927D01*
X91486D01*
Y70909D01*
X91504D01*
Y70891D01*
X91522D01*
Y70873D01*
X91540D01*
Y70855D01*
X91558D01*
Y70819D01*
X91576D01*
Y70801D01*
X91594D01*
Y70783D01*
X91612D01*
Y70765D01*
X91630D01*
Y70747D01*
X91648D01*
Y70711D01*
X91666D01*
Y70693D01*
X91684D01*
Y70675D01*
X91702D01*
Y70657D01*
X91720D01*
Y70639D01*
X91738D01*
Y70621D01*
X91756D01*
Y70567D01*
X91738D01*
Y70549D01*
X91720D01*
Y70531D01*
X91684D01*
Y70513D01*
X91666D01*
Y70495D01*
X91648D01*
Y70477D01*
X91630D01*
Y70459D01*
X91612D01*
Y70441D01*
X91594D01*
Y70423D01*
X91576D01*
Y70405D01*
X91558D01*
Y70387D01*
X91540D01*
Y70369D01*
X91522D01*
Y70351D01*
X91504D01*
Y70333D01*
X91468D01*
Y70315D01*
X91450D01*
Y70297D01*
X91432D01*
Y70261D01*
X91468D01*
Y70243D01*
X91540D01*
Y70225D01*
X91612D01*
Y70207D01*
X91684D01*
Y70189D01*
X91756D01*
Y70171D01*
X91846D01*
Y70153D01*
X91918D01*
Y70135D01*
X91990D01*
Y70117D01*
X92080D01*
Y70099D01*
X92152D01*
Y70081D01*
X92224D01*
Y70693D01*
X92332D01*
Y70711D01*
X92440D01*
Y70729D01*
X92548D01*
Y70747D01*
X92637D01*
Y70765D01*
X92745D01*
Y70783D01*
X92835D01*
Y70801D01*
X92925D01*
Y70819D01*
X92853D01*
Y70837D01*
X92691D01*
Y70855D01*
X92530D01*
Y70873D01*
X92350D01*
Y70891D01*
X92206D01*
Y70909D01*
X92008D01*
Y70927D01*
X91882D01*
Y70945D01*
X91702D01*
Y70963D01*
X91540D01*
Y70981D01*
D02*
G37*
G36*
X95751Y70639D02*
X92278D01*
Y69955D01*
X95751D01*
Y70639D01*
D02*
G37*
%LPD*%
G36*
X94239Y75624D02*
X94293D01*
Y75588D01*
X94311D01*
Y75552D01*
X94329D01*
Y75516D01*
X94347D01*
Y75498D01*
X94365D01*
Y75480D01*
X94329D01*
Y75390D01*
X94311D01*
Y75282D01*
X94275D01*
Y75462D01*
X94293D01*
Y75480D01*
X94239D01*
Y75498D01*
X94095D01*
Y75462D01*
X94167D01*
Y75444D01*
X94185D01*
Y75426D01*
X94203D01*
Y75336D01*
X94185D01*
Y75318D01*
X94149D01*
Y75354D01*
X94167D01*
Y75408D01*
X94149D01*
Y75426D01*
X94113D01*
Y75408D01*
X94095D01*
Y75300D01*
X94059D01*
Y75318D01*
X94041D01*
Y75336D01*
X94005D01*
Y75318D01*
X93969D01*
Y75336D01*
X93933D01*
Y75354D01*
X93915D01*
Y75462D01*
X93951D01*
Y75480D01*
X93969D01*
Y75462D01*
X94041D01*
Y75498D01*
X93825D01*
Y75426D01*
X93843D01*
Y75300D01*
X93807D01*
Y75372D01*
X93789D01*
Y75480D01*
X93771D01*
Y75498D01*
X93753D01*
Y75480D01*
X93735D01*
Y75336D01*
X93717D01*
Y75318D01*
X93699D01*
Y75336D01*
X93663D01*
Y75354D01*
X93645D01*
Y75372D01*
X93627D01*
Y75390D01*
X93645D01*
Y75408D01*
X93681D01*
Y75480D01*
X93645D01*
Y75462D01*
X93591D01*
Y75444D01*
X93573D01*
Y75408D01*
X93591D01*
Y75282D01*
X93609D01*
Y75264D01*
X93555D01*
Y75354D01*
X93537D01*
Y75444D01*
X93465D01*
Y75426D01*
X93447D01*
Y75408D01*
X93465D01*
Y75336D01*
X93483D01*
Y75264D01*
X93501D01*
Y75228D01*
X93465D01*
Y75246D01*
X93447D01*
Y75300D01*
X93429D01*
Y75372D01*
X93411D01*
Y75426D01*
X93375D01*
Y75408D01*
X93339D01*
Y75354D01*
X93357D01*
Y75300D01*
X93375D01*
Y75246D01*
X93393D01*
Y75210D01*
X93321D01*
Y75192D01*
X93303D01*
Y75174D01*
X93285D01*
Y75156D01*
X93231D01*
Y75174D01*
X93213D01*
Y75228D01*
X93195D01*
Y75246D01*
X93159D01*
Y75318D01*
X93195D01*
Y75354D01*
X93177D01*
Y75336D01*
X93123D01*
Y75318D01*
X93087D01*
Y75246D01*
X93105D01*
Y75210D01*
X93123D01*
Y75156D01*
X93141D01*
Y75120D01*
X93105D01*
Y75138D01*
X93087D01*
Y75174D01*
X93069D01*
Y75210D01*
X93051D01*
Y75246D01*
X93033D01*
Y75282D01*
X92997D01*
Y75264D01*
X92979D01*
Y75246D01*
X92961D01*
Y75228D01*
X92979D01*
Y75192D01*
X92997D01*
Y75174D01*
X93015D01*
Y75138D01*
X93033D01*
Y75102D01*
X93051D01*
Y75066D01*
X92979D01*
Y75030D01*
X92943D01*
Y75048D01*
X92961D01*
Y75084D01*
X92853D01*
Y75102D01*
X92835D01*
Y75138D01*
X92817D01*
Y75156D01*
X92763D01*
Y75174D01*
X92781D01*
Y75192D01*
X92817D01*
Y75210D01*
X92853D01*
Y75228D01*
X92871D01*
Y75246D01*
X92907D01*
Y75264D01*
X92943D01*
Y75282D01*
X92979D01*
Y75300D01*
X92997D01*
Y75318D01*
X92871D01*
Y75336D01*
X92907D01*
Y75354D01*
X92961D01*
Y75336D01*
X92997D01*
Y75318D01*
X93015D01*
Y75336D01*
X92997D01*
Y75354D01*
X92979D01*
Y75372D01*
X92853D01*
Y75408D01*
X92961D01*
Y75390D01*
X92997D01*
Y75372D01*
X93015D01*
Y75354D01*
X93033D01*
Y75336D01*
X93087D01*
Y75354D01*
X93123D01*
Y75372D01*
X93177D01*
Y75390D01*
X93213D01*
Y75408D01*
X93285D01*
Y75426D01*
X93339D01*
Y75444D01*
X93393D01*
Y75480D01*
X93375D01*
Y75498D01*
X93357D01*
Y75516D01*
X93267D01*
Y75552D01*
X93339D01*
Y75534D01*
X93375D01*
Y75516D01*
X93393D01*
Y75498D01*
X93411D01*
Y75480D01*
X93429D01*
Y75462D01*
X93465D01*
Y75480D01*
X93519D01*
Y75588D01*
X93555D01*
Y75606D01*
X93681D01*
Y75588D01*
X93717D01*
Y75570D01*
X93753D01*
Y75552D01*
X93789D01*
Y75534D01*
X93753D01*
Y75552D01*
X93699D01*
Y75570D01*
X93573D01*
Y75552D01*
X93555D01*
Y75516D01*
X93573D01*
Y75498D01*
X93627D01*
Y75516D01*
X93807D01*
Y75534D01*
X94239D01*
Y75516D01*
X94293D01*
Y75570D01*
X94275D01*
Y75588D01*
X94221D01*
Y75570D01*
X94203D01*
Y75552D01*
X94167D01*
Y75588D01*
X94185D01*
Y75624D01*
X94221D01*
Y75642D01*
X94239D01*
Y75624D01*
D02*
G37*
G36*
X94851Y75462D02*
X94869D01*
Y75444D01*
X94851D01*
Y75426D01*
X94833D01*
Y75444D01*
X94815D01*
Y75480D01*
X94851D01*
Y75462D01*
D02*
G37*
G36*
X94599D02*
X94635D01*
Y75444D01*
X94689D01*
Y75426D01*
X94743D01*
Y75408D01*
X94797D01*
Y75390D01*
X94833D01*
Y75372D01*
X94887D01*
Y75354D01*
X94941D01*
Y75336D01*
X94977D01*
Y75318D01*
X94995D01*
Y75300D01*
X95013D01*
Y75282D01*
X94959D01*
Y75300D01*
X94941D01*
Y75282D01*
X94923D01*
Y75246D01*
X94905D01*
Y75228D01*
X94923D01*
Y75210D01*
X94977D01*
Y75192D01*
X94959D01*
Y75174D01*
X94941D01*
Y75192D01*
X94905D01*
Y75210D01*
X94869D01*
Y75138D01*
X94887D01*
Y75102D01*
X94869D01*
Y75120D01*
X94851D01*
Y75174D01*
X94833D01*
Y75228D01*
X94815D01*
Y75282D01*
X94851D01*
Y75264D01*
X94887D01*
Y75282D01*
X94905D01*
Y75318D01*
X94887D01*
Y75336D01*
X94851D01*
Y75354D01*
X94797D01*
Y75336D01*
X94779D01*
Y75282D01*
X94761D01*
Y75228D01*
X94743D01*
Y75174D01*
X94725D01*
Y75192D01*
X94707D01*
Y75264D01*
X94725D01*
Y75282D01*
X94671D01*
Y75300D01*
X94635D01*
Y75318D01*
X94617D01*
Y75246D01*
X94635D01*
Y75210D01*
X94617D01*
Y75228D01*
X94599D01*
Y75264D01*
X94581D01*
Y75318D01*
X94563D01*
Y75372D01*
X94635D01*
Y75390D01*
X94653D01*
Y75408D01*
X94635D01*
Y75426D01*
X94599D01*
Y75444D01*
X94563D01*
Y75462D01*
X94545D01*
Y75480D01*
X94599D01*
Y75462D01*
D02*
G37*
G36*
X95067Y75264D02*
X95103D01*
Y75246D01*
X95121D01*
Y75228D01*
X95139D01*
Y75138D01*
X95121D01*
Y75120D01*
X95031D01*
Y75102D01*
X95049D01*
Y75084D01*
X95175D01*
Y75120D01*
X95193D01*
Y75138D01*
X95211D01*
Y75174D01*
X95193D01*
Y75210D01*
X95211D01*
Y75192D01*
X95247D01*
Y75174D01*
X95265D01*
Y75156D01*
X95301D01*
Y75138D01*
X95319D01*
Y75120D01*
X95355D01*
Y75102D01*
X95391D01*
Y75084D01*
X95409D01*
Y75066D01*
X95427D01*
Y75048D01*
X95445D01*
Y75030D01*
X95481D01*
Y75012D01*
X95499D01*
Y74994D01*
X95517D01*
Y74976D01*
X95535D01*
Y74958D01*
X95553D01*
Y74940D01*
X95571D01*
Y74922D01*
X95589D01*
Y74904D01*
X95607D01*
Y74886D01*
X95571D01*
Y74904D01*
X95553D01*
Y74886D01*
X95535D01*
Y74850D01*
X95517D01*
Y74832D01*
X95499D01*
Y74814D01*
X95481D01*
Y74796D01*
X95463D01*
Y74778D01*
X95445D01*
Y74760D01*
X95409D01*
Y74814D01*
X95427D01*
Y74832D01*
X95445D01*
Y74850D01*
X95463D01*
Y74886D01*
X95427D01*
Y74904D01*
X95391D01*
Y74886D01*
X95355D01*
Y74904D01*
X95337D01*
Y74976D01*
X95355D01*
Y74994D01*
X95373D01*
Y74976D01*
X95409D01*
Y74958D01*
X95427D01*
Y74940D01*
X95445D01*
Y74922D01*
X95481D01*
Y74904D01*
X95499D01*
Y74922D01*
X95517D01*
Y74940D01*
X95499D01*
Y74958D01*
X95481D01*
Y74976D01*
X95463D01*
Y74994D01*
X95445D01*
Y75012D01*
X95427D01*
Y75030D01*
X95391D01*
Y75048D01*
X95373D01*
Y75066D01*
X95337D01*
Y75048D01*
X95319D01*
Y75012D01*
X95301D01*
Y74994D01*
X95283D01*
Y74976D01*
X95265D01*
Y74940D01*
X95247D01*
Y74922D01*
X95229D01*
Y74904D01*
X95211D01*
Y74976D01*
X95229D01*
Y74994D01*
X95247D01*
Y75030D01*
X95265D01*
Y75048D01*
X95283D01*
Y75084D01*
X95301D01*
Y75102D01*
X95283D01*
Y75120D01*
X95247D01*
Y75102D01*
X95229D01*
Y75084D01*
X95211D01*
Y75048D01*
X95193D01*
Y75030D01*
X95175D01*
Y74994D01*
X95157D01*
Y74958D01*
X95139D01*
Y74976D01*
X95121D01*
Y75030D01*
X95139D01*
Y75048D01*
X95103D01*
Y75030D01*
X95085D01*
Y75048D01*
X95049D01*
Y75066D01*
X95031D01*
Y75084D01*
X95013D01*
Y75102D01*
X94995D01*
Y75156D01*
X95085D01*
Y75174D01*
X95121D01*
Y75210D01*
X95103D01*
Y75228D01*
X95049D01*
Y75174D01*
X95031D01*
Y75264D01*
X95049D01*
Y75282D01*
X95067D01*
Y75264D01*
D02*
G37*
G36*
X92619Y75030D02*
X92602D01*
Y74994D01*
X92619D01*
Y74976D01*
X92637D01*
Y74958D01*
X92656D01*
Y74940D01*
X92674D01*
Y74904D01*
X92691D01*
Y74886D01*
X92709D01*
Y74868D01*
X92727D01*
Y74850D01*
X92656D01*
Y74868D01*
X92637D01*
Y74832D01*
X92619D01*
Y74814D01*
X92602D01*
Y74796D01*
X92512D01*
Y74814D01*
X92494D01*
Y74832D01*
X92512D01*
Y74868D01*
Y74886D01*
Y74904D01*
X92458D01*
Y74886D01*
X92440D01*
Y74868D01*
X92422D01*
Y74832D01*
X92440D01*
Y74814D01*
X92458D01*
Y74796D01*
X92476D01*
Y74778D01*
X92494D01*
Y74760D01*
X92512D01*
Y74724D01*
X92530D01*
Y74688D01*
X92476D01*
Y74724D01*
X92458D01*
Y74742D01*
X92440D01*
Y74760D01*
X92422D01*
Y74778D01*
X92404D01*
Y74796D01*
X92386D01*
Y74814D01*
X92350D01*
Y74778D01*
X92332D01*
Y74742D01*
X92350D01*
Y74724D01*
X92386D01*
Y74706D01*
X92404D01*
Y74688D01*
X92422D01*
Y74670D01*
X92440D01*
Y74652D01*
X92458D01*
Y74634D01*
X92476D01*
Y74616D01*
X92458D01*
Y74598D01*
X92422D01*
Y74616D01*
X92404D01*
Y74634D01*
X92386D01*
Y74652D01*
X92368D01*
Y74670D01*
X92350D01*
Y74652D01*
X92332D01*
Y74634D01*
X92314D01*
Y74616D01*
X92296D01*
Y74598D01*
X92278D01*
Y74580D01*
X92296D01*
Y74562D01*
X92314D01*
Y74544D01*
X92386D01*
Y74562D01*
X92404D01*
Y74526D01*
X92260D01*
Y74544D01*
X92242D01*
Y74616D01*
X92260D01*
Y74634D01*
X92278D01*
Y74652D01*
X92296D01*
Y74670D01*
X92314D01*
Y74706D01*
X92278D01*
Y74688D01*
X92260D01*
Y74670D01*
X92242D01*
Y74652D01*
X92224D01*
Y74634D01*
X92206D01*
Y74616D01*
X92188D01*
Y74598D01*
X92170D01*
Y74580D01*
X92134D01*
Y74598D01*
X92152D01*
Y74616D01*
X92170D01*
Y74634D01*
X92188D01*
Y74670D01*
X92206D01*
Y74688D01*
X92224D01*
Y74706D01*
X92242D01*
Y74724D01*
X92260D01*
Y74742D01*
X92278D01*
Y74778D01*
X92296D01*
Y74814D01*
X92332D01*
Y74832D01*
X92350D01*
Y74868D01*
X92314D01*
Y74886D01*
X92278D01*
Y74868D01*
X92260D01*
Y74814D01*
X92278D01*
Y74796D01*
X92224D01*
Y74832D01*
X92206D01*
Y74868D01*
X92224D01*
Y74886D01*
X92242D01*
Y74904D01*
X92368D01*
Y74886D01*
X92404D01*
Y74904D01*
X92422D01*
Y74922D01*
X92458D01*
Y74940D01*
X92476D01*
Y74958D01*
X92494D01*
Y74976D01*
X92512D01*
Y74994D01*
X92530D01*
Y75012D01*
X92548D01*
Y75030D01*
X92584D01*
Y75048D01*
X92619D01*
Y75030D01*
D02*
G37*
G36*
X95751Y74742D02*
X95769D01*
Y74724D01*
X95787D01*
Y74706D01*
X95805D01*
Y74670D01*
X95823D01*
Y74652D01*
X95841D01*
Y74634D01*
X95859D01*
Y74598D01*
X95877D01*
Y74580D01*
X95913D01*
Y74634D01*
X95931D01*
Y74670D01*
X95913D01*
Y74724D01*
X95931D01*
Y74706D01*
X95949D01*
Y74616D01*
X95931D01*
Y74562D01*
X95913D01*
Y74526D01*
X95931D01*
Y74508D01*
X95949D01*
Y74472D01*
X95967D01*
Y74454D01*
X95985D01*
Y74418D01*
X96003D01*
Y74382D01*
X96021D01*
Y74346D01*
X96039D01*
Y74310D01*
X96057D01*
Y74292D01*
X96075D01*
Y74256D01*
X96093D01*
Y74220D01*
X96111D01*
Y74184D01*
X96129D01*
Y74148D01*
X96147D01*
Y74094D01*
X96165D01*
Y74058D01*
X96129D01*
Y74094D01*
X96111D01*
Y74076D01*
X96057D01*
Y74094D01*
X96039D01*
Y74130D01*
X96021D01*
Y74166D01*
X95985D01*
Y74148D01*
X96003D01*
Y74094D01*
X96021D01*
Y74040D01*
X96003D01*
Y74022D01*
X95985D01*
Y74005D01*
X95931D01*
Y74022D01*
X95913D01*
Y74040D01*
X95895D01*
Y74166D01*
X95913D01*
Y74202D01*
X95931D01*
Y74148D01*
X95913D01*
Y74076D01*
X95931D01*
Y74058D01*
X95949D01*
Y74040D01*
X95985D01*
Y74094D01*
X95967D01*
Y74202D01*
X95985D01*
Y74220D01*
X96021D01*
Y74202D01*
X96039D01*
Y74184D01*
X96057D01*
Y74148D01*
X96075D01*
Y74130D01*
X96093D01*
Y74166D01*
X96075D01*
Y74220D01*
X96057D01*
Y74256D01*
X96039D01*
Y74292D01*
X96021D01*
Y74310D01*
X96003D01*
Y74292D01*
X95967D01*
Y74274D01*
X95931D01*
Y74256D01*
X95913D01*
Y74238D01*
X95877D01*
Y74220D01*
X95823D01*
Y74256D01*
X95841D01*
Y74274D01*
X95859D01*
Y74292D01*
X95877D01*
Y74310D01*
X95859D01*
Y74364D01*
X95841D01*
Y74382D01*
X95859D01*
Y74418D01*
X95877D01*
Y74436D01*
X95895D01*
Y74454D01*
X95913D01*
Y74508D01*
X95859D01*
Y74490D01*
X95823D01*
Y74472D01*
X95805D01*
Y74454D01*
X95787D01*
Y74436D01*
X95751D01*
Y74418D01*
X95733D01*
Y74400D01*
X95715D01*
Y74454D01*
X95733D01*
Y74472D01*
X95751D01*
Y74490D01*
X95769D01*
Y74508D01*
X95787D01*
Y74526D01*
X95823D01*
Y74544D01*
X95841D01*
Y74562D01*
X95859D01*
Y74580D01*
X95841D01*
Y74598D01*
X95823D01*
Y74616D01*
X95805D01*
Y74634D01*
X95787D01*
Y74616D01*
X95769D01*
Y74598D01*
X95751D01*
Y74580D01*
X95679D01*
Y74526D01*
X95661D01*
Y74472D01*
X95643D01*
Y74634D01*
X95661D01*
Y74670D01*
X95697D01*
Y74652D01*
X95715D01*
Y74634D01*
X95751D01*
Y74652D01*
X95769D01*
Y74688D01*
X95751D01*
Y74706D01*
X95733D01*
Y74760D01*
X95751D01*
Y74742D01*
D02*
G37*
G36*
X92152Y74526D02*
X92134D01*
Y74490D01*
X92170D01*
Y74472D01*
X92188D01*
Y74454D01*
X92206D01*
Y74418D01*
X92332D01*
Y74400D01*
X92296D01*
Y74382D01*
X92242D01*
Y74364D01*
X92134D01*
Y74418D01*
X92152D01*
Y74454D01*
X92134D01*
Y74472D01*
X92098D01*
Y74454D01*
X92080D01*
Y74418D01*
X92062D01*
Y74400D01*
X92044D01*
Y74382D01*
X92062D01*
Y74364D01*
X92080D01*
Y74346D01*
X92116D01*
Y74328D01*
X92152D01*
Y74310D01*
X92170D01*
Y74292D01*
X92206D01*
Y74256D01*
X92188D01*
Y74238D01*
X92170D01*
Y74256D01*
X92134D01*
Y74274D01*
X92098D01*
Y74292D01*
X92080D01*
Y74310D01*
X92044D01*
Y74328D01*
X92008D01*
Y74292D01*
X91990D01*
Y74274D01*
X92026D01*
Y74256D01*
X92062D01*
Y74238D01*
X92098D01*
Y74220D01*
X92116D01*
Y74202D01*
X92152D01*
Y74184D01*
X92170D01*
Y74166D01*
X92134D01*
Y74148D01*
X92116D01*
Y74166D01*
X92080D01*
Y74184D01*
X92062D01*
Y74130D01*
X92044D01*
Y74094D01*
X92080D01*
Y74040D01*
X92062D01*
Y74022D01*
X92026D01*
Y74005D01*
X91972D01*
Y74040D01*
X91990D01*
Y74076D01*
X91954D01*
Y74040D01*
X91936D01*
Y74022D01*
X91918D01*
Y74005D01*
X91864D01*
Y74022D01*
X91846D01*
Y74076D01*
X91864D01*
Y74094D01*
X91882D01*
Y74112D01*
X91918D01*
Y74130D01*
X92026D01*
Y74166D01*
X92044D01*
Y74202D01*
X92008D01*
Y74220D01*
X91954D01*
Y74184D01*
X91936D01*
Y74166D01*
X91918D01*
Y74148D01*
X91900D01*
Y74184D01*
X91918D01*
Y74238D01*
X91936D01*
Y74274D01*
X91954D01*
Y74310D01*
X91972D01*
Y74346D01*
X91990D01*
Y74364D01*
X92008D01*
Y74400D01*
X92026D01*
Y74418D01*
X92044D01*
Y74454D01*
X92062D01*
Y74490D01*
X92080D01*
Y74508D01*
X92098D01*
Y74544D01*
X92116D01*
Y74562D01*
X92152D01*
Y74526D01*
D02*
G37*
G36*
X95859Y74058D02*
X95841D01*
Y74040D01*
X95823D01*
Y74058D01*
X95805D01*
Y74094D01*
X95859D01*
Y74058D01*
D02*
G37*
G36*
X96327Y73501D02*
X96309D01*
Y73483D01*
X96291D01*
Y73465D01*
X96255D01*
Y73447D01*
X96237D01*
Y73411D01*
X96255D01*
Y73429D01*
X96327D01*
Y73375D01*
X96345D01*
Y73357D01*
X96309D01*
Y73339D01*
X96129D01*
Y73321D01*
X96111D01*
Y73339D01*
X96093D01*
Y73537D01*
X96129D01*
Y73555D01*
X96183D01*
Y73537D01*
X96201D01*
Y73519D01*
X96237D01*
Y73537D01*
X96255D01*
Y73555D01*
X96273D01*
Y73573D01*
X96327D01*
Y73501D01*
D02*
G37*
G36*
X91738Y73555D02*
X91882D01*
Y73537D01*
X91936D01*
Y73519D01*
X91918D01*
Y73465D01*
X91864D01*
Y73483D01*
X91738D01*
Y73501D01*
X91684D01*
Y73519D01*
Y73555D01*
X91702D01*
Y73573D01*
X91738D01*
Y73555D01*
D02*
G37*
G36*
X91918Y73375D02*
X91900D01*
Y73357D01*
X91864D01*
Y73339D01*
X91828D01*
Y73321D01*
X91810D01*
Y73303D01*
X91792D01*
Y73285D01*
X91918D01*
Y73231D01*
X91900D01*
Y73213D01*
X91720D01*
Y73231D01*
X91666D01*
Y73285D01*
Y73303D01*
X91702D01*
Y73321D01*
X91720D01*
Y73339D01*
X91756D01*
Y73357D01*
X91774D01*
Y73375D01*
X91720D01*
Y73393D01*
X91666D01*
Y73411D01*
X91684D01*
Y73447D01*
X91918D01*
Y73375D01*
D02*
G37*
G36*
X96345Y73285D02*
X96327D01*
Y73249D01*
X96291D01*
Y73177D01*
X96309D01*
Y73159D01*
X96327D01*
Y73087D01*
X96273D01*
Y73105D01*
X96237D01*
Y73123D01*
X96183D01*
Y73141D01*
X96147D01*
Y73159D01*
X96111D01*
Y73177D01*
X96093D01*
Y73195D01*
Y73213D01*
Y73249D01*
X96129D01*
Y73267D01*
X96165D01*
Y73285D01*
X96219D01*
Y73303D01*
X96273D01*
Y73321D01*
X96345D01*
Y73285D01*
D02*
G37*
G36*
X91918Y73051D02*
X91900D01*
Y72997D01*
X91864D01*
Y72979D01*
X91720D01*
Y72997D01*
X91702D01*
Y73015D01*
X91684D01*
Y73105D01*
X91666D01*
Y73177D01*
X91702D01*
Y73195D01*
X91918D01*
Y73051D01*
D02*
G37*
G36*
X96183Y73105D02*
X96219D01*
Y73069D01*
X96237D01*
Y72979D01*
X96291D01*
Y72961D01*
X96309D01*
Y72925D01*
Y72907D01*
Y72889D01*
X96255D01*
Y72907D01*
X96147D01*
Y72925D01*
X96075D01*
Y73015D01*
X96093D01*
Y73087D01*
X96111D01*
Y73105D01*
X96129D01*
Y73123D01*
X96183D01*
Y73105D01*
D02*
G37*
G36*
X91936Y72889D02*
X91846D01*
Y72871D01*
X91738D01*
Y72853D01*
X91702D01*
Y72943D01*
X91828D01*
Y72961D01*
X91936D01*
Y72889D01*
D02*
G37*
G36*
X96219Y72871D02*
X96255D01*
Y72853D01*
X96273D01*
Y72817D01*
X96291D01*
Y72745D01*
X96273D01*
Y72691D01*
X96255D01*
Y72673D01*
X96237D01*
Y72655D01*
X96201D01*
Y72637D01*
X96147D01*
Y72655D01*
X96093D01*
Y72673D01*
X96075D01*
Y72691D01*
X96057D01*
Y72709D01*
X96039D01*
Y72817D01*
X96057D01*
Y72853D01*
X96075D01*
Y72871D01*
X96093D01*
Y72889D01*
X96219D01*
Y72871D01*
D02*
G37*
G36*
X91792Y72817D02*
X91918D01*
Y72799D01*
X91954D01*
Y72781D01*
X91972D01*
Y72709D01*
X91954D01*
Y72691D01*
X91918D01*
Y72673D01*
X91900D01*
Y72655D01*
X91864D01*
Y72637D01*
X91828D01*
Y72619D01*
X91810D01*
Y72601D01*
X91774D01*
Y72583D01*
X91756D01*
Y72673D01*
X91774D01*
Y72745D01*
X91756D01*
Y72763D01*
X91720D01*
Y72781D01*
Y72817D01*
X91702D01*
Y72835D01*
X91792D01*
Y72817D01*
D02*
G37*
G36*
X96093Y72637D02*
X96111D01*
Y72619D01*
X96129D01*
Y72601D01*
X96183D01*
Y72619D01*
X96255D01*
Y72601D01*
X96237D01*
Y72565D01*
X96219D01*
Y72547D01*
X96201D01*
Y72529D01*
X96111D01*
Y72493D01*
X96165D01*
Y72475D01*
X96201D01*
Y72439D01*
X96183D01*
Y72403D01*
X96129D01*
Y72421D01*
X96075D01*
Y72439D01*
X96021D01*
Y72457D01*
X95967D01*
Y72475D01*
X95949D01*
Y72511D01*
X95967D01*
Y72565D01*
X95985D01*
Y72601D01*
X96003D01*
Y72637D01*
X96021D01*
Y72655D01*
X96093D01*
Y72637D01*
D02*
G37*
G36*
X92008Y72601D02*
X92026D01*
Y72583D01*
X92008D01*
Y72547D01*
X91990D01*
Y72529D01*
X91972D01*
Y72511D01*
X91954D01*
Y72475D01*
X92008D01*
Y72493D01*
X92062D01*
Y72457D01*
X92080D01*
Y72439D01*
X92062D01*
Y72421D01*
X92026D01*
Y72403D01*
X91972D01*
Y72385D01*
X91918D01*
Y72367D01*
X91882D01*
Y72349D01*
X91846D01*
Y72385D01*
X91828D01*
Y72421D01*
X91846D01*
Y72457D01*
X91864D01*
Y72475D01*
X91882D01*
Y72511D01*
X91900D01*
Y72529D01*
X91846D01*
Y72511D01*
X91792D01*
Y72529D01*
X91774D01*
Y72565D01*
X91792D01*
Y72583D01*
X91846D01*
Y72601D01*
X91882D01*
Y72619D01*
X91936D01*
Y72637D01*
X92008D01*
Y72601D01*
D02*
G37*
G36*
X92152Y72277D02*
X92170D01*
Y72259D01*
X92152D01*
Y72241D01*
X92134D01*
Y72223D01*
X92098D01*
Y72205D01*
X92062D01*
Y72187D01*
X92026D01*
Y72169D01*
X91990D01*
Y72151D01*
X91954D01*
Y72169D01*
X91936D01*
Y72223D01*
X91954D01*
Y72241D01*
X91990D01*
Y72259D01*
X92026D01*
Y72277D01*
X92062D01*
Y72295D01*
X92098D01*
Y72313D01*
X92152D01*
Y72277D01*
D02*
G37*
G36*
X95931Y72331D02*
X95949D01*
Y72295D01*
X95967D01*
Y72259D01*
X95985D01*
Y72241D01*
X96021D01*
Y72223D01*
X96057D01*
Y72205D01*
X96075D01*
Y72169D01*
X96057D01*
Y72151D01*
Y72133D01*
X96021D01*
Y72151D01*
X95985D01*
Y72169D01*
X95805D01*
Y72205D01*
X95823D01*
Y72223D01*
X95877D01*
Y72241D01*
X95913D01*
Y72259D01*
X95895D01*
Y72295D01*
X95877D01*
Y72349D01*
X95895D01*
Y72367D01*
X95931D01*
Y72331D01*
D02*
G37*
G36*
X92188Y72205D02*
X92206D01*
Y72187D01*
X92224D01*
Y72169D01*
X92206D01*
Y72133D01*
X92188D01*
Y72079D01*
X92170D01*
Y72043D01*
X92188D01*
Y72061D01*
X92224D01*
Y72079D01*
X92242D01*
Y72097D01*
X92278D01*
Y72079D01*
X92296D01*
Y72025D01*
X92260D01*
Y72007D01*
X92242D01*
Y71989D01*
X92206D01*
Y71971D01*
X92188D01*
Y71953D01*
X92152D01*
Y71935D01*
X92116D01*
Y71917D01*
X92098D01*
Y71935D01*
X92080D01*
Y71971D01*
X92062D01*
Y71989D01*
X92080D01*
Y72025D01*
X92098D01*
Y72061D01*
X92116D01*
Y72097D01*
X92080D01*
Y72079D01*
X92062D01*
Y72061D01*
X92026D01*
Y72043D01*
X92008D01*
Y72079D01*
X91990D01*
Y72115D01*
X92008D01*
Y72133D01*
X92044D01*
Y72151D01*
X92062D01*
Y72169D01*
X92098D01*
Y72187D01*
X92116D01*
Y72205D01*
X92152D01*
Y72223D01*
X92188D01*
Y72205D01*
D02*
G37*
G36*
X95841Y72115D02*
X95823D01*
Y72079D01*
X95787D01*
Y72061D01*
X95769D01*
Y72043D01*
X95751D01*
Y72007D01*
X95769D01*
Y71989D01*
X95787D01*
Y71971D01*
X95805D01*
Y71953D01*
X95877D01*
Y71971D01*
X95895D01*
Y72025D01*
X95859D01*
Y72007D01*
X95823D01*
Y72043D01*
X95841D01*
Y72079D01*
X95859D01*
Y72097D01*
X95877D01*
Y72115D01*
X95895D01*
Y72097D01*
X95913D01*
Y72079D01*
X95949D01*
Y72061D01*
X95967D01*
Y72007D01*
X95949D01*
Y71971D01*
X95931D01*
Y71935D01*
X95913D01*
Y71917D01*
X95895D01*
Y71899D01*
X95877D01*
Y71881D01*
X95787D01*
Y71899D01*
X95751D01*
Y71917D01*
X95733D01*
Y71935D01*
X95715D01*
Y71953D01*
X95697D01*
Y72043D01*
X95715D01*
Y72079D01*
X95733D01*
Y72097D01*
X95751D01*
Y72115D01*
X95769D01*
Y72133D01*
X95841D01*
Y72115D01*
D02*
G37*
G36*
X95697Y71917D02*
X95733D01*
Y71899D01*
X95751D01*
Y71881D01*
X95769D01*
Y71845D01*
X95787D01*
Y71755D01*
X95769D01*
Y71737D01*
X95751D01*
Y71719D01*
X95733D01*
Y71701D01*
X95715D01*
Y71683D01*
X95607D01*
Y71701D01*
X95589D01*
Y71719D01*
X95571D01*
Y71737D01*
X95553D01*
Y71755D01*
X95535D01*
Y71845D01*
X95553D01*
Y71881D01*
X95571D01*
Y71899D01*
X95589D01*
Y71917D01*
X95625D01*
Y71935D01*
X95697D01*
Y71917D01*
D02*
G37*
G36*
X95427Y71701D02*
X95445D01*
Y71683D01*
X95463D01*
Y71665D01*
X95481D01*
Y71647D01*
X95499D01*
Y71629D01*
X95517D01*
Y71611D01*
X95571D01*
Y71629D01*
X95589D01*
Y71647D01*
X95607D01*
Y71665D01*
X95643D01*
Y71647D01*
X95661D01*
Y71629D01*
X95643D01*
Y71611D01*
X95625D01*
Y71593D01*
X95607D01*
Y71575D01*
X95589D01*
Y71557D01*
X95571D01*
Y71539D01*
X95553D01*
Y71521D01*
X95535D01*
Y71503D01*
X95517D01*
Y71521D01*
X95499D01*
Y71539D01*
X95481D01*
Y71557D01*
X95463D01*
Y71575D01*
X95445D01*
Y71593D01*
X95427D01*
Y71611D01*
X95409D01*
Y71629D01*
X95391D01*
Y71647D01*
X95373D01*
Y71665D01*
X95355D01*
Y71683D01*
X95373D01*
Y71701D01*
X95391D01*
Y71719D01*
X95427D01*
Y71701D01*
D02*
G37*
G36*
X92350Y71971D02*
X92368D01*
Y71953D01*
X92386D01*
Y71935D01*
X92404D01*
Y71863D01*
X92458D01*
Y71845D01*
X92476D01*
Y71827D01*
X92494D01*
Y71809D01*
X92512D01*
Y71791D01*
X92530D01*
Y71773D01*
X92548D01*
Y71755D01*
X92566D01*
Y71737D01*
X92584D01*
Y71719D01*
X92602D01*
Y71701D01*
X92637D01*
Y71683D01*
X92656D01*
Y71647D01*
X92637D01*
Y71629D01*
X92619D01*
Y71611D01*
X92602D01*
Y71575D01*
X92584D01*
Y71557D01*
X92566D01*
Y71539D01*
X92548D01*
Y71521D01*
X92530D01*
Y71503D01*
X92512D01*
Y71485D01*
X92494D01*
Y71503D01*
X92476D01*
Y71521D01*
X92458D01*
Y71557D01*
X92476D01*
Y71575D01*
X92494D01*
Y71593D01*
X92512D01*
Y71611D01*
X92530D01*
Y71629D01*
X92548D01*
Y71665D01*
X92566D01*
Y71683D01*
X92548D01*
Y71701D01*
X92512D01*
Y71719D01*
X92476D01*
Y71701D01*
X92458D01*
Y71683D01*
X92440D01*
Y71665D01*
X92422D01*
Y71647D01*
X92404D01*
Y71629D01*
X92386D01*
Y71611D01*
X92350D01*
Y71629D01*
X92332D01*
Y71683D01*
X92350D01*
Y71701D01*
X92368D01*
Y71719D01*
X92404D01*
Y71737D01*
X92422D01*
Y71755D01*
X92440D01*
Y71791D01*
X92422D01*
Y71827D01*
X92386D01*
Y71845D01*
X92368D01*
Y71863D01*
X92350D01*
Y71935D01*
X92314D01*
Y71881D01*
X92332D01*
Y71773D01*
X92314D01*
Y71755D01*
X92224D01*
Y71773D01*
X92206D01*
Y71791D01*
X92188D01*
Y71809D01*
X92170D01*
Y71827D01*
Y71845D01*
X92152D01*
Y71899D01*
X92170D01*
Y71935D01*
X92188D01*
Y71917D01*
X92206D01*
Y71899D01*
X92224D01*
Y71863D01*
X92206D01*
Y71845D01*
X92224D01*
Y71827D01*
X92242D01*
Y71809D01*
X92260D01*
Y71827D01*
X92278D01*
Y71845D01*
X92260D01*
Y71899D01*
X92242D01*
Y71971D01*
X92260D01*
Y71989D01*
X92350D01*
Y71971D01*
D02*
G37*
G36*
X95157Y71485D02*
X95175D01*
Y71467D01*
X95193D01*
Y71431D01*
X95211D01*
Y71395D01*
X95229D01*
Y71359D01*
X95247D01*
Y71341D01*
X95265D01*
Y71305D01*
X95229D01*
Y71287D01*
X95175D01*
Y71305D01*
X95139D01*
Y71323D01*
X95085D01*
Y71305D01*
X95103D01*
Y71269D01*
X95121D01*
Y71215D01*
X95067D01*
Y71233D01*
X95049D01*
Y71269D01*
X95031D01*
Y71287D01*
X95013D01*
Y71323D01*
X94995D01*
Y71359D01*
X94977D01*
Y71395D01*
X94959D01*
Y71413D01*
X94977D01*
Y71431D01*
X95067D01*
Y71413D01*
X95103D01*
Y71395D01*
X95139D01*
Y71413D01*
X95121D01*
Y71449D01*
X95103D01*
Y71467D01*
Y71503D01*
X95139D01*
Y71521D01*
X95157D01*
Y71485D01*
D02*
G37*
G36*
X95373Y71611D02*
X95391D01*
Y71593D01*
X95427D01*
Y71557D01*
X95445D01*
Y71521D01*
X95463D01*
Y71467D01*
X95445D01*
Y71431D01*
X95427D01*
Y71413D01*
X95409D01*
Y71395D01*
X95391D01*
Y71377D01*
X95283D01*
Y71395D01*
X95247D01*
Y71413D01*
X95229D01*
Y71449D01*
X95211D01*
Y71557D01*
X95229D01*
Y71593D01*
X95265D01*
Y71611D01*
X95283D01*
Y71629D01*
X95373D01*
Y71611D01*
D02*
G37*
G36*
X94167Y75156D02*
X94347D01*
Y75138D01*
X94437D01*
Y75120D01*
X94509D01*
Y75102D01*
X94563D01*
Y75084D01*
X94635D01*
Y75066D01*
X94671D01*
Y75048D01*
X94725D01*
Y75030D01*
X94761D01*
Y75012D01*
X94815D01*
Y74994D01*
X94851D01*
Y74976D01*
X94887D01*
Y74958D01*
X94923D01*
Y74940D01*
X94959D01*
Y74922D01*
X94977D01*
Y74904D01*
X95013D01*
Y74886D01*
X95049D01*
Y74868D01*
X95067D01*
Y74850D01*
X95103D01*
Y74832D01*
X95121D01*
Y74814D01*
X95157D01*
Y74796D01*
X95175D01*
Y74778D01*
X95193D01*
Y74760D01*
X95229D01*
Y74742D01*
X95247D01*
Y74724D01*
X95265D01*
Y74706D01*
X95283D01*
Y74688D01*
X95301D01*
Y74670D01*
X95319D01*
Y74652D01*
X95337D01*
Y74634D01*
X95373D01*
Y74616D01*
X95391D01*
Y74580D01*
X95409D01*
Y74562D01*
X95427D01*
Y74544D01*
X95445D01*
Y74526D01*
X95463D01*
Y74508D01*
X95481D01*
Y74490D01*
X95499D01*
Y74472D01*
X95517D01*
Y74454D01*
X95535D01*
Y74418D01*
X95553D01*
Y74400D01*
X95571D01*
Y74382D01*
X95589D01*
Y74346D01*
X95607D01*
Y74328D01*
X95625D01*
Y74292D01*
X95643D01*
Y74274D01*
X95661D01*
Y74238D01*
X95679D01*
Y74220D01*
X95697D01*
Y74184D01*
X95715D01*
Y74148D01*
X95733D01*
Y74112D01*
X95751D01*
Y74076D01*
X95769D01*
Y74040D01*
X95787D01*
Y73987D01*
X95805D01*
Y73951D01*
X95823D01*
Y73897D01*
X95841D01*
Y73861D01*
X95859D01*
Y73807D01*
X95877D01*
Y73735D01*
X95895D01*
Y73663D01*
X95913D01*
Y73573D01*
X95931D01*
Y73447D01*
X95949D01*
Y73051D01*
X95931D01*
Y72943D01*
X95913D01*
Y72853D01*
X95895D01*
Y72763D01*
X95877D01*
Y72709D01*
X95859D01*
Y72655D01*
X95841D01*
Y72601D01*
X95823D01*
Y72547D01*
X95805D01*
Y72511D01*
X95787D01*
Y72475D01*
X95769D01*
Y72421D01*
X95751D01*
Y72385D01*
X95733D01*
Y72349D01*
X95715D01*
Y72331D01*
X95697D01*
Y72295D01*
X95679D01*
Y72259D01*
X95661D01*
Y72223D01*
X95643D01*
Y72205D01*
X95625D01*
Y72169D01*
X95607D01*
Y72151D01*
X95589D01*
Y72133D01*
X95571D01*
Y72097D01*
X95553D01*
Y72079D01*
X95535D01*
Y72061D01*
X95517D01*
Y72025D01*
X95499D01*
Y72007D01*
X95481D01*
Y71989D01*
X95463D01*
Y71971D01*
X95445D01*
Y71953D01*
X95427D01*
Y71935D01*
X95409D01*
Y71917D01*
X95391D01*
Y71899D01*
X95373D01*
Y71881D01*
X95355D01*
Y71863D01*
X95337D01*
Y71845D01*
X95319D01*
Y71827D01*
X95301D01*
Y71809D01*
X95283D01*
Y71791D01*
X95265D01*
Y71773D01*
X95229D01*
Y71755D01*
X95211D01*
Y71737D01*
X95193D01*
Y71719D01*
X95175D01*
Y71701D01*
X95139D01*
Y71683D01*
X95121D01*
Y71665D01*
X95085D01*
Y71647D01*
X95067D01*
Y71629D01*
X95031D01*
Y71611D01*
X94995D01*
Y71593D01*
X94977D01*
Y71575D01*
X94941D01*
Y71557D01*
X94905D01*
Y71539D01*
X94869D01*
Y71521D01*
X94833D01*
Y71503D01*
X94797D01*
Y71485D01*
X94761D01*
Y71467D01*
X94707D01*
Y71449D01*
X94653D01*
Y71431D01*
X94599D01*
Y71413D01*
X94545D01*
Y71395D01*
X94473D01*
Y71377D01*
X94383D01*
Y71359D01*
X94293D01*
Y71341D01*
X94041D01*
Y71323D01*
X93915D01*
Y71341D01*
X93717D01*
Y71359D01*
X93609D01*
Y71377D01*
X93519D01*
Y71395D01*
X93447D01*
Y71413D01*
X93393D01*
Y71431D01*
X93339D01*
Y71449D01*
X93303D01*
Y71467D01*
X93249D01*
Y71485D01*
X93213D01*
Y71503D01*
X93177D01*
Y71521D01*
X93141D01*
Y71539D01*
X93105D01*
Y71557D01*
X93069D01*
Y71575D01*
X93033D01*
Y71593D01*
X92997D01*
Y71611D01*
X92979D01*
Y71629D01*
X92943D01*
Y71647D01*
X92925D01*
Y71665D01*
X92889D01*
Y71683D01*
X92871D01*
Y71701D01*
X92853D01*
Y71719D01*
X92817D01*
Y71737D01*
X92799D01*
Y71755D01*
X92781D01*
Y71773D01*
X92745D01*
Y71791D01*
X92727D01*
Y71809D01*
X92709D01*
Y71827D01*
X92691D01*
Y71845D01*
X92674D01*
Y71863D01*
X92656D01*
Y71881D01*
X92637D01*
Y71899D01*
X92619D01*
Y71917D01*
X92602D01*
Y71935D01*
X92584D01*
Y71953D01*
X92566D01*
Y71971D01*
X92548D01*
Y71989D01*
X92530D01*
Y72007D01*
X92512D01*
Y72025D01*
X92494D01*
Y72061D01*
X92476D01*
Y72079D01*
X92458D01*
Y72097D01*
X92440D01*
Y72133D01*
X92422D01*
Y72151D01*
X92404D01*
Y72169D01*
X92386D01*
Y72205D01*
X92368D01*
Y72241D01*
X92350D01*
Y72259D01*
X92332D01*
Y72295D01*
X92314D01*
Y72313D01*
X92296D01*
Y72349D01*
X92278D01*
Y72385D01*
X92260D01*
Y72421D01*
X92242D01*
Y72457D01*
X92224D01*
Y72511D01*
X92206D01*
Y72547D01*
X92188D01*
Y72601D01*
X92170D01*
Y72655D01*
X92152D01*
Y72709D01*
X92134D01*
Y72763D01*
X92116D01*
Y72835D01*
X92098D01*
Y72943D01*
X92080D01*
Y73051D01*
X92062D01*
Y73447D01*
X92080D01*
Y73573D01*
X92098D01*
Y73663D01*
X92116D01*
Y73735D01*
X92134D01*
Y73807D01*
X92152D01*
Y73861D01*
X92170D01*
Y73915D01*
X92188D01*
Y73968D01*
X92206D01*
Y74005D01*
X92224D01*
Y74040D01*
X92242D01*
Y74076D01*
X92260D01*
Y74112D01*
X92278D01*
Y74148D01*
X92296D01*
Y74184D01*
X92314D01*
Y74220D01*
X92332D01*
Y74238D01*
X92350D01*
Y74274D01*
X92368D01*
Y74292D01*
X92386D01*
Y74328D01*
X92404D01*
Y74346D01*
X92422D01*
Y74382D01*
X92440D01*
Y74400D01*
X92458D01*
Y74418D01*
X92476D01*
Y74454D01*
X92494D01*
Y74472D01*
X92512D01*
Y74490D01*
X92530D01*
Y74508D01*
X92548D01*
Y74526D01*
X92566D01*
Y74544D01*
X92584D01*
Y74562D01*
X92602D01*
Y74580D01*
X92619D01*
Y74598D01*
X92637D01*
Y74616D01*
X92656D01*
Y74634D01*
X92674D01*
Y74652D01*
X92691D01*
Y74670D01*
X92709D01*
Y74688D01*
X92727D01*
Y74706D01*
X92745D01*
Y74724D01*
X92763D01*
Y74742D01*
X92781D01*
Y74760D01*
X92817D01*
Y74778D01*
X92835D01*
Y74796D01*
X92853D01*
Y74814D01*
X92889D01*
Y74832D01*
X92907D01*
Y74850D01*
X92943D01*
Y74868D01*
X92961D01*
Y74886D01*
X92997D01*
Y74904D01*
X93033D01*
Y74922D01*
X93069D01*
Y74940D01*
X93087D01*
Y74958D01*
X93123D01*
Y74976D01*
X93159D01*
Y74994D01*
X93195D01*
Y75012D01*
X93249D01*
Y75030D01*
X93285D01*
Y75048D01*
X93339D01*
Y75066D01*
X93393D01*
Y75084D01*
X93447D01*
Y75102D01*
X93519D01*
Y75120D01*
X93591D01*
Y75138D01*
X93681D01*
Y75156D01*
X93807D01*
Y75174D01*
X94167D01*
Y75156D01*
D02*
G37*
G36*
X94941Y71359D02*
X94959D01*
Y71323D01*
X94977D01*
Y71287D01*
X94995D01*
Y71233D01*
X95013D01*
Y71197D01*
X95031D01*
Y71179D01*
X94995D01*
Y71161D01*
X94959D01*
Y71197D01*
X94941D01*
Y71233D01*
X94887D01*
Y71215D01*
X94851D01*
Y71179D01*
X94869D01*
Y71143D01*
X94887D01*
Y71107D01*
X94851D01*
Y71089D01*
X94833D01*
Y71107D01*
X94815D01*
Y71143D01*
X94797D01*
Y71179D01*
X94779D01*
Y71215D01*
X94761D01*
Y71233D01*
X94725D01*
Y71215D01*
X94671D01*
Y71233D01*
X94635D01*
Y71215D01*
X94617D01*
Y71197D01*
X94599D01*
Y71161D01*
X94617D01*
Y71125D01*
X94635D01*
Y71107D01*
X94707D01*
Y71161D01*
X94761D01*
Y71143D01*
X94779D01*
Y71125D01*
X94761D01*
Y71089D01*
X94743D01*
Y71071D01*
X94725D01*
Y71053D01*
X94689D01*
Y71035D01*
X94617D01*
Y71053D01*
X94581D01*
Y71071D01*
X94563D01*
Y71107D01*
X94545D01*
Y71233D01*
X94563D01*
Y71251D01*
X94581D01*
Y71269D01*
X94617D01*
Y71287D01*
X94707D01*
Y71269D01*
X94725D01*
Y71251D01*
X94743D01*
Y71287D01*
X94725D01*
Y71305D01*
X94743D01*
Y71323D01*
X94797D01*
Y71305D01*
X94815D01*
Y71269D01*
X94869D01*
Y71287D01*
X94905D01*
Y71305D01*
X94887D01*
Y71359D01*
X94869D01*
Y71377D01*
X94905D01*
Y71395D01*
X94941D01*
Y71359D01*
D02*
G37*
G36*
X92691Y71629D02*
X92709D01*
Y71611D01*
X92727D01*
Y71593D01*
X92763D01*
Y71575D01*
X92799D01*
Y71557D01*
X92817D01*
Y71539D01*
X92835D01*
Y71521D01*
X92853D01*
Y71503D01*
X92907D01*
Y71485D01*
X92925D01*
Y71467D01*
X92907D01*
Y71431D01*
X92889D01*
Y71413D01*
X92871D01*
Y71377D01*
X92853D01*
Y71305D01*
X92871D01*
Y71287D01*
X92907D01*
Y71305D01*
X92925D01*
Y71323D01*
X92943D01*
Y71359D01*
X92961D01*
Y71395D01*
X92979D01*
Y71431D01*
X93015D01*
Y71413D01*
X93069D01*
Y71395D01*
X93105D01*
Y71377D01*
X93141D01*
Y71359D01*
X93195D01*
Y71341D01*
X93231D01*
Y71323D01*
X93267D01*
Y71305D01*
X93339D01*
Y71287D01*
X93393D01*
Y71269D01*
X93429D01*
Y71251D01*
X93447D01*
Y71215D01*
X93375D01*
Y71233D01*
X93321D01*
Y71197D01*
X93375D01*
Y71179D01*
X93411D01*
Y71125D01*
X93375D01*
Y71143D01*
X93321D01*
Y71161D01*
X93303D01*
Y71143D01*
X93285D01*
Y71107D01*
X93339D01*
Y71089D01*
X93393D01*
Y71035D01*
X93321D01*
Y71053D01*
X93267D01*
Y71071D01*
X93213D01*
Y71089D01*
X93195D01*
Y71107D01*
X93213D01*
Y71161D01*
X93231D01*
Y71215D01*
X93249D01*
Y71269D01*
X93195D01*
Y71287D01*
X93177D01*
Y71269D01*
X93159D01*
Y71233D01*
X93141D01*
Y71197D01*
X93123D01*
Y71161D01*
X93105D01*
Y71143D01*
X93087D01*
Y71125D01*
X93069D01*
Y71143D01*
X93051D01*
Y71215D01*
X93069D01*
Y71251D01*
X93087D01*
Y71287D01*
X93105D01*
Y71323D01*
X93087D01*
Y71341D01*
X93051D01*
Y71359D01*
X93033D01*
Y71341D01*
X93015D01*
Y71305D01*
X92997D01*
Y71287D01*
X92979D01*
Y71251D01*
X92943D01*
Y71233D01*
X92853D01*
Y71251D01*
X92817D01*
Y71269D01*
X92799D01*
Y71287D01*
X92781D01*
Y71395D01*
X92799D01*
Y71431D01*
X92817D01*
Y71449D01*
X92835D01*
Y71467D01*
X92817D01*
Y71485D01*
X92799D01*
Y71503D01*
X92745D01*
Y71485D01*
X92727D01*
Y71449D01*
X92709D01*
Y71431D01*
X92691D01*
Y71395D01*
X92674D01*
Y71377D01*
X92637D01*
Y71395D01*
X92602D01*
Y71431D01*
X92619D01*
Y71449D01*
X92637D01*
Y71467D01*
X92656D01*
Y71503D01*
X92674D01*
Y71521D01*
X92691D01*
Y71575D01*
X92656D01*
Y71629D01*
X92674D01*
Y71647D01*
X92691D01*
Y71629D01*
D02*
G37*
G36*
X94509Y71179D02*
X94401D01*
Y71143D01*
X94509D01*
Y71107D01*
X94491D01*
Y71089D01*
X94419D01*
Y71035D01*
X94455D01*
Y71053D01*
X94545D01*
Y70999D01*
X94473D01*
Y70981D01*
X94383D01*
Y70963D01*
X94365D01*
Y70999D01*
X94347D01*
Y71089D01*
X94329D01*
Y71143D01*
X94239D01*
Y70963D01*
X94185D01*
Y71035D01*
X94167D01*
Y71107D01*
Y71125D01*
X94095D01*
Y71197D01*
X94275D01*
Y71215D01*
X94293D01*
Y71197D01*
X94329D01*
Y71215D01*
X94383D01*
Y71233D01*
X94509D01*
Y71179D01*
D02*
G37*
G36*
X93915D02*
X93987D01*
Y71125D01*
X93933D01*
Y71143D01*
X93897D01*
Y71125D01*
X93879D01*
Y71107D01*
X93897D01*
Y71089D01*
X93969D01*
Y71053D01*
X93951D01*
Y71035D01*
X93915D01*
Y71053D01*
X93879D01*
Y70999D01*
X93861D01*
Y70963D01*
X93843D01*
Y70945D01*
X93825D01*
Y70963D01*
X93807D01*
Y71143D01*
X93825D01*
Y71197D01*
X93915D01*
Y71179D01*
D02*
G37*
G36*
X93699Y71197D02*
X93735D01*
Y71179D01*
X93753D01*
Y71161D01*
X93771D01*
Y71125D01*
X93789D01*
Y71089D01*
X93771D01*
Y71017D01*
X93753D01*
Y70999D01*
X93735D01*
Y70981D01*
X93717D01*
Y70963D01*
X93627D01*
Y70981D01*
X93591D01*
Y70999D01*
X93573D01*
Y71017D01*
X93555D01*
Y71035D01*
Y71053D01*
X93537D01*
Y71107D01*
X93555D01*
Y71161D01*
X93573D01*
Y71197D01*
X93609D01*
Y71215D01*
X93699D01*
Y71197D01*
D02*
G37*
%LPC*%
G36*
X94041Y75426D02*
X93951D01*
Y75408D01*
X93933D01*
Y75372D01*
X93951D01*
Y75354D01*
X94005D01*
Y75372D01*
X94023D01*
Y75390D01*
X94041D01*
Y75426D01*
D02*
G37*
G36*
X93285Y75390D02*
X93267D01*
Y75372D01*
X93249D01*
Y75318D01*
Y75300D01*
X93213D01*
Y75282D01*
X93195D01*
Y75264D01*
X93231D01*
Y75282D01*
X93267D01*
Y75246D01*
X93249D01*
Y75228D01*
X93231D01*
Y75192D01*
X93285D01*
Y75210D01*
X93303D01*
Y75228D01*
X93321D01*
Y75318D01*
X93303D01*
Y75372D01*
X93285D01*
Y75390D01*
D02*
G37*
G36*
X92925Y75210D02*
X92889D01*
Y75192D01*
X92853D01*
Y75174D01*
X92871D01*
Y75138D01*
X92889D01*
Y75120D01*
X92907D01*
Y75102D01*
X92925D01*
Y75120D01*
X92943D01*
Y75192D01*
X92925D01*
Y75210D01*
D02*
G37*
G36*
X94743Y75390D02*
X94671D01*
Y75354D01*
X94653D01*
Y75336D01*
X94671D01*
Y75318D01*
X94743D01*
Y75390D01*
D02*
G37*
G36*
X92566Y74976D02*
X92548D01*
Y74958D01*
X92530D01*
Y74940D01*
X92512D01*
Y74922D01*
X92548D01*
Y74886D01*
X92566D01*
Y74868D01*
X92548D01*
Y74850D01*
X92530D01*
Y74832D01*
X92584D01*
Y74850D01*
X92602D01*
Y74886D01*
X92619D01*
Y74922D01*
X92602D01*
Y74940D01*
X92584D01*
Y74958D01*
X92566D01*
Y74976D01*
D02*
G37*
G36*
X95949Y74418D02*
X95931D01*
Y74400D01*
X95913D01*
Y74382D01*
X95877D01*
Y74346D01*
X95895D01*
Y74328D01*
X95967D01*
Y74346D01*
X95985D01*
Y74382D01*
X95967D01*
Y74400D01*
X95949D01*
Y74418D01*
D02*
G37*
G36*
X91936Y74076D02*
X91882D01*
Y74058D01*
Y74022D01*
X91900D01*
Y74040D01*
X91918D01*
Y74058D01*
X91936D01*
Y74076D01*
D02*
G37*
G36*
X96165Y73483D02*
X96147D01*
Y73465D01*
X96129D01*
Y73429D01*
X96147D01*
Y73411D01*
X96183D01*
Y73447D01*
Y73465D01*
X96165D01*
Y73483D01*
D02*
G37*
G36*
X96237Y73231D02*
X96201D01*
Y73213D01*
X96183D01*
Y73195D01*
X96237D01*
Y73231D01*
D02*
G37*
G36*
X91864Y73123D02*
X91738D01*
Y73105D01*
Y73051D01*
X91846D01*
Y73069D01*
X91864D01*
Y73123D01*
D02*
G37*
G36*
X96183Y73033D02*
X96129D01*
Y72997D01*
X96165D01*
Y72979D01*
X96183D01*
Y73033D01*
D02*
G37*
G36*
Y72817D02*
X96111D01*
Y72799D01*
X96093D01*
Y72745D01*
X96111D01*
Y72727D01*
X96165D01*
Y72709D01*
X96201D01*
Y72727D01*
X96219D01*
Y72745D01*
X96237D01*
Y72781D01*
X96219D01*
Y72799D01*
X96183D01*
Y72817D01*
D02*
G37*
G36*
X91846Y72763D02*
X91828D01*
Y72727D01*
Y72709D01*
X91864D01*
Y72727D01*
X91882D01*
Y72745D01*
X91846D01*
Y72763D01*
D02*
G37*
G36*
X96075Y72583D02*
X96039D01*
Y72565D01*
X96021D01*
Y72529D01*
X96075D01*
Y72583D01*
D02*
G37*
G36*
X91954Y72475D02*
X91936D01*
Y72457D01*
X91954D01*
Y72475D01*
D02*
G37*
G36*
X95679Y71863D02*
X95607D01*
Y71845D01*
Y71791D01*
X95625D01*
Y71773D01*
X95643D01*
Y71755D01*
X95715D01*
Y71773D01*
X95733D01*
Y71809D01*
X95715D01*
Y71827D01*
X95697D01*
Y71845D01*
X95679D01*
Y71863D01*
D02*
G37*
G36*
X95355Y71557D02*
X95283D01*
Y71539D01*
X95265D01*
Y71503D01*
X95283D01*
Y71467D01*
X95301D01*
Y71449D01*
X95337D01*
Y71431D01*
X95355D01*
Y71449D01*
X95391D01*
Y71467D01*
Y71485D01*
Y71503D01*
X95373D01*
Y71539D01*
X95355D01*
Y71557D01*
D02*
G37*
G36*
X94311Y74994D02*
X93807D01*
Y74904D01*
X93789D01*
Y74868D01*
X93753D01*
Y74850D01*
X93663D01*
Y74832D01*
X93555D01*
Y74814D01*
X93465D01*
Y74796D01*
X93429D01*
Y74814D01*
X93411D01*
Y74832D01*
X93393D01*
Y74850D01*
X93375D01*
Y74868D01*
X93339D01*
Y74886D01*
X93321D01*
Y74868D01*
X93285D01*
Y74850D01*
X93249D01*
Y74832D01*
X93213D01*
Y74814D01*
X93177D01*
Y74796D01*
X93141D01*
Y74778D01*
X93105D01*
Y74760D01*
X93069D01*
Y74742D01*
X93051D01*
Y74724D01*
X93015D01*
Y74706D01*
X92979D01*
Y74688D01*
X92943D01*
Y74670D01*
X92925D01*
Y74490D01*
X92907D01*
Y74472D01*
X92889D01*
Y74454D01*
X92871D01*
Y74436D01*
X92853D01*
Y74418D01*
X92835D01*
Y74400D01*
X92817D01*
Y74382D01*
X92799D01*
Y74364D01*
X92781D01*
Y74346D01*
X92763D01*
Y74328D01*
X92745D01*
Y74310D01*
X92727D01*
Y74292D01*
X92548D01*
Y74274D01*
X92530D01*
Y74238D01*
X92512D01*
Y74202D01*
X92494D01*
Y74166D01*
X92476D01*
Y74130D01*
X92458D01*
Y74094D01*
X92440D01*
Y74058D01*
X92422D01*
Y74022D01*
X92404D01*
Y73987D01*
X92386D01*
Y73951D01*
X92368D01*
Y73897D01*
X92404D01*
Y73879D01*
X92422D01*
Y73861D01*
X92440D01*
Y73825D01*
X92422D01*
Y73753D01*
X92404D01*
Y73663D01*
X92386D01*
Y73573D01*
X92368D01*
Y73501D01*
X92350D01*
Y73483D01*
X92296D01*
Y73465D01*
X92242D01*
Y73447D01*
X92224D01*
Y73105D01*
X92242D01*
Y73087D01*
X92350D01*
Y73069D01*
X92368D01*
Y73051D01*
X92386D01*
Y72961D01*
X92404D01*
Y72871D01*
X92422D01*
Y72799D01*
X92440D01*
Y72709D01*
X92458D01*
Y72691D01*
X92440D01*
Y72673D01*
X92422D01*
Y72655D01*
X92404D01*
Y72637D01*
X92386D01*
Y72619D01*
X92368D01*
Y72601D01*
X92350D01*
Y72565D01*
X92368D01*
Y72529D01*
X92386D01*
Y72493D01*
X92404D01*
Y72457D01*
X92422D01*
Y72421D01*
X92440D01*
Y72385D01*
X92458D01*
Y72349D01*
X92476D01*
Y72313D01*
X92494D01*
Y72295D01*
X92619D01*
Y72313D01*
X92691D01*
Y72295D01*
X92709D01*
Y72277D01*
X92727D01*
Y72241D01*
X92745D01*
Y72223D01*
X92763D01*
Y72205D01*
X92781D01*
Y72187D01*
X92799D01*
Y72169D01*
X92817D01*
Y72151D01*
X92835D01*
Y72133D01*
X92853D01*
Y72097D01*
X92871D01*
Y72061D01*
X92889D01*
Y71899D01*
X92907D01*
Y71845D01*
X92925D01*
Y71827D01*
X92961D01*
Y71809D01*
X92997D01*
Y71791D01*
X93015D01*
Y71773D01*
X93051D01*
Y71755D01*
X93087D01*
Y71737D01*
X93123D01*
Y71719D01*
X93159D01*
Y71701D01*
X93213D01*
Y71719D01*
X93249D01*
Y71737D01*
X93267D01*
Y71755D01*
X93321D01*
Y71737D01*
X93393D01*
Y71719D01*
X93447D01*
Y71701D01*
X93519D01*
Y71683D01*
X93573D01*
Y71665D01*
X93609D01*
Y71647D01*
Y71629D01*
X93627D01*
Y71593D01*
X93645D01*
Y71575D01*
X93663D01*
Y71539D01*
X93681D01*
Y71521D01*
X93699D01*
Y71503D01*
X94203D01*
Y71539D01*
X94221D01*
Y71593D01*
X94239D01*
Y71629D01*
X94257D01*
Y71665D01*
X94347D01*
Y71683D01*
X94437D01*
Y71701D01*
X94509D01*
Y71719D01*
X94599D01*
Y71701D01*
X94635D01*
Y71683D01*
X94653D01*
Y71665D01*
X94689D01*
Y71647D01*
X94743D01*
Y71665D01*
X94779D01*
Y71683D01*
X94815D01*
Y71701D01*
X94851D01*
Y71719D01*
X94887D01*
Y71737D01*
X94923D01*
Y71755D01*
X94959D01*
Y71773D01*
X94995D01*
Y71791D01*
X95031D01*
Y71971D01*
X95049D01*
Y71989D01*
X95067D01*
Y72007D01*
X95085D01*
Y72025D01*
X95103D01*
Y72043D01*
X95139D01*
Y72061D01*
X95157D01*
Y72079D01*
X95175D01*
Y72097D01*
X95193D01*
Y72115D01*
X95211D01*
Y72133D01*
X95229D01*
Y72151D01*
X95247D01*
Y72169D01*
X95265D01*
Y72187D01*
X95445D01*
Y72223D01*
X95463D01*
Y72259D01*
X95481D01*
Y72277D01*
X95499D01*
Y72313D01*
X95517D01*
Y72349D01*
X95535D01*
Y72385D01*
X95553D01*
Y72403D01*
X95571D01*
Y72439D01*
X95589D01*
Y72475D01*
X95607D01*
Y72511D01*
X95625D01*
Y72547D01*
X95643D01*
Y72583D01*
X95625D01*
Y72619D01*
X95607D01*
Y72637D01*
X95589D01*
Y72655D01*
X95571D01*
Y72673D01*
X95589D01*
Y72745D01*
X95607D01*
Y72835D01*
X95625D01*
Y72925D01*
X95643D01*
Y72997D01*
X95679D01*
Y73015D01*
X95715D01*
Y73033D01*
X95751D01*
Y73051D01*
X95769D01*
Y73069D01*
X95787D01*
Y73519D01*
X95733D01*
Y73537D01*
X95679D01*
Y73555D01*
X95625D01*
Y73609D01*
X95607D01*
Y73681D01*
X95589D01*
Y73753D01*
X95571D01*
Y73825D01*
X95553D01*
Y73915D01*
X95571D01*
Y73951D01*
X95589D01*
Y73987D01*
X95607D01*
Y74005D01*
X95625D01*
Y74022D01*
X95607D01*
Y74058D01*
X95589D01*
Y74076D01*
X95571D01*
Y74112D01*
X95553D01*
Y74148D01*
X95535D01*
Y74166D01*
X95517D01*
Y74202D01*
X95499D01*
Y74220D01*
X95481D01*
Y74256D01*
X95463D01*
Y74274D01*
X95445D01*
Y74310D01*
X95427D01*
Y74328D01*
X95247D01*
Y74346D01*
X95229D01*
Y74364D01*
X95211D01*
Y74382D01*
X95193D01*
Y74400D01*
X95175D01*
Y74418D01*
X95157D01*
Y74436D01*
X95139D01*
Y74454D01*
X95121D01*
Y74472D01*
X95103D01*
Y74490D01*
X95085D01*
Y74508D01*
X95067D01*
Y74526D01*
X95049D01*
Y74562D01*
X95031D01*
Y74706D01*
X94995D01*
Y74724D01*
X94977D01*
Y74742D01*
X94941D01*
Y74760D01*
X94905D01*
Y74778D01*
X94869D01*
Y74796D01*
X94833D01*
Y74814D01*
X94797D01*
Y74832D01*
X94725D01*
Y74814D01*
X94707D01*
Y74796D01*
X94689D01*
Y74778D01*
X94617D01*
Y74796D01*
X94545D01*
Y74814D01*
X94491D01*
Y74832D01*
X94419D01*
Y74850D01*
X94347D01*
Y74868D01*
X94329D01*
Y74922D01*
X94311D01*
Y74994D01*
D02*
G37*
%LPD*%
G36*
X93267Y74490D02*
X93321D01*
Y74472D01*
X93357D01*
Y74436D01*
X93375D01*
Y74328D01*
X93357D01*
Y74310D01*
X93339D01*
Y74292D01*
X93303D01*
Y74274D01*
X93231D01*
Y74292D01*
X93213D01*
Y74310D01*
X93195D01*
Y74328D01*
X93177D01*
Y74364D01*
X93159D01*
Y74418D01*
X93177D01*
Y74454D01*
X93195D01*
Y74472D01*
X93213D01*
Y74490D01*
X93249D01*
Y74508D01*
X93267D01*
Y74490D01*
D02*
G37*
G36*
X94923Y74382D02*
X94959D01*
Y74364D01*
X94977D01*
Y74328D01*
X94995D01*
Y74256D01*
X94977D01*
Y74220D01*
X94959D01*
Y74202D01*
X94941D01*
Y74184D01*
X94833D01*
Y74202D01*
X94815D01*
Y74220D01*
X94797D01*
Y74238D01*
X94779D01*
Y74256D01*
Y74346D01*
X94797D01*
Y74364D01*
X94815D01*
Y74382D01*
X94851D01*
Y74400D01*
X94923D01*
Y74382D01*
D02*
G37*
G36*
X94077Y74652D02*
X94095D01*
Y74616D01*
X94113D01*
Y74580D01*
X94131D01*
Y74544D01*
X94149D01*
Y74508D01*
X94167D01*
Y74472D01*
X94185D01*
Y74436D01*
X94203D01*
Y74310D01*
X94185D01*
Y74220D01*
X94167D01*
Y74112D01*
X94203D01*
Y74130D01*
X94257D01*
Y74148D01*
X94311D01*
Y74166D01*
X94365D01*
Y74184D01*
X94419D01*
Y74202D01*
X94473D01*
Y74220D01*
X94527D01*
Y74238D01*
X94581D01*
Y74256D01*
X94635D01*
Y74274D01*
X94707D01*
Y74256D01*
X94725D01*
Y74238D01*
X94743D01*
Y74220D01*
X94779D01*
Y74202D01*
X94797D01*
Y74184D01*
X94815D01*
Y74166D01*
X94833D01*
Y74148D01*
X94851D01*
Y74130D01*
X94869D01*
Y74112D01*
X94905D01*
Y73951D01*
X94887D01*
Y73771D01*
X94869D01*
Y73609D01*
X94851D01*
Y73537D01*
X94887D01*
Y73555D01*
X94923D01*
Y73573D01*
X94959D01*
Y73591D01*
X94995D01*
Y73609D01*
X95031D01*
Y73627D01*
X95049D01*
Y73645D01*
X95085D01*
Y73663D01*
X95121D01*
Y73681D01*
X95211D01*
Y73663D01*
X95409D01*
Y73645D01*
X95445D01*
Y73609D01*
X95427D01*
Y73591D01*
X95409D01*
Y73573D01*
X95391D01*
Y73555D01*
X95373D01*
Y73537D01*
X95355D01*
Y73519D01*
X95337D01*
Y73501D01*
X95319D01*
Y73483D01*
X95301D01*
Y73465D01*
X95283D01*
Y73447D01*
X95265D01*
Y73429D01*
X95247D01*
Y73411D01*
X95193D01*
Y73393D01*
X95031D01*
Y73375D01*
X94887D01*
Y73357D01*
Y73321D01*
X94905D01*
Y73303D01*
X94923D01*
Y73285D01*
X94941D01*
Y73267D01*
X94959D01*
Y73231D01*
X94977D01*
Y73213D01*
X94995D01*
Y73195D01*
X95013D01*
Y73177D01*
X95031D01*
Y73141D01*
X95049D01*
Y73123D01*
X95067D01*
Y73105D01*
X95085D01*
Y73087D01*
X95103D01*
Y73051D01*
X95121D01*
Y73033D01*
X95139D01*
Y73015D01*
X95157D01*
Y72997D01*
X95175D01*
Y72979D01*
X95193D01*
Y72943D01*
X95211D01*
Y72907D01*
X95193D01*
Y72853D01*
X95175D01*
Y72799D01*
X95157D01*
Y72745D01*
X95139D01*
Y72691D01*
X95121D01*
Y72637D01*
X95103D01*
Y72619D01*
X95067D01*
Y72601D01*
X94833D01*
Y72583D01*
X94599D01*
Y72565D01*
X94563D01*
Y72547D01*
X94581D01*
Y72529D01*
X94599D01*
Y72511D01*
X94617D01*
Y72493D01*
X94635D01*
Y72475D01*
X94653D01*
Y72457D01*
X94671D01*
Y72439D01*
X94689D01*
Y72421D01*
X94707D01*
Y72403D01*
X94725D01*
Y72385D01*
X94743D01*
Y72367D01*
X94761D01*
Y72349D01*
X94779D01*
Y72313D01*
X94797D01*
Y72241D01*
X94815D01*
Y72169D01*
X94833D01*
Y72097D01*
X94851D01*
Y72043D01*
X94833D01*
Y72025D01*
X94815D01*
Y72043D01*
X94779D01*
Y72061D01*
X94743D01*
Y72079D01*
X94707D01*
Y72097D01*
X94689D01*
Y72115D01*
X94653D01*
Y72133D01*
X94617D01*
Y72151D01*
X94581D01*
Y72169D01*
X94563D01*
Y72187D01*
X94545D01*
Y72223D01*
X94527D01*
Y72259D01*
X94509D01*
Y72295D01*
X94491D01*
Y72331D01*
X94473D01*
Y72385D01*
X94455D01*
Y72421D01*
X94437D01*
Y72457D01*
X94401D01*
Y72421D01*
X94383D01*
Y72403D01*
X94365D01*
Y72367D01*
X94347D01*
Y72349D01*
X94329D01*
Y72313D01*
X94311D01*
Y72295D01*
X94293D01*
Y72259D01*
X94275D01*
Y72241D01*
X94257D01*
Y72205D01*
X94239D01*
Y72169D01*
X94221D01*
Y72151D01*
X94203D01*
Y72115D01*
X94185D01*
Y72097D01*
X94167D01*
Y72061D01*
X94149D01*
Y72043D01*
X94131D01*
Y72007D01*
X93771D01*
Y72043D01*
X93753D01*
Y72079D01*
X93735D01*
Y72115D01*
X93717D01*
Y72151D01*
X93699D01*
Y72187D01*
X93681D01*
Y72241D01*
X93663D01*
Y72277D01*
X93645D01*
Y72295D01*
X93627D01*
Y72331D01*
X93609D01*
Y72367D01*
X93591D01*
Y72403D01*
X93573D01*
Y72457D01*
X93555D01*
Y72475D01*
X93537D01*
Y72493D01*
X93519D01*
Y72475D01*
X93501D01*
Y72439D01*
X93483D01*
Y72403D01*
X93465D01*
Y72349D01*
X93447D01*
Y72313D01*
X93429D01*
Y72277D01*
X93411D01*
Y72241D01*
X93393D01*
Y72205D01*
X93357D01*
Y72187D01*
X93339D01*
Y72169D01*
X93303D01*
Y72151D01*
X93285D01*
Y72133D01*
X93249D01*
Y72115D01*
X93231D01*
Y72097D01*
X93195D01*
Y72079D01*
X93177D01*
Y72061D01*
X93141D01*
Y72043D01*
X93123D01*
Y72061D01*
X93105D01*
Y72133D01*
X93123D01*
Y72241D01*
X93141D01*
Y72331D01*
X93159D01*
Y72385D01*
X93177D01*
Y72403D01*
X93195D01*
Y72421D01*
X93213D01*
Y72439D01*
X93231D01*
Y72457D01*
X93249D01*
Y72475D01*
X93267D01*
Y72493D01*
X93285D01*
Y72511D01*
X93321D01*
Y72529D01*
X93339D01*
Y72547D01*
X93357D01*
Y72565D01*
X93375D01*
Y72583D01*
X93393D01*
Y72619D01*
X93339D01*
Y72637D01*
X93267D01*
Y72655D01*
X93213D01*
Y72673D01*
X93141D01*
Y72691D01*
X93069D01*
Y72709D01*
X92997D01*
Y72727D01*
X92925D01*
Y72745D01*
X92871D01*
Y72763D01*
X92853D01*
Y72799D01*
X92835D01*
Y72907D01*
X92817D01*
Y73015D01*
X92799D01*
Y73123D01*
X92817D01*
Y73141D01*
X92835D01*
Y73159D01*
X92853D01*
Y73177D01*
X92871D01*
Y73195D01*
X92889D01*
Y73213D01*
X92907D01*
Y73231D01*
X92925D01*
Y73249D01*
X92943D01*
Y73267D01*
X92961D01*
Y73285D01*
X92979D01*
Y73303D01*
X92997D01*
Y73321D01*
X93015D01*
Y73339D01*
X93033D01*
Y73357D01*
X93051D01*
Y73375D01*
X93069D01*
Y73393D01*
X93087D01*
Y73411D01*
X93105D01*
Y73429D01*
X93123D01*
Y73447D01*
X93141D01*
Y73483D01*
X93015D01*
Y73501D01*
X92907D01*
Y73519D01*
X92835D01*
Y73537D01*
X92817D01*
Y73555D01*
X92781D01*
Y73573D01*
X92763D01*
Y73591D01*
X92745D01*
Y73609D01*
X92727D01*
Y73627D01*
X92709D01*
Y73645D01*
X92691D01*
Y73663D01*
X92674D01*
Y73681D01*
X92637D01*
Y73699D01*
X92619D01*
Y73771D01*
X92763D01*
Y73789D01*
X92961D01*
Y73771D01*
X92979D01*
Y73753D01*
X93015D01*
Y73735D01*
X93051D01*
Y73717D01*
X93087D01*
Y73699D01*
X93105D01*
Y73681D01*
X93141D01*
Y73663D01*
X93177D01*
Y73645D01*
X93231D01*
Y73717D01*
X93213D01*
Y74184D01*
X93231D01*
Y74202D01*
X93267D01*
Y74220D01*
X93285D01*
Y74238D01*
X93321D01*
Y74256D01*
X93339D01*
Y74274D01*
X93375D01*
Y74292D01*
X93393D01*
Y74310D01*
X93429D01*
Y74328D01*
X93447D01*
Y74346D01*
X93483D01*
Y74364D01*
X93537D01*
Y74346D01*
X93573D01*
Y74328D01*
X93609D01*
Y74310D01*
X93645D01*
Y74292D01*
X93663D01*
Y74274D01*
X93699D01*
Y74256D01*
X93735D01*
Y74238D01*
X93771D01*
Y74220D01*
X93807D01*
Y74202D01*
X93843D01*
Y74184D01*
X93879D01*
Y74166D01*
X93897D01*
Y74148D01*
X93933D01*
Y74130D01*
X93969D01*
Y74238D01*
X93951D01*
Y74346D01*
X93933D01*
Y74400D01*
X93951D01*
Y74454D01*
X93969D01*
Y74490D01*
X93987D01*
Y74544D01*
X94005D01*
Y74580D01*
X94023D01*
Y74634D01*
X94041D01*
Y74670D01*
X94077D01*
Y74652D01*
D02*
G37*
G36*
X92727Y72961D02*
X92745D01*
Y72943D01*
X92763D01*
Y72889D01*
X92781D01*
Y72853D01*
X92763D01*
Y72817D01*
X92745D01*
Y72781D01*
X92709D01*
Y72763D01*
X92619D01*
Y72781D01*
X92602D01*
Y72799D01*
X92584D01*
Y72817D01*
X92566D01*
Y72853D01*
X92548D01*
Y72889D01*
X92566D01*
Y72943D01*
X92584D01*
Y72961D01*
X92602D01*
Y72979D01*
X92727D01*
Y72961D01*
D02*
G37*
G36*
X95355Y72817D02*
X95373D01*
Y72799D01*
X95391D01*
Y72781D01*
X95409D01*
Y72673D01*
X95391D01*
Y72655D01*
X95373D01*
Y72637D01*
X95355D01*
Y72619D01*
X95265D01*
Y72637D01*
X95229D01*
Y72655D01*
X95211D01*
Y72691D01*
X95193D01*
Y72781D01*
X95211D01*
Y72799D01*
X95229D01*
Y72817D01*
X95247D01*
Y72835D01*
X95355D01*
Y72817D01*
D02*
G37*
G36*
X93987Y71953D02*
X94023D01*
Y71935D01*
X94041D01*
Y71899D01*
X94059D01*
Y71827D01*
X94041D01*
Y71791D01*
X94023D01*
Y71773D01*
X94005D01*
Y71755D01*
X93897D01*
Y71773D01*
X93879D01*
Y71791D01*
X93861D01*
Y71809D01*
X93843D01*
Y71881D01*
Y71899D01*
X93861D01*
Y71935D01*
X93879D01*
Y71953D01*
X93915D01*
Y71971D01*
X93987D01*
Y71953D01*
D02*
G37*
%LPC*%
G36*
X94095Y74580D02*
X94041D01*
Y74544D01*
X94023D01*
Y74490D01*
X94005D01*
Y74454D01*
X93987D01*
Y74400D01*
X93969D01*
Y74346D01*
X93987D01*
Y74238D01*
X94005D01*
Y74130D01*
X94023D01*
Y74022D01*
X94041D01*
Y73933D01*
X94059D01*
Y73897D01*
X94077D01*
Y73915D01*
X94095D01*
Y74022D01*
X94113D01*
Y74112D01*
X94131D01*
Y74130D01*
Y74148D01*
Y74202D01*
X94149D01*
Y74292D01*
X94167D01*
Y74436D01*
X94149D01*
Y74472D01*
X94131D01*
Y74508D01*
X94113D01*
Y74544D01*
X94095D01*
Y74580D01*
D02*
G37*
G36*
X93555Y74310D02*
X93537D01*
Y74238D01*
X93555D01*
Y74184D01*
X93573D01*
Y74130D01*
X93591D01*
Y74076D01*
X93609D01*
Y74022D01*
X93627D01*
Y73968D01*
X93645D01*
Y73897D01*
X93663D01*
Y73843D01*
X93681D01*
Y73789D01*
X93699D01*
Y73753D01*
X93681D01*
Y73771D01*
X93645D01*
Y73789D01*
X93627D01*
Y73807D01*
X93609D01*
Y73825D01*
X93591D01*
Y73843D01*
X93573D01*
Y73861D01*
X93555D01*
Y73879D01*
X93537D01*
Y73897D01*
X93519D01*
Y73915D01*
X93501D01*
Y73933D01*
X93483D01*
Y73951D01*
X93447D01*
Y73968D01*
X93429D01*
Y73987D01*
X93411D01*
Y74005D01*
X93393D01*
Y74022D01*
X93375D01*
Y74040D01*
X93357D01*
Y74058D01*
X93339D01*
Y74076D01*
X93321D01*
Y74094D01*
X93303D01*
Y74112D01*
X93285D01*
Y74130D01*
X93267D01*
Y74112D01*
X93249D01*
Y73753D01*
X93267D01*
Y73591D01*
X93303D01*
Y73573D01*
X93321D01*
Y73555D01*
X93357D01*
Y73537D01*
X93393D01*
Y73519D01*
X93429D01*
Y73501D01*
X93447D01*
Y73483D01*
X93483D01*
Y73465D01*
X93501D01*
Y73447D01*
X93483D01*
Y73429D01*
X93375D01*
Y73447D01*
X93285D01*
Y73465D01*
X93213D01*
Y73447D01*
X93195D01*
Y73429D01*
X93159D01*
Y73411D01*
X93141D01*
Y73393D01*
X93123D01*
Y73375D01*
X93105D01*
Y73357D01*
X93087D01*
Y73339D01*
X93069D01*
Y73321D01*
X93051D01*
Y73303D01*
X93033D01*
Y73285D01*
X93015D01*
Y73267D01*
X92997D01*
Y73249D01*
X92979D01*
Y73231D01*
X92961D01*
Y73213D01*
X92943D01*
Y73195D01*
X92925D01*
Y73177D01*
X92907D01*
Y73159D01*
X92889D01*
Y73141D01*
X92871D01*
Y73123D01*
X93015D01*
Y73105D01*
X93429D01*
Y73069D01*
X93393D01*
Y73051D01*
X93357D01*
Y73033D01*
X93321D01*
Y73015D01*
X93303D01*
Y72997D01*
X93267D01*
Y72979D01*
X93231D01*
Y72961D01*
X93195D01*
Y72943D01*
X93159D01*
Y72925D01*
X93123D01*
Y72907D01*
X93087D01*
Y72889D01*
X93051D01*
Y72871D01*
X93015D01*
Y72853D01*
X92979D01*
Y72835D01*
X92961D01*
Y72817D01*
X92925D01*
Y72799D01*
X92907D01*
Y72781D01*
X92943D01*
Y72763D01*
X93033D01*
Y72745D01*
X93087D01*
Y72727D01*
X93159D01*
Y72709D01*
X93231D01*
Y72691D01*
X93303D01*
Y72673D01*
X93357D01*
Y72655D01*
X93465D01*
Y72673D01*
X93483D01*
Y72691D01*
X93501D01*
Y72709D01*
X93519D01*
Y72727D01*
X93537D01*
Y72745D01*
X93555D01*
Y72763D01*
X93573D01*
Y72781D01*
X93591D01*
Y72799D01*
X93609D01*
Y72817D01*
X93663D01*
Y72781D01*
X93645D01*
Y72745D01*
X93627D01*
Y72709D01*
X93609D01*
Y72673D01*
X93591D01*
Y72637D01*
X93573D01*
Y72583D01*
X93555D01*
Y72529D01*
X93573D01*
Y72493D01*
X93591D01*
Y72457D01*
X93609D01*
Y72421D01*
X93627D01*
Y72385D01*
X93645D01*
Y72349D01*
X93663D01*
Y72313D01*
X93681D01*
Y72277D01*
X93699D01*
Y72241D01*
X93717D01*
Y72205D01*
X93735D01*
Y72169D01*
X93753D01*
Y72133D01*
X93771D01*
Y72097D01*
X93807D01*
Y72133D01*
X93825D01*
Y72187D01*
X93843D01*
Y72259D01*
X93861D01*
Y72331D01*
X93879D01*
Y72403D01*
X93897D01*
Y72475D01*
X93915D01*
Y72529D01*
X93933D01*
Y72601D01*
X93951D01*
Y72673D01*
X93987D01*
Y72619D01*
X94005D01*
Y72529D01*
X94023D01*
Y72439D01*
X94041D01*
Y72349D01*
X94059D01*
Y72277D01*
X94077D01*
Y72187D01*
X94095D01*
Y72097D01*
X94131D01*
Y72115D01*
X94149D01*
Y72151D01*
X94167D01*
Y72169D01*
X94185D01*
Y72187D01*
X94203D01*
Y72223D01*
X94221D01*
Y72241D01*
X94239D01*
Y72277D01*
X94257D01*
Y72295D01*
X94275D01*
Y72331D01*
X94293D01*
Y72349D01*
X94311D01*
Y72385D01*
X94329D01*
Y72421D01*
X94347D01*
Y72439D01*
X94365D01*
Y72475D01*
X94383D01*
Y72493D01*
X94401D01*
Y72529D01*
X94383D01*
Y72565D01*
X94365D01*
Y72619D01*
X94347D01*
Y72655D01*
X94329D01*
Y72691D01*
X94311D01*
Y72727D01*
X94293D01*
Y72763D01*
X94275D01*
Y72781D01*
X94293D01*
Y72799D01*
X94311D01*
Y72781D01*
X94329D01*
Y72763D01*
X94347D01*
Y72745D01*
X94365D01*
Y72727D01*
X94383D01*
Y72709D01*
X94419D01*
Y72691D01*
X94437D01*
Y72673D01*
X94455D01*
Y72655D01*
X94473D01*
Y72637D01*
X94491D01*
Y72619D01*
X94761D01*
Y72637D01*
X94977D01*
Y72655D01*
X95031D01*
Y72673D01*
X95013D01*
Y72691D01*
X94977D01*
Y72709D01*
X94959D01*
Y72727D01*
X94923D01*
Y72745D01*
X94905D01*
Y72763D01*
X94869D01*
Y72781D01*
X94851D01*
Y72799D01*
X94815D01*
Y72817D01*
X94797D01*
Y72835D01*
X94761D01*
Y72853D01*
X94743D01*
Y72871D01*
X94707D01*
Y72889D01*
X94689D01*
Y72907D01*
X94653D01*
Y72925D01*
X94635D01*
Y72943D01*
X94599D01*
Y72961D01*
X94581D01*
Y72979D01*
X94545D01*
Y73015D01*
X94671D01*
Y72997D01*
X94833D01*
Y72979D01*
X94995D01*
Y72961D01*
X95139D01*
Y72979D01*
X95121D01*
Y72997D01*
X95103D01*
Y73015D01*
X95085D01*
Y73033D01*
X95067D01*
Y73069D01*
X95049D01*
Y73087D01*
X95031D01*
Y73105D01*
X95013D01*
Y73123D01*
X94995D01*
Y73141D01*
X94977D01*
Y73177D01*
X94959D01*
Y73195D01*
X94941D01*
Y73213D01*
X94923D01*
Y73231D01*
X94905D01*
Y73267D01*
X94887D01*
Y73285D01*
X94869D01*
Y73303D01*
X94851D01*
Y73321D01*
X94833D01*
Y73339D01*
X94815D01*
Y73357D01*
X94725D01*
Y73339D01*
X94563D01*
Y73375D01*
X94581D01*
Y73393D01*
X94617D01*
Y73411D01*
X94653D01*
Y73429D01*
X94689D01*
Y73447D01*
X94725D01*
Y73465D01*
X94743D01*
Y73483D01*
X94779D01*
Y73501D01*
X94815D01*
Y73609D01*
X94833D01*
Y73771D01*
X94851D01*
Y73951D01*
X94869D01*
Y74022D01*
X94833D01*
Y74005D01*
X94797D01*
Y73987D01*
X94779D01*
Y73968D01*
X94761D01*
Y73951D01*
X94743D01*
Y73933D01*
X94725D01*
Y73915D01*
X94689D01*
Y73897D01*
X94671D01*
Y73879D01*
X94653D01*
Y73861D01*
X94635D01*
Y73843D01*
X94617D01*
Y73825D01*
X94599D01*
Y73807D01*
X94563D01*
Y73789D01*
X94545D01*
Y73771D01*
X94527D01*
Y73753D01*
X94509D01*
Y73735D01*
X94491D01*
Y73717D01*
X94455D01*
Y73699D01*
X94437D01*
Y73681D01*
X94401D01*
Y73699D01*
X94419D01*
Y73735D01*
X94437D01*
Y73789D01*
X94455D01*
Y73825D01*
X94473D01*
Y73861D01*
X94491D01*
Y73897D01*
X94509D01*
Y73933D01*
X94527D01*
Y73968D01*
X94545D01*
Y74005D01*
X94563D01*
Y74040D01*
X94581D01*
Y74076D01*
X94599D01*
Y74112D01*
X94617D01*
Y74148D01*
X94635D01*
Y74184D01*
X94653D01*
Y74220D01*
X94617D01*
Y74202D01*
X94563D01*
Y74184D01*
X94491D01*
Y74166D01*
X94455D01*
Y74148D01*
X94401D01*
Y74130D01*
X94347D01*
Y74112D01*
X94293D01*
Y74094D01*
X94239D01*
Y74076D01*
X94185D01*
Y74058D01*
X94149D01*
Y74022D01*
X94131D01*
Y73915D01*
X94113D01*
Y73825D01*
X94095D01*
Y73753D01*
X94077D01*
Y73735D01*
X94059D01*
Y73753D01*
X94041D01*
Y73861D01*
X94023D01*
Y73951D01*
X94005D01*
Y74040D01*
X93987D01*
Y74076D01*
X93951D01*
Y74094D01*
X93915D01*
Y74112D01*
X93879D01*
Y74130D01*
X93843D01*
Y74148D01*
X93807D01*
Y74166D01*
X93789D01*
Y74184D01*
X93753D01*
Y74202D01*
X93717D01*
Y74220D01*
X93681D01*
Y74238D01*
X93645D01*
Y74256D01*
X93627D01*
Y74274D01*
X93591D01*
Y74292D01*
X93555D01*
Y74310D01*
D02*
G37*
G36*
X92925Y73753D02*
X92853D01*
Y73735D01*
X92709D01*
Y73717D01*
X92691D01*
Y73699D01*
X92709D01*
Y73681D01*
X92727D01*
Y73663D01*
X92745D01*
Y73645D01*
X92763D01*
Y73627D01*
X92781D01*
Y73609D01*
X92817D01*
Y73591D01*
X92835D01*
Y73573D01*
X92871D01*
Y73555D01*
X92961D01*
Y73537D01*
X93069D01*
Y73519D01*
X93213D01*
Y73501D01*
X93321D01*
Y73483D01*
X93357D01*
Y73501D01*
X93339D01*
Y73519D01*
X93303D01*
Y73537D01*
X93267D01*
Y73555D01*
X93249D01*
Y73573D01*
X93213D01*
Y73591D01*
X93177D01*
Y73609D01*
X93141D01*
Y73627D01*
X93123D01*
Y73645D01*
X93087D01*
Y73663D01*
X93051D01*
Y73681D01*
X93015D01*
Y73699D01*
X92997D01*
Y73717D01*
X92961D01*
Y73735D01*
X92925D01*
Y73753D01*
D02*
G37*
G36*
X95337Y73627D02*
X95121D01*
Y73609D01*
X95085D01*
Y73591D01*
X95049D01*
Y73573D01*
X95013D01*
Y73555D01*
X94977D01*
Y73537D01*
X94941D01*
Y73519D01*
X94905D01*
Y73501D01*
X94869D01*
Y73483D01*
X94833D01*
Y73465D01*
X94797D01*
Y73447D01*
X94761D01*
Y73429D01*
X94743D01*
Y73411D01*
X94707D01*
Y73393D01*
X94815D01*
Y73411D01*
X94959D01*
Y73429D01*
X95121D01*
Y73447D01*
X95211D01*
Y73465D01*
X95229D01*
Y73483D01*
X95265D01*
Y73501D01*
X95283D01*
Y73519D01*
X95301D01*
Y73537D01*
X95319D01*
Y73555D01*
X95337D01*
Y73573D01*
X95355D01*
Y73591D01*
X95373D01*
Y73609D01*
X95337D01*
Y73627D01*
D02*
G37*
G36*
X93573Y72691D02*
X93537D01*
Y72673D01*
X93519D01*
Y72655D01*
X93501D01*
Y72637D01*
X93483D01*
Y72619D01*
X93465D01*
Y72601D01*
X93447D01*
Y72583D01*
X93429D01*
Y72565D01*
X93411D01*
Y72547D01*
X93393D01*
Y72529D01*
X93375D01*
Y72511D01*
X93357D01*
Y72493D01*
X93339D01*
Y72475D01*
X93321D01*
Y72457D01*
X93303D01*
Y72439D01*
X93285D01*
Y72421D01*
X93267D01*
Y72403D01*
X93231D01*
Y72385D01*
X93213D01*
Y72367D01*
X93195D01*
Y72331D01*
X93177D01*
Y72241D01*
X93159D01*
Y72133D01*
X93141D01*
Y72115D01*
X93177D01*
Y72133D01*
X93213D01*
Y72151D01*
X93231D01*
Y72169D01*
X93267D01*
Y72187D01*
X93285D01*
Y72205D01*
X93321D01*
Y72223D01*
X93339D01*
Y72241D01*
X93357D01*
Y72259D01*
X93375D01*
Y72295D01*
X93393D01*
Y72331D01*
X93411D01*
Y72367D01*
X93429D01*
Y72403D01*
X93447D01*
Y72439D01*
X93465D01*
Y72475D01*
X93483D01*
Y72511D01*
X93501D01*
Y72565D01*
X93519D01*
Y72601D01*
X93537D01*
Y72637D01*
X93555D01*
Y72673D01*
X93573D01*
Y72691D01*
D02*
G37*
G36*
X94383Y72673D02*
X94365D01*
Y72655D01*
X94383D01*
Y72619D01*
X94401D01*
Y72583D01*
X94419D01*
Y72547D01*
X94437D01*
Y72511D01*
X94455D01*
Y72457D01*
X94473D01*
Y72421D01*
X94491D01*
Y72385D01*
X94509D01*
Y72349D01*
X94527D01*
Y72313D01*
X94545D01*
Y72277D01*
X94563D01*
Y72241D01*
X94581D01*
Y72205D01*
X94599D01*
Y72187D01*
X94635D01*
Y72169D01*
X94671D01*
Y72151D01*
X94707D01*
Y72133D01*
X94725D01*
Y72115D01*
X94761D01*
Y72097D01*
X94797D01*
Y72115D01*
Y72133D01*
Y72169D01*
X94779D01*
Y72241D01*
X94761D01*
Y72313D01*
X94743D01*
Y72331D01*
X94725D01*
Y72349D01*
X94707D01*
Y72367D01*
X94689D01*
Y72385D01*
X94671D01*
Y72403D01*
X94653D01*
Y72421D01*
X94635D01*
Y72439D01*
X94617D01*
Y72457D01*
X94599D01*
Y72475D01*
X94581D01*
Y72493D01*
X94563D01*
Y72511D01*
X94545D01*
Y72529D01*
X94527D01*
Y72547D01*
X94509D01*
Y72565D01*
X94491D01*
Y72583D01*
X94473D01*
Y72601D01*
X94455D01*
Y72619D01*
X94437D01*
Y72637D01*
X94419D01*
Y72655D01*
X94383D01*
Y72673D01*
D02*
G37*
%LPD*%
G36*
X94293Y73645D02*
X94239D01*
Y73663D01*
X94293D01*
Y73645D01*
D02*
G37*
G36*
X94149D02*
X94113D01*
Y73663D01*
X94149D01*
Y73645D01*
D02*
G37*
G36*
X93861D02*
X93825D01*
Y73663D01*
X93861D01*
Y73645D01*
D02*
G37*
G36*
X93825Y73627D02*
X93807D01*
Y73645D01*
X93825D01*
Y73627D01*
D02*
G37*
G36*
X94329Y73609D02*
X94311D01*
Y73627D01*
X94329D01*
Y73609D01*
D02*
G37*
G36*
X93807D02*
X93789D01*
Y73627D01*
X93807D01*
Y73609D01*
D02*
G37*
G36*
X94077D02*
Y73591D01*
X94059D01*
Y73627D01*
X94077D01*
Y73609D01*
D02*
G37*
G36*
X93771Y73591D02*
X93753D01*
Y73609D01*
X93771D01*
Y73591D01*
D02*
G37*
G36*
X94473Y73393D02*
X94455D01*
Y73357D01*
X94437D01*
Y73321D01*
X94401D01*
Y73375D01*
X94419D01*
Y73393D01*
X94437D01*
Y73447D01*
X94455D01*
Y73465D01*
X94473D01*
Y73393D01*
D02*
G37*
G36*
X94311Y73285D02*
X94257D01*
Y73303D01*
X94311D01*
Y73285D01*
D02*
G37*
G36*
X94149D02*
X94113D01*
Y73303D01*
X94149D01*
Y73285D01*
D02*
G37*
G36*
X93843D02*
X93807D01*
Y73303D01*
X93843D01*
Y73285D01*
D02*
G37*
G36*
X93645Y73447D02*
X93663D01*
Y73411D01*
X93681D01*
Y73393D01*
Y73375D01*
X93699D01*
Y73339D01*
X93717D01*
Y73303D01*
X93735D01*
Y73285D01*
X93681D01*
Y73321D01*
X93663D01*
Y73357D01*
X93645D01*
Y73411D01*
X93627D01*
Y73465D01*
X93645D01*
Y73447D01*
D02*
G37*
G36*
X94095Y73267D02*
X94077D01*
Y73249D01*
X94041D01*
Y73285D01*
X94095D01*
Y73267D01*
D02*
G37*
G36*
X94347Y73213D02*
X94329D01*
Y73231D01*
X94347D01*
Y73213D01*
D02*
G37*
G36*
X94293D02*
X93933D01*
Y73231D01*
X94293D01*
Y73213D01*
D02*
G37*
G36*
X93789Y73231D02*
X93807D01*
Y73213D01*
X93771D01*
Y73249D01*
X93789D01*
Y73231D01*
D02*
G37*
G36*
X94221Y73177D02*
X94167D01*
Y73195D01*
X94221D01*
Y73177D01*
D02*
G37*
G36*
X94005D02*
X93987D01*
Y73195D01*
X94005D01*
Y73177D01*
D02*
G37*
G36*
X94275Y73141D02*
X94257D01*
Y73123D01*
X94221D01*
Y73087D01*
X94275D01*
Y73069D01*
X94329D01*
Y73051D01*
X94383D01*
Y72871D01*
X94365D01*
Y72889D01*
X94347D01*
Y73015D01*
X94311D01*
Y73033D01*
X94257D01*
Y73051D01*
X94203D01*
Y73069D01*
X94149D01*
Y73087D01*
X93951D01*
Y73069D01*
X93897D01*
Y73051D01*
X93843D01*
Y73033D01*
X93789D01*
Y73015D01*
X93771D01*
Y72889D01*
X93735D01*
Y73051D01*
X93753D01*
Y73069D01*
X93807D01*
Y73087D01*
X93861D01*
Y73123D01*
X93843D01*
Y73141D01*
X93825D01*
Y73177D01*
X93861D01*
Y73159D01*
X93897D01*
Y73141D01*
X93951D01*
Y73123D01*
X94167D01*
Y73141D01*
X94203D01*
Y73159D01*
X94257D01*
Y73177D01*
X94275D01*
Y73141D01*
D02*
G37*
%LPC*%
G36*
X93681Y71161D02*
X93645D01*
Y71143D01*
X93627D01*
Y71125D01*
X93609D01*
Y71035D01*
X93645D01*
Y71017D01*
X93681D01*
Y71035D01*
X93699D01*
Y71053D01*
X93717D01*
Y71143D01*
X93681D01*
Y71161D01*
D02*
G37*
%LPD*%
G36*
X92979Y70513D02*
X93015D01*
Y70495D01*
X93033D01*
Y70477D01*
X93051D01*
Y70441D01*
X93069D01*
Y70423D01*
X93105D01*
Y70405D01*
X93141D01*
Y70387D01*
X93105D01*
Y70189D01*
X93069D01*
Y70207D01*
X93051D01*
Y70225D01*
X93069D01*
Y70369D01*
X93051D01*
Y70387D01*
X93033D01*
Y70369D01*
X93015D01*
Y70189D01*
X92979D01*
Y70243D01*
X92943D01*
Y70225D01*
X92871D01*
Y70243D01*
X92853D01*
Y70261D01*
X92835D01*
Y70315D01*
X92871D01*
Y70333D01*
X92889D01*
Y70369D01*
X92871D01*
Y70387D01*
X92817D01*
Y70369D01*
X92799D01*
Y70225D01*
Y70207D01*
Y70189D01*
X92763D01*
Y70243D01*
X92727D01*
Y70225D01*
X92691D01*
Y70207D01*
X92619D01*
Y70225D01*
X92602D01*
Y70243D01*
X92584D01*
Y70279D01*
X92602D01*
Y70297D01*
X92619D01*
Y70315D01*
X92584D01*
Y70333D01*
X92566D01*
Y70369D01*
X92530D01*
Y70189D01*
X92494D01*
Y70387D01*
X92458D01*
Y70405D01*
X92440D01*
Y70423D01*
X92494D01*
Y70513D01*
X92548D01*
Y70531D01*
X92566D01*
Y70513D01*
X92637D01*
Y70495D01*
X92674D01*
Y70477D01*
X92709D01*
Y70459D01*
X92745D01*
Y70441D01*
X92691D01*
Y70459D01*
X92656D01*
Y70477D01*
X92530D01*
Y70423D01*
X92548D01*
Y70405D01*
X92566D01*
Y70423D01*
X92602D01*
Y70441D01*
X92656D01*
Y70423D01*
X92691D01*
Y70369D01*
X92674D01*
Y70351D01*
X92619D01*
Y70333D01*
X92656D01*
Y70315D01*
X92691D01*
Y70297D01*
X92656D01*
Y70279D01*
X92637D01*
Y70243D01*
X92691D01*
Y70261D01*
X92727D01*
Y70279D01*
X92745D01*
Y70297D01*
X92763D01*
Y70369D01*
X92745D01*
Y70387D01*
X92727D01*
Y70405D01*
X92871D01*
Y70423D01*
X93051D01*
Y70441D01*
X93033D01*
Y70459D01*
X93015D01*
Y70477D01*
X92997D01*
Y70495D01*
X92961D01*
Y70513D01*
X92925D01*
Y70531D01*
X92979D01*
Y70513D01*
D02*
G37*
G36*
X94077Y70315D02*
X94095D01*
Y70297D01*
X94077D01*
Y70279D01*
X94059D01*
Y70297D01*
X94041D01*
Y70333D01*
X94077D01*
Y70315D01*
D02*
G37*
G36*
X94653Y70513D02*
X94689D01*
Y70495D01*
X94707D01*
Y70459D01*
X94725D01*
Y70423D01*
X95517D01*
Y70405D01*
X95553D01*
Y70387D01*
X95517D01*
Y70369D01*
X95499D01*
Y70243D01*
X95517D01*
Y70225D01*
X95499D01*
Y70189D01*
X95463D01*
Y70297D01*
X95427D01*
Y70315D01*
X95373D01*
Y70297D01*
X95337D01*
Y70261D01*
X95355D01*
Y70225D01*
X95373D01*
Y70207D01*
X95391D01*
Y70189D01*
X95373D01*
Y70207D01*
X95355D01*
Y70225D01*
X95337D01*
Y70243D01*
X95319D01*
Y70279D01*
X95301D01*
Y70333D01*
X95373D01*
Y70351D01*
X95463D01*
Y70387D01*
X95265D01*
Y70189D01*
X95229D01*
Y70369D01*
X95211D01*
Y70387D01*
X95193D01*
Y70207D01*
X95175D01*
Y70189D01*
X95157D01*
Y70207D01*
X95139D01*
Y70243D01*
X95103D01*
Y70225D01*
X95031D01*
Y70243D01*
X95013D01*
Y70261D01*
X94995D01*
Y70315D01*
X95031D01*
Y70333D01*
X95049D01*
Y70369D01*
X95031D01*
Y70387D01*
X94959D01*
Y70315D01*
X94851D01*
Y70297D01*
X94833D01*
Y70261D01*
X94851D01*
Y70243D01*
X94887D01*
Y70279D01*
X94959D01*
Y70225D01*
X94923D01*
Y70207D01*
X94941D01*
Y70189D01*
X94959D01*
Y70171D01*
X94941D01*
Y70189D01*
X94905D01*
Y70207D01*
X94869D01*
Y70225D01*
X94815D01*
Y70261D01*
X94797D01*
Y70333D01*
X94851D01*
Y70351D01*
X94905D01*
Y70387D01*
X94779D01*
Y70207D01*
X94761D01*
Y70189D01*
X94743D01*
Y70207D01*
X94725D01*
Y70387D01*
X94689D01*
Y70189D01*
X94653D01*
Y70225D01*
X94617D01*
Y70207D01*
X94509D01*
Y70225D01*
X94491D01*
Y70297D01*
X94473D01*
Y70315D01*
X94455D01*
Y70333D01*
X94581D01*
Y70297D01*
X94545D01*
Y70279D01*
X94509D01*
Y70243D01*
X94617D01*
Y70261D01*
X94635D01*
Y70279D01*
X94653D01*
Y70387D01*
X94419D01*
Y70189D01*
X94383D01*
Y70261D01*
X94347D01*
Y70225D01*
X94329D01*
Y70207D01*
X94311D01*
Y70243D01*
X94329D01*
Y70261D01*
X94293D01*
Y70279D01*
X94257D01*
Y70387D01*
X94221D01*
Y70423D01*
X94707D01*
Y70459D01*
X94689D01*
Y70477D01*
X94671D01*
Y70495D01*
X94617D01*
Y70513D01*
X94599D01*
Y70531D01*
X94653D01*
Y70513D01*
D02*
G37*
G36*
X94311Y70189D02*
X94293D01*
Y70207D01*
X94311D01*
Y70189D01*
D02*
G37*
G36*
X94095D02*
X94041D01*
Y70207D01*
Y70225D01*
X94095D01*
Y70189D01*
D02*
G37*
G36*
X94023Y70351D02*
X93987D01*
Y70171D01*
X93951D01*
Y70261D01*
X93861D01*
Y70225D01*
X93807D01*
Y70261D01*
X93789D01*
Y70297D01*
X93933D01*
Y70315D01*
X93951D01*
Y70351D01*
X93843D01*
Y70369D01*
X93735D01*
Y70387D01*
X94023D01*
Y70351D01*
D02*
G37*
G36*
X93429Y70495D02*
X93483D01*
Y70477D01*
X93501D01*
Y70459D01*
X93519D01*
Y70423D01*
X93537D01*
Y70405D01*
X93555D01*
Y70387D01*
X93609D01*
Y70369D01*
X93591D01*
Y70351D01*
X93573D01*
Y70297D01*
Y70279D01*
Y70171D01*
X93591D01*
Y70153D01*
X93555D01*
Y70171D01*
X93537D01*
Y70351D01*
X93501D01*
Y70153D01*
X93483D01*
Y70171D01*
X93465D01*
Y70225D01*
X93447D01*
Y70207D01*
X93339D01*
Y70225D01*
X93321D01*
Y70261D01*
X93303D01*
Y70279D01*
X93321D01*
Y70297D01*
X93357D01*
Y70351D01*
X93285D01*
Y70369D01*
X93267D01*
Y70387D01*
X93519D01*
Y70423D01*
X93501D01*
Y70459D01*
X93465D01*
Y70477D01*
X93429D01*
Y70495D01*
X93411D01*
Y70513D01*
X93429D01*
Y70495D01*
D02*
G37*
G36*
X95481Y70153D02*
X95517D01*
Y70135D01*
X95535D01*
Y70117D01*
X95553D01*
Y70099D01*
X95517D01*
Y70117D01*
X95499D01*
Y70135D01*
X95445D01*
Y70153D01*
X95427D01*
Y70171D01*
X95481D01*
Y70153D01*
D02*
G37*
%LPC*%
G36*
X92656Y70405D02*
X92602D01*
Y70387D01*
X92619D01*
Y70369D01*
X92656D01*
Y70387D01*
Y70405D01*
D02*
G37*
G36*
X92979Y70387D02*
X92925D01*
Y70315D01*
X92907D01*
Y70297D01*
X92871D01*
Y70279D01*
X92889D01*
Y70261D01*
X92943D01*
Y70279D01*
X92979D01*
Y70297D01*
Y70315D01*
Y70387D01*
D02*
G37*
G36*
X94365D02*
X94293D01*
Y70279D01*
X94347D01*
Y70297D01*
X94365D01*
Y70315D01*
X94383D01*
Y70369D01*
X94365D01*
Y70387D01*
D02*
G37*
G36*
X95139D02*
X95085D01*
Y70369D01*
Y70351D01*
Y70315D01*
X95067D01*
Y70297D01*
X95031D01*
Y70279D01*
X95049D01*
Y70261D01*
X95103D01*
Y70279D01*
X95139D01*
Y70387D01*
D02*
G37*
G36*
X93465Y70351D02*
X93393D01*
Y70279D01*
X93357D01*
Y70261D01*
X93339D01*
Y70243D01*
X93429D01*
Y70261D01*
X93465D01*
Y70315D01*
Y70333D01*
Y70351D01*
D02*
G37*
%LPD*%
D10*
X94470Y84430D02*
G03*
X94470Y84430I-125J0D01*
G01*
X94970Y91516D02*
G03*
X94970Y91516I-125J0D01*
G01*
D11*
X90767Y83013D02*
G03*
X90767Y83013I-25J0D01*
G01*
D12*
X87541Y79400D02*
G03*
X87541Y79400I-76J0D01*
G01*
X93358Y90602D02*
G03*
X93358Y90602I-76J0D01*
G01*
X81781Y76187D02*
X84436D01*
X86322Y78073D02*
Y80728D01*
X81781Y82614D02*
X84436D01*
X79896Y78073D02*
Y80728D01*
X87598Y87389D02*
X90253D01*
X92138Y89274D02*
Y91929D01*
X87598Y93815D02*
X90253D01*
X85712Y89274D02*
Y91929D01*
D13*
X94795Y83085D02*
X105255D01*
X94795D02*
Y85775D01*
X105255D01*
Y83085D02*
Y85775D01*
X105410Y74969D02*
Y90589D01*
Y74969D02*
X107950D01*
Y90589D01*
X105410D02*
X107950D01*
X95515Y92851D02*
X100725D01*
Y90181D02*
Y92851D01*
X95515Y90181D02*
X100725D01*
X95515D02*
Y92851D01*
D14*
X90767Y82613D02*
X95567D01*
Y77813D02*
Y82613D01*
X90767Y77813D02*
X95567Y77813D01*
X90767Y77813D02*
Y82613D01*
D15*
X98908Y71813D02*
X98844Y71877D01*
X98717D01*
X98654Y71813D01*
Y71559D01*
X98717Y71496D01*
X98844D01*
X98908Y71559D01*
X99288Y71496D02*
X99034D01*
X99288Y71750D01*
Y71813D01*
X99225Y71877D01*
X99098D01*
X99034Y71813D01*
X99669D02*
X99606Y71877D01*
X99479D01*
X99415Y71813D01*
Y71750D01*
X99479Y71686D01*
X99606D01*
X99669Y71623D01*
Y71559D01*
X99606Y71496D01*
X99479D01*
X99415Y71559D01*
X100177Y71877D02*
X100431D01*
X100304D01*
Y71496D01*
X100558Y71877D02*
X100685D01*
X100621D01*
Y71496D01*
X100558D01*
X100685D01*
X100875D02*
Y71750D01*
X101002Y71877D01*
X101129Y71750D01*
Y71496D01*
Y71686D01*
X100875D01*
X101891Y71877D02*
X101637D01*
Y71496D01*
X101891D01*
X101637Y71686D02*
X101764D01*
X102018Y71877D02*
Y71496D01*
X102208D01*
X102272Y71559D01*
Y71623D01*
X102208Y71686D01*
X102018D01*
X102208D01*
X102272Y71750D01*
Y71813D01*
X102208Y71877D01*
X102018D01*
X102780D02*
Y71623D01*
X102907Y71496D01*
X103034Y71623D01*
Y71877D01*
X103415Y71496D02*
X103161D01*
X103415Y71750D01*
Y71813D01*
X103351Y71877D01*
X103224D01*
X103161Y71813D01*
X103542Y71496D02*
Y71559D01*
X103605D01*
Y71496D01*
X103542D01*
X103859Y71813D02*
X103922Y71877D01*
X104049D01*
X104113Y71813D01*
Y71559D01*
X104049Y71496D01*
X103922D01*
X103859Y71559D01*
Y71813D01*
X98654Y70917D02*
Y71298D01*
X98908Y70917D01*
Y71298D01*
X99288Y70980D02*
Y71234D01*
X99225Y71298D01*
X99098D01*
X99034Y71234D01*
Y70980D01*
X99098Y70917D01*
X99225D01*
X99161Y71044D02*
X99288Y70917D01*
X99225D02*
X99288Y70980D01*
X99415Y70917D02*
Y71298D01*
X99542Y71171D01*
X99669Y71298D01*
Y70917D01*
X99860Y70853D02*
X99923Y70917D01*
Y70980D01*
X99860D01*
Y70917D01*
X99923D01*
X99860Y70853D01*
X99796Y70790D01*
X100558Y71298D02*
X100685D01*
X100621D01*
Y70917D01*
X100558D01*
X100685D01*
X100875Y71298D02*
X101002D01*
X100939D01*
Y70917D01*
X100875D01*
X101002D01*
X101193Y71298D02*
X101447D01*
X101320D01*
Y70917D01*
X101955D02*
Y71298D01*
X102145D01*
X102208Y71234D01*
Y71107D01*
X102145Y71044D01*
X101955D01*
X102081D02*
X102208Y70917D01*
X102399D02*
X102526D01*
X102589Y70980D01*
Y71107D01*
X102526Y71171D01*
X102399D01*
X102335Y71107D01*
Y70980D01*
X102399Y70917D01*
X102716Y70790D02*
Y71171D01*
X102907D01*
X102970Y71107D01*
Y70980D01*
X102907Y70917D01*
X102716D01*
X103161Y71171D02*
X103288D01*
X103351Y71107D01*
Y70917D01*
X103161D01*
X103097Y70980D01*
X103161Y71044D01*
X103351D01*
X103478Y71171D02*
Y70917D01*
Y71044D01*
X103542Y71107D01*
X103605Y71171D01*
X103668D01*
X84049Y72715D02*
Y72969D01*
X84176Y73096D01*
X84303Y72969D01*
Y72715D01*
Y72905D01*
X84049D01*
X84429Y73096D02*
X84683D01*
Y73032D01*
X84429Y72778D01*
Y72715D01*
X84683D01*
X84810Y73096D02*
Y72715D01*
Y72905D01*
X85064D01*
Y73096D01*
Y72715D01*
X85191D02*
Y72969D01*
X85318Y73096D01*
X85445Y72969D01*
Y72715D01*
Y72905D01*
X85191D01*
X85572Y72715D02*
Y73096D01*
X85763D01*
X85826Y73032D01*
Y72905D01*
X85763Y72842D01*
X85572D01*
X85699D02*
X85826Y72715D01*
X86334Y73096D02*
Y73032D01*
X86461Y72905D01*
X86588Y73032D01*
Y73096D01*
X86461Y72905D02*
Y72715D01*
X86715D02*
Y72969D01*
X86842Y73096D01*
X86969Y72969D01*
Y72715D01*
Y72905D01*
X86715D01*
X87350Y73032D02*
X87286Y73096D01*
X87159D01*
X87096Y73032D01*
Y72969D01*
X87159Y72905D01*
X87286D01*
X87350Y72842D01*
Y72778D01*
X87286Y72715D01*
X87159D01*
X87096Y72778D01*
X87477Y73096D02*
Y72715D01*
Y72905D01*
X87730D01*
Y73096D01*
Y72715D01*
X88111Y73096D02*
X87857D01*
Y72715D01*
X88111D01*
X87857Y72905D02*
X87984D01*
X88492Y73096D02*
X88238D01*
Y72715D01*
X88492D01*
X88238Y72905D02*
X88365D01*
X88619Y72715D02*
Y73096D01*
X88873Y72715D01*
Y73096D01*
X84049Y72517D02*
X84176D01*
X84112D01*
Y72136D01*
X84049D01*
X84176D01*
X84620Y72453D02*
X84556Y72517D01*
X84429D01*
X84366Y72453D01*
Y72390D01*
X84429Y72326D01*
X84556D01*
X84620Y72263D01*
Y72199D01*
X84556Y72136D01*
X84429D01*
X84366Y72199D01*
X84747Y72517D02*
Y72136D01*
X84937D01*
X85001Y72199D01*
Y72453D01*
X84937Y72517D01*
X84747D01*
X85128D02*
Y72136D01*
X85382D01*
X85953Y72072D02*
X86016Y72136D01*
Y72199D01*
X85953D01*
Y72136D01*
X86016D01*
X85953Y72072D01*
X85890Y72009D01*
X86651Y72517D02*
X86778D01*
X86715D01*
Y72136D01*
X86651D01*
X86778D01*
X86969Y72517D02*
X87096D01*
X87032D01*
Y72136D01*
X86969D01*
X87096D01*
X87286Y72517D02*
X87540D01*
X87413D01*
Y72136D01*
X88048D02*
Y72517D01*
X88238D01*
X88302Y72453D01*
Y72326D01*
X88238Y72263D01*
X88048D01*
X88175D02*
X88302Y72136D01*
X88619Y72517D02*
X88492D01*
X88429Y72453D01*
Y72199D01*
X88492Y72136D01*
X88619D01*
X88683Y72199D01*
Y72453D01*
X88619Y72517D01*
X88810Y72136D02*
Y72517D01*
X89000D01*
X89063Y72453D01*
Y72326D01*
X89000Y72263D01*
X88810D01*
X89190Y72136D02*
Y72390D01*
X89317Y72517D01*
X89444Y72390D01*
Y72136D01*
Y72326D01*
X89190D01*
X89571Y72136D02*
Y72517D01*
X89762D01*
X89825Y72453D01*
Y72326D01*
X89762Y72263D01*
X89571D01*
X89698D02*
X89825Y72136D01*
X84252Y71026D02*
X84188Y71089D01*
X84061D01*
X83998Y71026D01*
Y70772D01*
X84061Y70708D01*
X84188D01*
X84252Y70772D01*
Y70899D01*
X84125D01*
X84379Y71089D02*
X84506D01*
X84442D01*
Y70708D01*
X84379D01*
X84506D01*
X84696D02*
Y71089D01*
X84887D01*
X84950Y71026D01*
Y70899D01*
X84887Y70835D01*
X84696D01*
X84823D02*
X84950Y70708D01*
X85077Y71089D02*
Y70708D01*
X85267D01*
X85331Y70772D01*
Y71026D01*
X85267Y71089D01*
X85077D01*
X85458Y70708D02*
Y70962D01*
X85585Y71089D01*
X85712Y70962D01*
Y70708D01*
Y70899D01*
X85458D01*
X85839Y71089D02*
Y70708D01*
Y70899D01*
X86093D01*
Y71089D01*
Y70708D01*
X86220D02*
Y71089D01*
X86410D01*
X86474Y71026D01*
Y70899D01*
X86410Y70835D01*
X86220D01*
X86347D02*
X86474Y70708D01*
X86600Y71089D02*
X86727D01*
X86664D01*
Y70708D01*
X86600D01*
X86727D01*
X87553Y71089D02*
X87426D01*
X87489D01*
Y70772D01*
X87426Y70708D01*
X87362D01*
X87299Y70772D01*
X87680Y70708D02*
Y70962D01*
X87807Y71089D01*
X87934Y70962D01*
Y70708D01*
Y70899D01*
X87680D01*
X88061Y71089D02*
Y70708D01*
Y70835D01*
X88314Y71089D01*
X88124Y70899D01*
X88314Y70708D01*
X88441Y71089D02*
Y70708D01*
Y70899D01*
X88695D01*
Y71089D01*
Y70708D01*
X88822D02*
Y70962D01*
X88949Y71089D01*
X89076Y70962D01*
Y70708D01*
Y70899D01*
X88822D01*
X89203Y70708D02*
Y71089D01*
X89394D01*
X89457Y71026D01*
Y70899D01*
X89394Y70835D01*
X89203D01*
X89330D02*
X89457Y70708D01*
X84252Y70129D02*
X83998D01*
X84252Y70383D01*
Y70447D01*
X84188Y70510D01*
X84061D01*
X83998Y70447D01*
X84379D02*
X84442Y70510D01*
X84569D01*
X84633Y70447D01*
Y70193D01*
X84569Y70129D01*
X84442D01*
X84379Y70193D01*
Y70447D01*
X85013Y70129D02*
X84760D01*
X85013Y70383D01*
Y70447D01*
X84950Y70510D01*
X84823D01*
X84760Y70447D01*
X85140D02*
X85204Y70510D01*
X85331D01*
X85394Y70447D01*
Y70383D01*
X85331Y70320D01*
X85267D01*
X85331D01*
X85394Y70256D01*
Y70193D01*
X85331Y70129D01*
X85204D01*
X85140Y70193D01*
X85775Y70510D02*
X85521D01*
Y70129D01*
X85775D01*
X85521Y70320D02*
X85648D01*
X86156Y70510D02*
X85902D01*
Y70129D01*
X86156D01*
X85902Y70320D02*
X86029D01*
X86283Y70510D02*
Y70129D01*
X86474D01*
X86537Y70193D01*
Y70256D01*
X86474Y70320D01*
X86283D01*
X86474D01*
X86537Y70383D01*
Y70447D01*
X86474Y70510D01*
X86283D01*
X86664Y70129D02*
X86791D01*
X86727D01*
Y70510D01*
X86664Y70447D01*
X87235Y70129D02*
X86981D01*
X87235Y70383D01*
Y70447D01*
X87172Y70510D01*
X87045D01*
X86981Y70447D01*
X87362D02*
X87426Y70510D01*
X87553D01*
X87616Y70447D01*
Y70193D01*
X87553Y70129D01*
X87426D01*
X87362Y70193D01*
Y70447D01*
X87743Y70129D02*
X87870D01*
X87807D01*
Y70510D01*
X87743Y70447D01*
D16*
X104305Y82110D02*
X104424D01*
X104483Y82169D01*
X104424Y82228D01*
X104305D01*
Y82406D02*
X104483D01*
Y82317D01*
X104453Y82288D01*
X104394D01*
X104364Y82317D01*
Y82406D01*
X104305Y82584D02*
X104483D01*
Y82495D01*
X104453Y82465D01*
X104394D01*
X104364Y82495D01*
Y82584D01*
X95447Y93688D02*
Y93569D01*
X95506Y93510D01*
X95566Y93569D01*
Y93688D01*
X95802D02*
Y93510D01*
X95891D01*
X95921Y93540D01*
Y93569D01*
Y93599D01*
X95891Y93629D01*
X95802D01*
X95980Y93510D02*
X96039D01*
X96010D01*
Y93629D01*
X95980D01*
X96158D02*
X96217D01*
X96247Y93599D01*
Y93510D01*
X96158D01*
X96128Y93540D01*
X96158Y93569D01*
X96247D01*
X96306Y93510D02*
X96395D01*
X96425Y93540D01*
X96395Y93569D01*
X96336D01*
X96306Y93599D01*
X96336Y93629D01*
X96425D01*
X86720Y83579D02*
Y83756D01*
X86809D01*
X86838Y83727D01*
Y83668D01*
X86809Y83638D01*
X86720D01*
X86779D02*
X86838Y83579D01*
X86898Y83608D02*
X86927Y83579D01*
X86987D01*
X87016Y83608D01*
Y83727D01*
X86987Y83756D01*
X86927D01*
X86898Y83727D01*
Y83697D01*
X86927Y83668D01*
X87016D01*
X100283Y88938D02*
Y89116D01*
X100372D01*
X100402Y89086D01*
Y89027D01*
X100372Y88997D01*
X100283D01*
X100343D02*
X100402Y88938D01*
X100461Y89086D02*
X100491Y89116D01*
X100550D01*
X100580Y89086D01*
Y89057D01*
X100550Y89027D01*
X100580Y88997D01*
Y88968D01*
X100550Y88938D01*
X100491D01*
X100461Y88968D01*
Y88997D01*
X100491Y89027D01*
X100461Y89057D01*
Y89086D01*
X100491Y89027D02*
X100550D01*
X98556Y89040D02*
Y89217D01*
X98645D01*
X98675Y89188D01*
Y89129D01*
X98645Y89099D01*
X98556D01*
X98616D02*
X98675Y89040D01*
X98734Y89217D02*
X98853D01*
Y89188D01*
X98734Y89069D01*
Y89040D01*
X96194Y89065D02*
Y89243D01*
X96283D01*
X96313Y89213D01*
Y89154D01*
X96283Y89124D01*
X96194D01*
X96253D02*
X96313Y89065D01*
X96490Y89243D02*
X96431Y89213D01*
X96372Y89154D01*
Y89095D01*
X96401Y89065D01*
X96461D01*
X96490Y89095D01*
Y89124D01*
X96461Y89154D01*
X96372D01*
X92994Y87719D02*
Y87897D01*
X93083D01*
X93112Y87867D01*
Y87808D01*
X93083Y87778D01*
X92994D01*
X93053D02*
X93112Y87719D01*
X93290Y87897D02*
X93171D01*
Y87808D01*
X93231Y87837D01*
X93260D01*
X93290Y87808D01*
Y87749D01*
X93260Y87719D01*
X93201D01*
X93171Y87749D01*
X94416Y86144D02*
Y86322D01*
X94505D01*
X94535Y86292D01*
Y86233D01*
X94505Y86203D01*
X94416D01*
X94475D02*
X94535Y86144D01*
X94683D02*
Y86322D01*
X94594Y86233D01*
X94712D01*
X98429Y86220D02*
Y86398D01*
X98518D01*
X98548Y86368D01*
Y86309D01*
X98518Y86280D01*
X98429D01*
X98489D02*
X98548Y86220D01*
X98726D02*
X98607D01*
X98726Y86339D01*
Y86368D01*
X98696Y86398D01*
X98637D01*
X98607Y86368D01*
X101050Y86195D02*
Y86373D01*
X101139D01*
X101168Y86343D01*
Y86284D01*
X101139Y86254D01*
X101050D01*
X101109D02*
X101168Y86195D01*
X101227D02*
X101287D01*
X101257D01*
Y86373D01*
X101227Y86343D01*
X79519Y84264D02*
X79460D01*
X79430Y84235D01*
Y84116D01*
X79460Y84087D01*
X79519D01*
X79549Y84116D01*
Y84235D01*
X79519Y84264D01*
X79608D02*
Y84116D01*
X79638Y84087D01*
X79697D01*
X79726Y84116D01*
Y84264D01*
X79786D02*
X79904D01*
X79845D01*
Y84087D01*
X79963D02*
Y84264D01*
X80052D01*
X80082Y84235D01*
Y84176D01*
X80052Y84146D01*
X79963D01*
X80141Y84264D02*
Y84116D01*
X80171Y84087D01*
X80230D01*
X80260Y84116D01*
Y84264D01*
X80319D02*
X80437D01*
X80378D01*
Y84087D01*
X83318Y94678D02*
X83378D01*
X83348D01*
Y94501D01*
X83318D01*
X83378D01*
X83467D02*
Y94678D01*
X83585Y94501D01*
Y94678D01*
X83644Y94501D02*
Y94678D01*
X83733D01*
X83763Y94649D01*
Y94590D01*
X83733Y94560D01*
X83644D01*
X83822Y94678D02*
Y94530D01*
X83852Y94501D01*
X83911D01*
X83941Y94530D01*
Y94678D01*
X84000D02*
X84118D01*
X84059D01*
Y94501D01*
X103137Y90255D02*
X103107Y90284D01*
X103048D01*
X103018Y90255D01*
Y90136D01*
X103048Y90107D01*
X103107D01*
X103137Y90136D01*
Y90195D01*
X103078D01*
X103196Y90107D02*
Y90284D01*
X103315Y90107D01*
Y90284D01*
X103374D02*
Y90107D01*
X103463D01*
X103492Y90136D01*
Y90255D01*
X103463Y90284D01*
X103374D01*
X103729D02*
Y90107D01*
Y90195D01*
X103848D01*
Y90284D01*
Y90107D01*
X104026Y90284D02*
X103907D01*
Y90107D01*
X104026D01*
X103907Y90195D02*
X103966D01*
X104085Y90107D02*
Y90225D01*
X104144Y90284D01*
X104203Y90225D01*
Y90107D01*
Y90195D01*
X104085D01*
X104263Y90284D02*
Y90107D01*
X104352D01*
X104381Y90136D01*
Y90255D01*
X104352Y90284D01*
X104263D01*
X104559D02*
X104440D01*
Y90107D01*
X104559D01*
X104440Y90195D02*
X104500D01*
X104618Y90107D02*
Y90284D01*
X104707D01*
X104737Y90255D01*
Y90195D01*
X104707Y90166D01*
X104618D01*
X104677D02*
X104737Y90107D01*
X104796D02*
X104855D01*
X104826D01*
Y90284D01*
X104796Y90255D01*
X87473Y82939D02*
X87444Y82969D01*
X87385D01*
X87355Y82939D01*
Y82821D01*
X87385Y82791D01*
X87444D01*
X87473Y82821D01*
X87651Y82969D02*
X87592Y82939D01*
X87533Y82880D01*
Y82821D01*
X87562Y82791D01*
X87621D01*
X87651Y82821D01*
Y82851D01*
X87621Y82880D01*
X87533D01*
X86965Y84641D02*
X86936Y84671D01*
X86877D01*
X86847Y84641D01*
Y84523D01*
X86877Y84493D01*
X86936D01*
X86965Y84523D01*
X87143Y84671D02*
X87025D01*
Y84582D01*
X87084Y84612D01*
X87114D01*
X87143Y84582D01*
Y84523D01*
X87114Y84493D01*
X87054D01*
X87025Y84523D01*
X93265Y85454D02*
X93235Y85484D01*
X93176D01*
X93146Y85454D01*
Y85336D01*
X93176Y85306D01*
X93235D01*
X93265Y85336D01*
X93413Y85306D02*
Y85484D01*
X93324Y85395D01*
X93442D01*
X92299Y85606D02*
X92270Y85636D01*
X92211D01*
X92181Y85606D01*
Y85488D01*
X92211Y85458D01*
X92270D01*
X92299Y85488D01*
X92359Y85606D02*
X92388Y85636D01*
X92448D01*
X92477Y85606D01*
Y85577D01*
X92448Y85547D01*
X92418D01*
X92448D01*
X92477Y85518D01*
Y85488D01*
X92448Y85458D01*
X92388D01*
X92359Y85488D01*
X91461Y85632D02*
X91432Y85661D01*
X91372D01*
X91343Y85632D01*
Y85513D01*
X91372Y85484D01*
X91432D01*
X91461Y85513D01*
X91639Y85484D02*
X91520D01*
X91639Y85602D01*
Y85632D01*
X91609Y85661D01*
X91550D01*
X91520Y85632D01*
X90653Y85606D02*
X90623Y85636D01*
X90564D01*
X90534Y85606D01*
Y85488D01*
X90564Y85458D01*
X90623D01*
X90653Y85488D01*
X90712Y85458D02*
X90771D01*
X90741D01*
Y85636D01*
X90712Y85606D01*
X96224Y81739D02*
X96342D01*
X96283D01*
Y81562D01*
X96402Y81739D02*
X96461D01*
X96431D01*
Y81562D01*
X96402D01*
X96461D01*
X96550D02*
Y81680D01*
X96609Y81739D01*
X96668Y81680D01*
Y81562D01*
Y81650D01*
X96550D01*
X96727Y81532D02*
X96846D01*
X96905Y81739D02*
X96964D01*
X96935D01*
Y81562D01*
X96905D01*
X96964D01*
X97172Y81710D02*
X97142Y81739D01*
X97083D01*
X97053Y81710D01*
Y81591D01*
X97083Y81562D01*
X97142D01*
X97172Y81591D01*
D17*
X96643Y86195D02*
Y86322D01*
X96706D01*
X96727Y86301D01*
Y86258D01*
X96706Y86237D01*
X96643D01*
X96685D02*
X96727Y86195D01*
X96770Y86301D02*
X96791Y86322D01*
X96833D01*
X96854Y86301D01*
Y86280D01*
X96833Y86258D01*
X96812D01*
X96833D01*
X96854Y86237D01*
Y86216D01*
X96833Y86195D01*
X96791D01*
X96770Y86216D01*
M02*
