G04*
G04 #@! TF.GenerationSoftware,Altium Limited,Altium Designer,26.5.1 (12)*
G04*
G04 Layer_Physical_Order=2*
G04 Layer_Color=16711680*
G04 Board_Origin=0|0*
%FSLAX43Y43*%
%MOMM*%
G71*
G04*
G04 #@! TF.SameCoordinates,EEE4B215-AFAD-44E5-B78E-6D07C90FEE48*
G04*
G04*
G04 #@! TF.FilePolarity,Positive*
G04*
G01*
G75*
%ADD35R,1.570X1.570*%
%ADD36C,1.570*%
%ADD37C,2.108*%
%ADD42C,1.600*%
G04:AMPARAMS|DCode=43|XSize=1.6mm|YSize=1.6mm|CornerRadius=0.4mm|HoleSize=0mm|Usage=FLASHONLY|Rotation=0.000|XOffset=0mm|YOffset=0mm|HoleType=Round|Shape=RoundedRectangle|*
%AMROUNDEDRECTD43*
21,1,1.600,0.800,0,0,0.0*
21,1,0.800,1.600,0,0,0.0*
1,1,0.800,0.400,-0.400*
1,1,0.800,-0.400,-0.400*
1,1,0.800,-0.400,0.400*
1,1,0.800,0.400,0.400*
%
%ADD43ROUNDEDRECTD43*%
%ADD44C,1.550*%
%ADD45R,1.550X1.550*%
%ADD46C,3.000*%
%ADD47C,0.610*%
%ADD48C,0.508*%
G36*
X108610Y95045D02*
X108605Y89513D01*
X108351Y89463D01*
X108348Y89471D01*
X108190Y89628D01*
X108001Y89706D01*
Y89154D01*
Y88602D01*
X108190Y88680D01*
X108348Y88837D01*
X108350Y88844D01*
X108604Y88793D01*
X108602Y86831D01*
X108348Y86781D01*
X108297Y86905D01*
X108140Y87062D01*
X107950Y87141D01*
Y86589D01*
Y86036D01*
X108140Y86115D01*
X108297Y86272D01*
X108348Y86395D01*
X108602Y86345D01*
X108600Y84348D01*
X108346Y84298D01*
X108297Y84416D01*
X108140Y84573D01*
X107950Y84652D01*
Y84099D01*
Y83547D01*
X108140Y83626D01*
X108297Y83783D01*
X108345Y83900D01*
X108599Y83850D01*
X108597Y81987D01*
X108367Y81931D01*
X108343Y81931D01*
X108190Y82084D01*
X108001Y82162D01*
Y81610D01*
Y81058D01*
X108190Y81136D01*
X108343Y81289D01*
X108369Y81288D01*
X108597Y81232D01*
X108595Y79255D01*
X108341Y79204D01*
X108297Y79311D01*
X108140Y79468D01*
X107950Y79546D01*
Y78994D01*
Y78442D01*
X108140Y78520D01*
X108297Y78677D01*
X108340Y78783D01*
X108594Y78732D01*
X108592Y76742D01*
X108387Y76681D01*
X108338Y76678D01*
X108190Y76826D01*
X108001Y76905D01*
Y76352D01*
Y75800D01*
X108190Y75879D01*
X108338Y76026D01*
X108389Y76023D01*
X108592Y75961D01*
X108585Y69369D01*
X108405Y69190D01*
X78765Y69240D01*
X78791Y95199D01*
X86483Y95206D01*
X86590Y94954D01*
X86523Y94793D01*
X87518D01*
X87451Y94954D01*
X87557Y95207D01*
X108431Y95224D01*
X108610Y95045D01*
D02*
G37*
%LPC*%
G36*
X92939Y94604D02*
Y94234D01*
X93309D01*
X93242Y94395D01*
X93099Y94538D01*
X92939Y94604D01*
D02*
G37*
G36*
X92685D02*
X92524Y94538D01*
X92381Y94395D01*
X92314Y94234D01*
X92685D01*
Y94604D01*
D02*
G37*
G36*
X87518Y94539D02*
X87147D01*
Y94169D01*
X87308Y94235D01*
X87451Y94378D01*
X87518Y94539D01*
D02*
G37*
G36*
X86893D02*
X86523D01*
X86590Y94378D01*
X86733Y94235D01*
X86893Y94169D01*
Y94539D01*
D02*
G37*
G36*
X93309Y93980D02*
X92939D01*
Y93610D01*
X93099Y93676D01*
X93242Y93819D01*
X93309Y93980D01*
D02*
G37*
G36*
X92685D02*
X92314D01*
X92381Y93819D01*
X92524Y93676D01*
X92685Y93610D01*
Y93980D01*
D02*
G37*
G36*
X89143Y92903D02*
Y92478D01*
X89568D01*
X89489Y92667D01*
X89332Y92825D01*
X89143Y92903D01*
D02*
G37*
G36*
X88889D02*
X88699Y92825D01*
X88542Y92667D01*
X88463Y92478D01*
X88889D01*
Y92903D01*
D02*
G37*
G36*
X93091Y91992D02*
Y91567D01*
X93516D01*
X93438Y91757D01*
X93281Y91914D01*
X93091Y91992D01*
D02*
G37*
G36*
X92837D02*
X92647Y91914D01*
X92490Y91757D01*
X92412Y91567D01*
X92837D01*
Y91992D01*
D02*
G37*
G36*
X86995D02*
Y91567D01*
X87420D01*
X87342Y91757D01*
X87185Y91914D01*
X86995Y91992D01*
D02*
G37*
G36*
X86741D02*
X86551Y91914D01*
X86394Y91757D01*
X86316Y91567D01*
X86741D01*
Y91992D01*
D02*
G37*
G36*
X83947D02*
Y91567D01*
X84372D01*
X84294Y91757D01*
X84137Y91914D01*
X83947Y91992D01*
D02*
G37*
G36*
X83693D02*
X83503Y91914D01*
X83346Y91757D01*
X83268Y91567D01*
X83693D01*
Y91992D01*
D02*
G37*
G36*
X106434Y94693D02*
X106113D01*
X105799Y94630D01*
X105503Y94507D01*
X105236Y94329D01*
X105010Y94103D01*
X104832Y93836D01*
X104709Y93540D01*
X104647Y93226D01*
Y92905D01*
X104709Y92591D01*
X104832Y92295D01*
X105010Y92028D01*
X105236Y91802D01*
X105503Y91624D01*
X105799Y91501D01*
X106113Y91439D01*
X106434D01*
X106748Y91501D01*
X107044Y91624D01*
X107311Y91802D01*
X107537Y92028D01*
X107715Y92295D01*
X107838Y92591D01*
X107901Y92905D01*
Y93226D01*
X107838Y93540D01*
X107715Y93836D01*
X107537Y94103D01*
X107311Y94329D01*
X107044Y94507D01*
X106748Y94630D01*
X106434Y94693D01*
D02*
G37*
G36*
X81415Y94515D02*
X81094D01*
X80780Y94452D01*
X80484Y94330D01*
X80217Y94152D01*
X79991Y93925D01*
X79813Y93658D01*
X79690Y93362D01*
X79628Y93048D01*
Y92728D01*
X79690Y92413D01*
X79813Y92117D01*
X79991Y91851D01*
X80217Y91624D01*
X80484Y91446D01*
X80780Y91323D01*
X81094Y91261D01*
X81415D01*
X81729Y91323D01*
X82025Y91446D01*
X82292Y91624D01*
X82518Y91851D01*
X82696Y92117D01*
X82819Y92413D01*
X82882Y92728D01*
Y93048D01*
X82819Y93362D01*
X82696Y93658D01*
X82518Y93925D01*
X82292Y94152D01*
X82025Y94330D01*
X81729Y94452D01*
X81415Y94515D01*
D02*
G37*
G36*
X90765Y91518D02*
Y91092D01*
X91191D01*
X91112Y91282D01*
X90955Y91439D01*
X90765Y91518D01*
D02*
G37*
G36*
X93516Y91313D02*
X93091D01*
Y90888D01*
X93281Y90966D01*
X93438Y91123D01*
X93516Y91313D01*
D02*
G37*
G36*
X92837D02*
X92412D01*
X92490Y91123D01*
X92647Y90966D01*
X92837Y90888D01*
Y91313D01*
D02*
G37*
G36*
X87420D02*
X86995D01*
Y90888D01*
X87185Y90966D01*
X87342Y91123D01*
X87420Y91313D01*
D02*
G37*
G36*
X86741D02*
X86316D01*
X86394Y91123D01*
X86551Y90966D01*
X86741Y90888D01*
Y91313D01*
D02*
G37*
G36*
X84372D02*
X83947D01*
Y90888D01*
X84137Y90966D01*
X84294Y91123D01*
X84372Y91313D01*
D02*
G37*
G36*
X83693D02*
X83268D01*
X83346Y91123D01*
X83503Y90966D01*
X83693Y90888D01*
Y91313D01*
D02*
G37*
G36*
X100457Y91306D02*
Y90881D01*
X100882D01*
X100804Y91071D01*
X100647Y91228D01*
X100457Y91306D01*
D02*
G37*
G36*
X100203D02*
X100013Y91228D01*
X99856Y91071D01*
X99778Y90881D01*
X100203D01*
Y91306D01*
D02*
G37*
G36*
X97762Y92428D02*
X95938D01*
Y90604D01*
X97762D01*
Y92428D01*
D02*
G37*
G36*
X89568Y92224D02*
X88463D01*
X88542Y92034D01*
X88581Y91995D01*
X88505Y91712D01*
X88470Y91702D01*
X88200Y91547D01*
X87980Y91327D01*
X87825Y91058D01*
X87744Y90757D01*
Y90446D01*
X87778Y90319D01*
X87743Y90255D01*
X87669Y90185D01*
Y89537D01*
Y88985D01*
X87858Y89063D01*
X88016Y89220D01*
X88099Y89422D01*
X88101Y89426D01*
X88355Y89567D01*
X88470Y89501D01*
X88770Y89421D01*
X89081D01*
X89097Y89425D01*
X89279Y89211D01*
X89246Y89131D01*
X90351D01*
X90272Y89321D01*
X90115Y89478D01*
X89910Y89563D01*
X89811Y89817D01*
X89871Y89877D01*
X90026Y90146D01*
X90086Y90369D01*
X90227Y90442D01*
X90294Y90468D01*
X90360Y90476D01*
X90511Y90413D01*
Y90965D01*
Y91518D01*
X90322Y91439D01*
X90181Y91298D01*
X90145Y91283D01*
X89893Y91289D01*
X89871Y91327D01*
X89651Y91547D01*
X89450Y91663D01*
X89438Y91685D01*
X89403Y91881D01*
X89412Y91957D01*
X89489Y92034D01*
X89568Y92224D01*
D02*
G37*
G36*
X91191Y90838D02*
X90765D01*
Y90413D01*
X90955Y90492D01*
X91112Y90649D01*
X91191Y90838D01*
D02*
G37*
G36*
X100882Y90627D02*
X100457D01*
Y90202D01*
X100647Y90280D01*
X100804Y90438D01*
X100882Y90627D01*
D02*
G37*
G36*
X100203D02*
X99778D01*
X99856Y90438D01*
X100013Y90280D01*
X100203Y90202D01*
Y90627D01*
D02*
G37*
G36*
X87415Y90089D02*
X87225Y90011D01*
X87068Y89854D01*
X86990Y89664D01*
X87415D01*
Y90089D01*
D02*
G37*
G36*
X107747Y89706D02*
X107557Y89628D01*
X107400Y89471D01*
X107322Y89281D01*
X107747D01*
Y89706D01*
D02*
G37*
G36*
X87415Y89410D02*
X86990D01*
X87068Y89220D01*
X87225Y89063D01*
X87415Y88985D01*
Y89410D01*
D02*
G37*
G36*
X93040Y89270D02*
Y88900D01*
X93410D01*
X93344Y89061D01*
X93201Y89204D01*
X93040Y89270D01*
D02*
G37*
G36*
X92786D02*
X92625Y89204D01*
X92483Y89061D01*
X92416Y88900D01*
X92786D01*
Y89270D01*
D02*
G37*
G36*
X107747Y89027D02*
X107322D01*
X107400Y88837D01*
X107557Y88680D01*
X107747Y88602D01*
Y89027D01*
D02*
G37*
G36*
X82423Y88944D02*
Y88519D01*
X82848D01*
X82770Y88709D01*
X82613Y88866D01*
X82423Y88944D01*
D02*
G37*
G36*
X82169D02*
X81979Y88866D01*
X81822Y88709D01*
X81744Y88519D01*
X82169D01*
Y88944D01*
D02*
G37*
G36*
X90351Y88877D02*
X89925D01*
Y88452D01*
X90115Y88530D01*
X90272Y88688D01*
X90351Y88877D01*
D02*
G37*
G36*
X89671D02*
X89246D01*
X89325Y88688D01*
X89482Y88530D01*
X89671Y88452D01*
Y88877D01*
D02*
G37*
G36*
X102159Y88792D02*
Y88367D01*
X102584D01*
X102506Y88556D01*
X102348Y88713D01*
X102159Y88792D01*
D02*
G37*
G36*
X101905D02*
X101715Y88713D01*
X101558Y88556D01*
X101480Y88367D01*
X101905D01*
Y88792D01*
D02*
G37*
G36*
X93410Y88646D02*
X93040D01*
Y88276D01*
X93201Y88342D01*
X93344Y88485D01*
X93410Y88646D01*
D02*
G37*
G36*
X92786D02*
X92416D01*
X92483Y88485D01*
X92625Y88342D01*
X92786Y88276D01*
Y88646D01*
D02*
G37*
G36*
X82848Y88265D02*
X82423D01*
Y87840D01*
X82613Y87918D01*
X82770Y88075D01*
X82848Y88265D01*
D02*
G37*
G36*
X82169D02*
X81744D01*
X81822Y88075D01*
X81979Y87918D01*
X82169Y87840D01*
Y88265D01*
D02*
G37*
G36*
X88179Y88018D02*
Y87592D01*
X88605D01*
X88526Y87782D01*
X88369Y87939D01*
X88179Y88018D01*
D02*
G37*
G36*
X87925D02*
X87736Y87939D01*
X87579Y87782D01*
X87500Y87592D01*
X87925D01*
Y88018D01*
D02*
G37*
G36*
X102584Y88113D02*
X101480D01*
X101558Y87923D01*
X101715Y87766D01*
X101760Y87747D01*
Y87472D01*
X101690Y87443D01*
X101533Y87286D01*
X101454Y87097D01*
X102559D01*
X102480Y87286D01*
X102323Y87443D01*
X102278Y87462D01*
Y87737D01*
X102348Y87766D01*
X102506Y87923D01*
X102584Y88113D01*
D02*
G37*
G36*
X85369Y87391D02*
Y87020D01*
X85740D01*
X85673Y87181D01*
X85530Y87324D01*
X85369Y87391D01*
D02*
G37*
G36*
X85115D02*
X84955Y87324D01*
X84812Y87181D01*
X84745Y87020D01*
X85115D01*
Y87391D01*
D02*
G37*
G36*
X89925Y87423D02*
Y86998D01*
X90351D01*
X90272Y87187D01*
X90115Y87344D01*
X89925Y87423D01*
D02*
G37*
G36*
X89671D02*
X89482Y87344D01*
X89325Y87187D01*
X89246Y86998D01*
X89671D01*
Y87423D01*
D02*
G37*
G36*
X88605Y87338D02*
X88179D01*
Y86913D01*
X88369Y86992D01*
X88526Y87149D01*
X88605Y87338D01*
D02*
G37*
G36*
X87925D02*
X87500D01*
X87579Y87149D01*
X87736Y86992D01*
X87925Y86913D01*
Y87338D01*
D02*
G37*
G36*
X107696Y87141D02*
X107506Y87062D01*
X107349Y86905D01*
X107271Y86716D01*
X107696D01*
Y87141D01*
D02*
G37*
G36*
X102559Y86843D02*
X102133D01*
Y86417D01*
X102323Y86496D01*
X102480Y86653D01*
X102559Y86843D01*
D02*
G37*
G36*
X101879D02*
X101454D01*
X101533Y86653D01*
X101690Y86496D01*
X101879Y86417D01*
Y86843D01*
D02*
G37*
G36*
X85740Y86766D02*
X85369D01*
Y86396D01*
X85530Y86463D01*
X85673Y86606D01*
X85740Y86766D01*
D02*
G37*
G36*
X85115D02*
X84745D01*
X84812Y86606D01*
X84955Y86463D01*
X85115Y86396D01*
Y86766D01*
D02*
G37*
G36*
X90351Y86744D02*
X89925D01*
Y86318D01*
X90115Y86397D01*
X90272Y86554D01*
X90351Y86744D01*
D02*
G37*
G36*
X89671D02*
X89246D01*
X89325Y86554D01*
X89482Y86397D01*
X89671Y86318D01*
Y86744D01*
D02*
G37*
G36*
X87706Y86531D02*
Y86106D01*
X88131D01*
X88053Y86296D01*
X87896Y86453D01*
X87706Y86531D01*
D02*
G37*
G36*
X107696Y86462D02*
X107271D01*
X107349Y86272D01*
X107506Y86115D01*
X107696Y86036D01*
Y86462D01*
D02*
G37*
G36*
X86741Y85896D02*
X86551Y85818D01*
X86394Y85661D01*
X86316Y85471D01*
X86741D01*
Y85896D01*
D02*
G37*
G36*
X83947D02*
Y85471D01*
X84372D01*
X84294Y85661D01*
X84137Y85818D01*
X83947Y85896D01*
D02*
G37*
G36*
X83693D02*
X83503Y85818D01*
X83346Y85661D01*
X83268Y85471D01*
X83693D01*
Y85896D01*
D02*
G37*
G36*
X88131Y85852D02*
X87706D01*
Y85427D01*
X87896Y85505D01*
X88053Y85662D01*
X88131Y85852D01*
D02*
G37*
G36*
X90678Y85232D02*
X90517Y85165D01*
X90501Y85149D01*
X90383Y85198D01*
Y84701D01*
Y84203D01*
X90543Y84270D01*
X90560Y84286D01*
X90678Y84237D01*
Y84734D01*
Y85232D01*
D02*
G37*
G36*
X91415Y85282D02*
X91254Y85216D01*
X91148Y85110D01*
X91093Y85165D01*
X90932Y85232D01*
Y84734D01*
Y84237D01*
X91093Y84304D01*
X91199Y84410D01*
X91254Y84355D01*
X91415Y84288D01*
Y84785D01*
Y85282D01*
D02*
G37*
G36*
X93497Y85257D02*
X93337Y85190D01*
X93243Y85097D01*
X93091Y85067D01*
X92939Y85097D01*
X92845Y85190D01*
X92685Y85257D01*
Y84760D01*
Y84263D01*
X92845Y84329D01*
X92939Y84423D01*
X93091Y84452D01*
X93243Y84423D01*
X93337Y84329D01*
X93497Y84263D01*
Y84760D01*
Y85257D01*
D02*
G37*
G36*
X93751D02*
Y84887D01*
X94122D01*
X94055Y85048D01*
X93912Y85190D01*
X93751Y85257D01*
D02*
G37*
G36*
X90129Y85198D02*
X89968Y85131D01*
X89825Y84988D01*
X89758Y84828D01*
X90129D01*
Y85198D01*
D02*
G37*
G36*
X87452Y86531D02*
X87263Y86453D01*
X87105Y86296D01*
X87020Y86090D01*
Y86062D01*
X86995Y85964D01*
Y85344D01*
Y84792D01*
X87185Y84870D01*
X87342Y85027D01*
X87427Y85233D01*
Y85261D01*
X87452Y85359D01*
Y85979D01*
Y86531D01*
D02*
G37*
G36*
X86741Y85217D02*
X86316D01*
X86394Y85027D01*
X86551Y84870D01*
X86741Y84792D01*
Y85217D01*
D02*
G37*
G36*
X84372D02*
X83947D01*
Y84792D01*
X84137Y84870D01*
X84294Y85027D01*
X84372Y85217D01*
D02*
G37*
G36*
X83693D02*
X83268D01*
X83346Y85027D01*
X83503Y84870D01*
X83693Y84792D01*
Y85217D01*
D02*
G37*
G36*
X94122Y84633D02*
X93751D01*
Y84263D01*
X93912Y84329D01*
X94055Y84472D01*
X94122Y84633D01*
D02*
G37*
G36*
X91669Y85282D02*
Y84785D01*
Y84288D01*
X91829Y84355D01*
X91880Y84405D01*
X92067Y84456D01*
X92203Y84396D01*
X92270Y84329D01*
X92431Y84263D01*
Y84760D01*
Y85257D01*
X92270Y85190D01*
X92219Y85140D01*
X92032Y85089D01*
X91896Y85149D01*
X91829Y85216D01*
X91669Y85282D01*
D02*
G37*
G36*
X107696Y84652D02*
X107506Y84573D01*
X107349Y84416D01*
X107271Y84226D01*
X107696D01*
Y84652D01*
D02*
G37*
G36*
X90129Y84574D02*
X89758D01*
X89825Y84413D01*
X89968Y84270D01*
X90129Y84203D01*
Y84574D01*
D02*
G37*
G36*
X85065Y83962D02*
Y83591D01*
X85435D01*
X85368Y83752D01*
X85225Y83895D01*
X85065Y83962D01*
D02*
G37*
G36*
X84811D02*
X84650Y83895D01*
X84507Y83752D01*
X84440Y83591D01*
X84811D01*
Y83962D01*
D02*
G37*
G36*
X107696Y83972D02*
X107271D01*
X107349Y83783D01*
X107506Y83626D01*
X107696Y83547D01*
Y83972D01*
D02*
G37*
G36*
X98877Y85357D02*
X98633D01*
X98397Y85293D01*
X98186Y85171D01*
X98013Y84999D01*
X97891Y84787D01*
X97828Y84552D01*
Y84308D01*
X97891Y84072D01*
X98013Y83860D01*
X98186Y83688D01*
X98397Y83566D01*
X98633Y83503D01*
X98877D01*
X99113Y83566D01*
X99324Y83688D01*
X99497Y83860D01*
X99619Y84072D01*
X99682Y84308D01*
Y84552D01*
X99619Y84787D01*
X99497Y84999D01*
X99324Y85171D01*
X99113Y85293D01*
X98877Y85357D01*
D02*
G37*
G36*
X96615Y85367D02*
X95815D01*
X95610Y85326D01*
X95435Y85210D01*
X95319Y85035D01*
X95278Y84830D01*
Y84030D01*
X95319Y83824D01*
X95435Y83650D01*
X95610Y83533D01*
X95815Y83492D01*
X96615D01*
X96821Y83533D01*
X96995Y83650D01*
X97112Y83824D01*
X97153Y84030D01*
Y84830D01*
X97112Y85035D01*
X96995Y85210D01*
X96821Y85326D01*
X96615Y85367D01*
D02*
G37*
G36*
X79934Y83809D02*
Y83439D01*
X80304D01*
X80237Y83600D01*
X80095Y83743D01*
X79934Y83809D01*
D02*
G37*
G36*
X79680D02*
X79519Y83743D01*
X79376Y83600D01*
X79310Y83439D01*
X79680D01*
Y83809D01*
D02*
G37*
G36*
X103962Y83788D02*
Y83363D01*
X104387D01*
X104309Y83552D01*
X104152Y83710D01*
X103962Y83788D01*
D02*
G37*
G36*
X103708D02*
X103519Y83710D01*
X103361Y83552D01*
X103283Y83363D01*
X103708D01*
Y83788D01*
D02*
G37*
G36*
X101321D02*
Y83363D01*
X101746D01*
X101667Y83552D01*
X101510Y83710D01*
X101321Y83788D01*
D02*
G37*
G36*
X101067D02*
X100877Y83710D01*
X100720Y83552D01*
X100641Y83363D01*
X101067D01*
Y83788D01*
D02*
G37*
G36*
X85435Y83337D02*
X85065D01*
Y82967D01*
X85225Y83034D01*
X85368Y83177D01*
X85435Y83337D01*
D02*
G37*
G36*
X84811D02*
X84440D01*
X84507Y83177D01*
X84650Y83034D01*
X84811Y82967D01*
Y83337D01*
D02*
G37*
G36*
X80304Y83185D02*
X79934D01*
Y82815D01*
X80095Y82881D01*
X80237Y83024D01*
X80304Y83185D01*
D02*
G37*
G36*
X79680D02*
X79310D01*
X79376Y83024D01*
X79519Y82881D01*
X79680Y82815D01*
Y83185D01*
D02*
G37*
G36*
X104387Y83109D02*
X103962D01*
Y82684D01*
X104152Y82762D01*
X104309Y82919D01*
X104387Y83109D01*
D02*
G37*
G36*
X103708D02*
X103283D01*
X103361Y82919D01*
X103519Y82762D01*
X103708Y82684D01*
Y83109D01*
D02*
G37*
G36*
X101746D02*
X101321D01*
Y82684D01*
X101510Y82762D01*
X101667Y82919D01*
X101746Y83109D01*
D02*
G37*
G36*
X101067D02*
X100641D01*
X100720Y82919D01*
X100877Y82762D01*
X101067Y82684D01*
Y83109D01*
D02*
G37*
G36*
X82423Y82848D02*
Y82423D01*
X82848D01*
X82770Y82613D01*
X82613Y82770D01*
X82423Y82848D01*
D02*
G37*
G36*
X82169D02*
X81979Y82770D01*
X81822Y82613D01*
X81744Y82423D01*
X82169D01*
Y82848D01*
D02*
G37*
G36*
X82848Y82169D02*
X82423D01*
Y81744D01*
X82613Y81822D01*
X82770Y81979D01*
X82848Y82169D01*
D02*
G37*
G36*
X82169D02*
X81744D01*
X81822Y81979D01*
X81979Y81822D01*
X82169Y81744D01*
Y82169D01*
D02*
G37*
G36*
X107747Y82162D02*
X107557Y82084D01*
X107400Y81927D01*
X107322Y81737D01*
X107747D01*
Y82162D01*
D02*
G37*
G36*
X87732Y82086D02*
Y81661D01*
X88157D01*
X88078Y81851D01*
X87921Y82008D01*
X87732Y82086D01*
D02*
G37*
G36*
X87478D02*
X87288Y82008D01*
X87131Y81851D01*
X87052Y81661D01*
X87478D01*
Y82086D01*
D02*
G37*
G36*
X93904Y81578D02*
X93714Y81500D01*
X93586Y81372D01*
X93484Y81474D01*
X93294Y81553D01*
Y81001D01*
X93040D01*
Y81553D01*
X92851Y81474D01*
X92735Y81359D01*
X92595Y81500D01*
X92405Y81578D01*
Y81026D01*
X92278D01*
Y80899D01*
X91726D01*
X91804Y80709D01*
X91920Y80594D01*
X91855Y80530D01*
X91777Y80340D01*
X92329D01*
Y80086D01*
X91777D01*
X91855Y79897D01*
X91932Y79820D01*
X91830Y79717D01*
X91751Y79527D01*
X92304D01*
Y79400D01*
X92431D01*
Y78848D01*
X92620Y78927D01*
X92735Y79042D01*
X92851Y78927D01*
X93040Y78848D01*
Y79400D01*
X93294D01*
Y78848D01*
X93484Y78927D01*
X93599Y79042D01*
X93714Y78927D01*
X93904Y78848D01*
Y79400D01*
X94031D01*
Y79527D01*
X94583D01*
X94505Y79717D01*
X94389Y79832D01*
X94479Y79922D01*
X94558Y80112D01*
X94005D01*
Y80366D01*
X94558D01*
X94479Y80555D01*
X94415Y80620D01*
X94505Y80709D01*
X94583Y80899D01*
X94031D01*
Y81026D01*
X93904D01*
Y81578D01*
D02*
G37*
G36*
X83326Y81702D02*
Y81276D01*
X83751D01*
X83673Y81466D01*
X83516Y81623D01*
X83326Y81702D01*
D02*
G37*
G36*
X83072D02*
X82883Y81623D01*
X82725Y81466D01*
X82647Y81276D01*
X83072D01*
Y81702D01*
D02*
G37*
G36*
X94158Y81578D02*
Y81153D01*
X94583D01*
X94505Y81343D01*
X94347Y81500D01*
X94158Y81578D01*
D02*
G37*
G36*
X92151D02*
X91962Y81500D01*
X91804Y81343D01*
X91726Y81153D01*
X92151D01*
Y81578D01*
D02*
G37*
G36*
X107747Y81483D02*
X107322D01*
X107400Y81294D01*
X107557Y81136D01*
X107747Y81058D01*
Y81483D01*
D02*
G37*
G36*
X85260Y80800D02*
Y80375D01*
X85685D01*
X85607Y80565D01*
X85449Y80722D01*
X85260Y80800D01*
D02*
G37*
G36*
X85006D02*
X84816Y80722D01*
X84659Y80565D01*
X84581Y80375D01*
X85006D01*
Y80800D01*
D02*
G37*
G36*
X88214Y80537D02*
Y80112D01*
X88639D01*
X88561Y80301D01*
X88404Y80458D01*
X88214Y80537D01*
D02*
G37*
G36*
X87140Y80121D02*
X86714D01*
X86793Y79931D01*
X86950Y79774D01*
X87140Y79696D01*
Y80121D01*
D02*
G37*
G36*
X85685D02*
X85260D01*
Y79696D01*
X85449Y79774D01*
X85607Y79931D01*
X85685Y80121D01*
D02*
G37*
G36*
X85006D02*
X84581D01*
X84659Y79931D01*
X84816Y79774D01*
X85006Y79696D01*
Y80121D01*
D02*
G37*
G36*
X88639Y79858D02*
X88214D01*
Y79432D01*
X88404Y79511D01*
X88561Y79668D01*
X88639Y79858D01*
D02*
G37*
G36*
X88157Y81407D02*
X87052D01*
X87131Y81217D01*
X87288Y81061D01*
X87288Y81058D01*
X87236Y80807D01*
X87155D01*
X86950Y80722D01*
X86793Y80565D01*
X86714Y80375D01*
X87267D01*
Y80248D01*
X87394D01*
Y79696D01*
X87571Y79769D01*
X87613Y79668D01*
X87771Y79511D01*
X87960Y79432D01*
Y79985D01*
Y80537D01*
X87782Y80463D01*
X87740Y80565D01*
X87584Y80721D01*
X87584Y80724D01*
X87635Y80975D01*
X87716D01*
X87921Y81060D01*
X88078Y81217D01*
X88157Y81407D01*
D02*
G37*
G36*
X99187Y79800D02*
Y79375D01*
X99612D01*
X99534Y79565D01*
X99377Y79722D01*
X99187Y79800D01*
D02*
G37*
G36*
X98933D02*
X98743Y79722D01*
X98586Y79565D01*
X98508Y79375D01*
X98933D01*
Y79800D01*
D02*
G37*
G36*
X96139D02*
Y79375D01*
X96564D01*
X96486Y79565D01*
X96329Y79722D01*
X96139Y79800D01*
D02*
G37*
G36*
X95885D02*
X95695Y79722D01*
X95538Y79565D01*
X95460Y79375D01*
X95885D01*
Y79800D01*
D02*
G37*
G36*
X107696Y79546D02*
X107506Y79468D01*
X107349Y79311D01*
X107271Y79121D01*
X107696D01*
Y79546D01*
D02*
G37*
G36*
X94583Y79273D02*
X94158D01*
Y78848D01*
X94347Y78927D01*
X94505Y79084D01*
X94583Y79273D01*
D02*
G37*
G36*
X92177D02*
X91751D01*
X91830Y79084D01*
X91987Y78927D01*
X92177Y78848D01*
Y79273D01*
D02*
G37*
G36*
X99612Y79121D02*
X99187D01*
Y78696D01*
X99377Y78774D01*
X99534Y78931D01*
X99612Y79121D01*
D02*
G37*
G36*
X98933D02*
X98508D01*
X98586Y78931D01*
X98743Y78774D01*
X98933Y78696D01*
Y79121D01*
D02*
G37*
G36*
X96564D02*
X96139D01*
Y78696D01*
X96329Y78774D01*
X96486Y78931D01*
X96564Y79121D01*
D02*
G37*
G36*
X95885D02*
X95460D01*
X95538Y78931D01*
X95695Y78774D01*
X95885Y78696D01*
Y79121D01*
D02*
G37*
G36*
X90375Y79054D02*
Y78629D01*
X90800D01*
X90722Y78819D01*
X90564Y78976D01*
X90375Y79054D01*
D02*
G37*
G36*
X90121D02*
X89931Y78976D01*
X89774Y78819D01*
X89696Y78629D01*
X90121D01*
Y79054D01*
D02*
G37*
G36*
X88241D02*
Y78629D01*
X88667D01*
X88588Y78819D01*
X88431Y78976D01*
X88241Y79054D01*
D02*
G37*
G36*
X87987D02*
X87798Y78976D01*
X87641Y78819D01*
X87562Y78629D01*
X87987D01*
Y79054D01*
D02*
G37*
G36*
X86108D02*
Y78629D01*
X86533D01*
X86454Y78819D01*
X86297Y78976D01*
X86108Y79054D01*
D02*
G37*
G36*
X85854D02*
X85664Y78976D01*
X85507Y78819D01*
X85428Y78629D01*
X85854D01*
Y79054D01*
D02*
G37*
G36*
X107696Y78867D02*
X107271D01*
X107349Y78677D01*
X107506Y78520D01*
X107696Y78442D01*
Y78867D01*
D02*
G37*
G36*
X83751Y81022D02*
X82647D01*
X82725Y80833D01*
X82764Y80794D01*
X82688Y80511D01*
X82653Y80501D01*
X82384Y80346D01*
X82164Y80126D01*
X82008Y79856D01*
X81928Y79556D01*
Y79245D01*
X81996Y78992D01*
X81996Y78991D01*
X81906Y78841D01*
X81823Y78757D01*
X81726D01*
X81521Y78672D01*
X81364Y78515D01*
X81285Y78325D01*
X81838D01*
Y78198D01*
X81965D01*
Y77646D01*
X82154Y77724D01*
X82311Y77882D01*
X82396Y78087D01*
Y78155D01*
X82650Y78301D01*
X82653Y78300D01*
X82953Y78219D01*
X83212D01*
X83332Y78100D01*
X83393Y77991D01*
X83393Y77991D01*
X84497D01*
X84419Y78180D01*
X84261Y78337D01*
X84130Y78392D01*
X84054Y78604D01*
X84054Y78675D01*
X84209Y78945D01*
X84290Y79245D01*
Y79556D01*
X84209Y79856D01*
X84054Y80126D01*
X83834Y80346D01*
X83633Y80461D01*
X83621Y80483D01*
X83586Y80679D01*
X83596Y80756D01*
X83673Y80833D01*
X83751Y81022D01*
D02*
G37*
G36*
X90800Y78375D02*
X90375D01*
Y77950D01*
X90564Y78028D01*
X90722Y78185D01*
X90800Y78375D01*
D02*
G37*
G36*
X90121D02*
X89696D01*
X89774Y78185D01*
X89931Y78028D01*
X90121Y77950D01*
Y78375D01*
D02*
G37*
G36*
X88667D02*
X88241D01*
Y77950D01*
X88431Y78028D01*
X88588Y78185D01*
X88667Y78375D01*
D02*
G37*
G36*
X87987D02*
X87562D01*
X87641Y78185D01*
X87798Y78028D01*
X87987Y77950D01*
Y78375D01*
D02*
G37*
G36*
X86533D02*
X86108D01*
Y77950D01*
X86297Y78028D01*
X86454Y78185D01*
X86533Y78375D01*
D02*
G37*
G36*
X85854D02*
X85428D01*
X85507Y78185D01*
X85664Y78028D01*
X85854Y77950D01*
Y78375D01*
D02*
G37*
G36*
X81711Y78071D02*
X81285D01*
X81364Y77882D01*
X81521Y77724D01*
X81711Y77646D01*
Y78071D01*
D02*
G37*
G36*
X84497Y77737D02*
X84072D01*
Y77311D01*
X84261Y77390D01*
X84419Y77547D01*
X84497Y77737D01*
D02*
G37*
G36*
X83818D02*
X83393D01*
X83471Y77547D01*
X83628Y77390D01*
X83818Y77311D01*
Y77737D01*
D02*
G37*
G36*
X107747Y76905D02*
X107557Y76826D01*
X107400Y76669D01*
X107322Y76479D01*
X107747D01*
Y76905D01*
D02*
G37*
G36*
X100711Y76752D02*
Y76327D01*
X101136D01*
X101058Y76517D01*
X100901Y76674D01*
X100711Y76752D01*
D02*
G37*
G36*
X100457D02*
X100267Y76674D01*
X100110Y76517D01*
X100032Y76327D01*
X100457D01*
Y76752D01*
D02*
G37*
G36*
X94615D02*
Y76327D01*
X95040D01*
X94962Y76517D01*
X94805Y76674D01*
X94615Y76752D01*
D02*
G37*
G36*
X94361D02*
X94171Y76674D01*
X94014Y76517D01*
X93936Y76327D01*
X94361D01*
Y76752D01*
D02*
G37*
G36*
X91567D02*
Y76327D01*
X91992D01*
X91914Y76517D01*
X91757Y76674D01*
X91567Y76752D01*
D02*
G37*
G36*
X91313D02*
X91123Y76674D01*
X90966Y76517D01*
X90888Y76327D01*
X91313D01*
Y76752D01*
D02*
G37*
G36*
X88519D02*
Y76327D01*
X88944D01*
X88866Y76517D01*
X88709Y76674D01*
X88519Y76752D01*
D02*
G37*
G36*
X88265D02*
X88075Y76674D01*
X87918Y76517D01*
X87840Y76327D01*
X88265D01*
Y76752D01*
D02*
G37*
G36*
X82423D02*
Y76327D01*
X82848D01*
X82770Y76517D01*
X82613Y76674D01*
X82423Y76752D01*
D02*
G37*
G36*
X82169D02*
X81979Y76674D01*
X81822Y76517D01*
X81744Y76327D01*
X82169D01*
Y76752D01*
D02*
G37*
G36*
X107747Y76225D02*
X107322D01*
X107400Y76036D01*
X107557Y75879D01*
X107747Y75800D01*
Y76225D01*
D02*
G37*
G36*
X101136Y76073D02*
X100711D01*
Y75648D01*
X100901Y75726D01*
X101058Y75883D01*
X101136Y76073D01*
D02*
G37*
G36*
X100457D02*
X100032D01*
X100110Y75883D01*
X100267Y75726D01*
X100457Y75648D01*
Y76073D01*
D02*
G37*
G36*
X95040D02*
X94615D01*
Y75648D01*
X94805Y75726D01*
X94962Y75883D01*
X95040Y76073D01*
D02*
G37*
G36*
X94361D02*
X93936D01*
X94014Y75883D01*
X94171Y75726D01*
X94361Y75648D01*
Y76073D01*
D02*
G37*
G36*
X91992D02*
X91567D01*
Y75648D01*
X91757Y75726D01*
X91914Y75883D01*
X91992Y76073D01*
D02*
G37*
G36*
X91313D02*
X90888D01*
X90966Y75883D01*
X91123Y75726D01*
X91313Y75648D01*
Y76073D01*
D02*
G37*
G36*
X88944D02*
X88519D01*
Y75648D01*
X88709Y75726D01*
X88866Y75883D01*
X88944Y76073D01*
D02*
G37*
G36*
X88265D02*
X87840D01*
X87918Y75883D01*
X88075Y75726D01*
X88265Y75648D01*
Y76073D01*
D02*
G37*
G36*
X82848D02*
X82423D01*
Y75648D01*
X82613Y75726D01*
X82770Y75883D01*
X82848Y76073D01*
D02*
G37*
G36*
X82169D02*
X81744D01*
X81822Y75883D01*
X81979Y75726D01*
X82169Y75648D01*
Y76073D01*
D02*
G37*
G36*
X86512Y75910D02*
Y75540D01*
X86883D01*
X86816Y75700D01*
X86673Y75843D01*
X86512Y75910D01*
D02*
G37*
G36*
X86258D02*
X86098Y75843D01*
X85955Y75700D01*
X85888Y75540D01*
X86258D01*
Y75910D01*
D02*
G37*
G36*
X80213Y75732D02*
Y75362D01*
X80583D01*
X80517Y75523D01*
X80374Y75665D01*
X80213Y75732D01*
D02*
G37*
G36*
X79959D02*
X79798Y75665D01*
X79656Y75523D01*
X79589Y75362D01*
X79959D01*
Y75732D01*
D02*
G37*
G36*
X86883Y75286D02*
X86512D01*
Y74915D01*
X86673Y74982D01*
X86816Y75125D01*
X86883Y75286D01*
D02*
G37*
G36*
X86258D02*
X85888D01*
X85955Y75125D01*
X86098Y74982D01*
X86258Y74915D01*
Y75286D01*
D02*
G37*
G36*
X80583Y75108D02*
X80213D01*
Y74738D01*
X80374Y74804D01*
X80517Y74947D01*
X80583Y75108D01*
D02*
G37*
G36*
X79959D02*
X79589D01*
X79656Y74947D01*
X79798Y74804D01*
X79959Y74738D01*
Y75108D01*
D02*
G37*
G36*
X81339Y73230D02*
X81018D01*
X80704Y73167D01*
X80408Y73044D01*
X80141Y72866D01*
X79915Y72640D01*
X79737Y72373D01*
X79614Y72077D01*
X79551Y71763D01*
Y71442D01*
X79614Y71128D01*
X79737Y70832D01*
X79915Y70565D01*
X80141Y70339D01*
X80408Y70161D01*
X80704Y70038D01*
X81018Y69976D01*
X81339D01*
X81653Y70038D01*
X81949Y70161D01*
X82216Y70339D01*
X82442Y70565D01*
X82620Y70832D01*
X82743Y71128D01*
X82805Y71442D01*
Y71763D01*
X82743Y72077D01*
X82620Y72373D01*
X82442Y72640D01*
X82216Y72866D01*
X81949Y73044D01*
X81653Y73167D01*
X81339Y73230D01*
D02*
G37*
G36*
X106510Y73026D02*
X106190D01*
X105875Y72964D01*
X105579Y72841D01*
X105313Y72663D01*
X105086Y72437D01*
X104908Y72170D01*
X104785Y71874D01*
X104723Y71560D01*
Y71239D01*
X104785Y70925D01*
X104908Y70629D01*
X105086Y70362D01*
X105313Y70136D01*
X105579Y69958D01*
X105875Y69835D01*
X106190Y69772D01*
X106510D01*
X106824Y69835D01*
X107120Y69958D01*
X107387Y70136D01*
X107614Y70362D01*
X107792Y70629D01*
X107914Y70925D01*
X107977Y71239D01*
Y71560D01*
X107914Y71874D01*
X107792Y72170D01*
X107614Y72437D01*
X107387Y72663D01*
X107120Y72841D01*
X106824Y72964D01*
X106510Y73026D01*
D02*
G37*
%LPD*%
D35*
X96850Y91516D02*
D03*
D36*
X99390D02*
D03*
D37*
X80569Y81940D02*
D03*
Y76860D02*
D03*
X85649D02*
D03*
Y81940D02*
D03*
X83109Y79400D02*
D03*
X88925Y90602D02*
D03*
X86385Y93142D02*
D03*
Y88062D02*
D03*
X91465D02*
D03*
Y93142D02*
D03*
D42*
X103835Y84430D02*
D03*
X101295D02*
D03*
X98755D02*
D03*
D43*
X96215D02*
D03*
D44*
X106680Y89129D02*
D03*
Y86589D02*
D03*
Y84049D02*
D03*
Y81509D02*
D03*
Y78969D02*
D03*
D45*
Y76429D02*
D03*
D46*
X81178Y71603D02*
D03*
X106350Y71399D02*
D03*
X106274Y93066D02*
D03*
X81255Y92888D02*
D03*
D47*
X88087Y79985D02*
D03*
X102006Y86970D02*
D03*
X107823Y86589D02*
D03*
X107874Y89154D02*
D03*
X102032Y88240D02*
D03*
X107823Y84099D02*
D03*
X107874Y81610D02*
D03*
X103835Y83236D02*
D03*
X100330Y90754D02*
D03*
X92964Y91440D02*
D03*
X101194Y83236D02*
D03*
X107823Y78994D02*
D03*
X94031Y79400D02*
D03*
Y81026D02*
D03*
X107874Y76352D02*
D03*
X100584Y76200D02*
D03*
X99060Y79248D02*
D03*
X96012D02*
D03*
X94488Y76200D02*
D03*
X93167Y81001D02*
D03*
X92278Y81026D02*
D03*
X94005Y80239D02*
D03*
X93167Y80213D02*
D03*
Y79400D02*
D03*
X92329Y80213D02*
D03*
X92304Y79400D02*
D03*
X91440Y76200D02*
D03*
X90638Y90965D02*
D03*
X89798Y89004D02*
D03*
X89016Y92351D02*
D03*
X88052Y87465D02*
D03*
X89798Y86871D02*
D03*
X86868Y91440D02*
D03*
X87542Y89537D02*
D03*
X83820Y91440D02*
D03*
X87579Y85979D02*
D03*
X86868Y85344D02*
D03*
X83820D02*
D03*
X82296Y88392D02*
D03*
X87605Y81534D02*
D03*
X87267Y80248D02*
D03*
X90248Y78502D02*
D03*
X88392Y76200D02*
D03*
X88114Y78502D02*
D03*
X85133Y80248D02*
D03*
X83199Y81149D02*
D03*
X85981Y78502D02*
D03*
X82296Y82296D02*
D03*
X83945Y77864D02*
D03*
X81838Y78198D02*
D03*
X82296Y76200D02*
D03*
D48*
X92812Y94107D02*
D03*
X92913Y88773D02*
D03*
X93624Y84760D02*
D03*
X92558D02*
D03*
X91542Y84785D02*
D03*
X90805Y84734D02*
D03*
X90256Y84701D02*
D03*
X87020Y94666D02*
D03*
X85242Y86893D02*
D03*
X84938Y83464D02*
D03*
X86385Y75413D02*
D03*
X79807Y83312D02*
D03*
X80086Y75235D02*
D03*
M02*
