G04*
G04 #@! TF.GenerationSoftware,Altium Limited,Altium Designer,26.5.1 (12)*
G04*
G04 Layer_Color=16711935*
G04 Board_Origin=0|0*
%FSLAX43Y43*%
%MOMM*%
G71*
G04*
G04 #@! TF.SameCoordinates,EEE4B215-AFAD-44E5-B78E-6D07C90FEE48*
G04*
G04*
G04 #@! TF.FilePolarity,Negative*
G04*
G01*
G75*
%ADD31C,1.702*%
G04:AMPARAMS|DCode=32|XSize=1.702mm|YSize=1.702mm|CornerRadius=0.451mm|HoleSize=0mm|Usage=FLASHONLY|Rotation=0.000|XOffset=0mm|YOffset=0mm|HoleType=Round|Shape=RoundedRectangle|*
%AMROUNDEDRECTD32*
21,1,1.702,0.800,0,0,0.0*
21,1,0.800,1.702,0,0,0.0*
1,1,0.902,0.400,-0.400*
1,1,0.902,-0.400,-0.400*
1,1,0.902,-0.400,0.400*
1,1,0.902,0.400,0.400*
%
%ADD32ROUNDEDRECTD32*%
%ADD33C,1.652*%
%ADD34R,1.652X1.652*%
%ADD35R,1.570X1.570*%
%ADD36C,1.570*%
%ADD37C,2.108*%
%ADD38C,3.102*%
D31*
X103835Y84430D02*
D03*
X101295D02*
D03*
X98755D02*
D03*
D32*
X96215D02*
D03*
D33*
X106680Y89129D02*
D03*
Y86589D02*
D03*
Y84049D02*
D03*
Y81509D02*
D03*
Y78969D02*
D03*
D34*
Y76429D02*
D03*
D35*
X96850Y91516D02*
D03*
D36*
X99390D02*
D03*
D37*
X80569Y81940D02*
D03*
Y76860D02*
D03*
X85649D02*
D03*
Y81940D02*
D03*
X83109Y79400D02*
D03*
X88925Y90602D02*
D03*
X86385Y93142D02*
D03*
Y88062D02*
D03*
X91465D02*
D03*
Y93142D02*
D03*
D38*
X81178Y71603D02*
D03*
X106350Y71399D02*
D03*
X106274Y93066D02*
D03*
X81255Y92888D02*
D03*
M02*
