M48
;Layer_Color=9474304
;FILE_FORMAT=4:3
METRIC,TZ
;TYPE=PLATED
T01F00S00C0.254
T02F00S00C0.305
T03F00S00C1.020
T04F00S00C1.100
T05F00S00C1.600
%
T01
X80086Y75235
X86385Y75413
X84938Y83464
X85242Y86893
X90256Y84701
X90805Y84734
X91542Y84785
X92558Y84760
X93624
X92913Y88773
X92812Y94107
X87020Y94666
X79807Y83312
T02
X82296Y76200
X81838Y78198
X83945Y77864
X85981Y78502
X88114
X90248
X91440Y76200
X94488
X96012Y79248
X99060
X100584Y76200
X107874Y76352
X107823Y78994
X88392Y76200
X88087Y79985
X87267Y80248
X87605Y81534
X85133Y80248
X83199Y81149
X82296Y82296
X83820Y85344
X86868
X87579Y85979
X88052Y87465
X89798Y86871
Y89004
X87542Y89537
X86868Y91440
X83820
X82296Y88392
X89016Y92351
X90638Y90965
X92964Y91440
X100330Y90754
X102032Y88240
X102006Y86970
X101194Y83236
X103835
X107823Y84099
Y86589
X107874Y89154
Y81610
X94031Y81026
X94005Y80239
X94031Y79400
X93167
Y80213
Y81001
X92278Y81026
X92329Y80213
X92304Y79400
T03
X106680Y76429
Y78969
Y81509
Y84049
Y86589
Y89129
X99390Y91516
X96850
T04
X96215Y84430
X98755
X101295
X103835
T05
X80569Y76860
X85649
Y81940
X80569
X83109Y79400
X86385Y88062
X88925Y90602
X86385Y93142
X91465
Y88062
M30
